{"glyphs":{"0":{"ha":894,"x_min":101,"x_max":954,"o":"m 340 -7 q 162 47 222 -7 q 101 201 101 100 q 107 267 101 235 l 185 753 q 291 965 207 890 q 508 1039 375 1039 l 728 1039 q 897 983 839 1039 q 954 824 954 928 q 949 753 954 786 l 871 267 q 769 65 850 138 q 561 -7 688 -7 l 340 -7 m 529 208 q 603 231 576 208 q 638 303 629 254 l 704 728 l 707 756 q 689 808 707 792 q 636 824 671 824 l 522 824 q 421 728 436 824 l 353 304 q 350 276 350 282 q 371 224 350 240 q 433 208 392 208 l 529 208 z "},"1":{"ha":522,"x_min":163,"x_max":613,"o":"m 338 814 l 163 792 l 186 944 l 399 1031 l 613 1031 l 449 0 l 208 0 l 338 814 z "},"2":{"ha":811,"x_min":60,"x_max":839,"o":"m 89 192 l 471 525 q 567 635 535 581 q 599 735 599 689 q 577 792 599 774 q 510 811 556 811 l 207 811 l 239 1001 q 268 1007 258 1004 q 421 1031 360 1024 q 558 1039 482 1039 q 772 976 706 1039 q 839 806 839 914 q 796 601 839 696 q 654 419 753 506 l 424 215 l 801 215 l 767 0 l 60 0 l 89 192 z "},"3":{"ha":801,"x_min":53,"x_max":861,"o":"m 450 -8 q 53 25 231 -8 l 82 206 l 390 206 q 510 224 475 206 q 554 290 546 242 l 561 338 q 524 397 561 375 q 424 422 488 419 l 206 432 l 233 604 l 475 618 q 607 701 594 625 q 613 743 613 740 q 578 806 613 788 q 482 824 544 824 l 197 824 l 226 1003 q 592 1039 446 1039 q 794 993 726 1039 q 861 836 861 947 q 846 707 861 800 q 693 518 821 558 q 772 459 743 503 q 800 351 800 415 q 793 283 800 342 q 788 249 790 274 q 679 58 768 125 q 450 -8 590 -8 z "},"4":{"ha":872,"x_min":79,"x_max":911,"o":"m 546 203 l 107 203 l 79 313 l 508 1031 l 754 1031 l 381 407 l 578 407 l 604 582 l 671 708 l 864 708 l 817 407 l 911 407 l 883 240 l 785 203 l 753 0 l 513 0 l 546 203 z "},"5":{"ha":832,"x_min":78,"x_max":901,"o":"m 422 -8 q 78 18 313 -8 l 108 207 l 468 207 q 588 307 575 207 l 597 363 q 600 390 600 382 q 528 451 600 451 l 457 451 q 400 438 419 451 q 369 390 381 424 l 140 390 l 271 1031 l 901 1031 l 867 815 l 465 815 l 426 619 q 539 656 478 656 l 647 656 q 798 603 747 656 q 849 463 849 550 q 844 407 849 435 l 819 256 q 700 55 797 118 q 422 -8 603 -8 z "},"6":{"ha":836,"x_min":119,"x_max":882,"o":"m 376 -7 q 233 19 289 -7 q 149 111 178 46 q 119 292 119 176 q 240 840 119 642 q 622 1039 360 1039 q 882 1013 778 1039 l 853 824 l 614 824 q 466 769 518 824 q 396 608 414 715 q 490 629 440 624 q 615 635 539 635 q 797 588 742 635 q 851 456 851 542 q 844 390 851 429 l 821 242 q 723 53 801 114 q 522 -7 644 -7 l 376 -7 m 500 208 q 562 228 540 208 q 590 292 583 249 l 597 343 q 600 375 600 368 q 581 419 600 407 q 514 431 561 431 l 368 431 q 357 324 357 344 q 381 233 357 258 q 460 208 406 208 l 500 208 z "},"7":{"ha":775,"x_min":140,"x_max":896,"o":"m 564 790 l 154 790 l 193 1031 l 851 1031 l 896 932 l 419 0 l 140 0 l 564 790 z "},"8":{"ha":865,"x_min":97,"x_max":911,"o":"m 335 -7 q 97 158 97 -7 q 103 217 97 181 l 126 363 q 170 467 135 421 q 260 526 206 514 q 209 573 224 546 q 194 636 194 600 q 201 707 194 665 l 219 826 q 313 992 239 944 q 500 1039 388 1039 l 714 1039 q 862 1001 813 1039 q 911 881 911 964 q 906 824 911 865 l 888 707 q 851 604 879 657 q 775 544 824 551 q 858 417 858 524 q 854 365 858 407 l 832 224 q 737 42 811 92 q 546 -7 663 -7 l 335 -7 m 575 628 q 632 647 615 628 q 656 711 649 667 l 663 765 l 665 788 q 651 826 665 817 q 610 835 636 835 l 524 835 q 468 821 486 835 q 443 765 450 807 l 436 711 q 432 676 432 690 q 445 638 432 649 q 489 628 458 628 l 575 628 m 508 196 q 574 214 556 196 q 599 271 593 232 l 613 347 l 614 365 q 597 409 614 393 q 546 425 579 425 l 457 425 q 395 404 421 425 q 364 347 369 383 l 351 271 q 350 247 350 263 q 367 208 350 219 q 421 196 385 196 l 508 196 z "},"9":{"ha":836,"x_min":115,"x_max":878,"o":"m 621 1038 q 764 1011 708 1038 q 849 919 819 985 q 878 739 878 854 q 758 190 878 389 q 375 -8 638 -8 q 115 18 219 -8 l 144 207 l 383 207 q 531 261 479 207 q 601 422 583 315 q 508 401 557 407 q 382 396 458 396 q 201 442 256 396 q 146 575 146 489 q 153 640 146 601 l 176 789 q 274 977 196 917 q 475 1038 353 1038 l 621 1038 m 497 822 q 435 802 457 822 q 407 739 414 782 l 400 688 q 397 656 397 663 q 417 612 397 624 q 483 600 436 600 l 629 600 q 640 707 640 686 q 616 797 640 772 q 538 822 592 822 l 497 822 z "},"\u0000":{"ha":0,"x_min":0,"x_max":0,"o":""},"\r":{"ha":344,"x_min":0,"x_max":0,"o":""}," ":{"ha":344,"x_min":0,"x_max":0,"o":""},"A":{"ha":976,"x_min":26,"x_max":954,"o":"m 504 1031 l 804 1031 l 954 0 l 706 0 l 683 188 l 354 188 l 272 0 l 26 0 l 504 1031 m 661 403 l 619 825 l 444 403 l 661 403 z "},"Á":{"ha":976,"x_min":26,"x_max":954,"o":"m 504 1031 l 804 1031 l 954 0 l 706 0 l 683 188 l 354 188 l 272 0 l 26 0 l 504 1031 m 661 403 l 619 825 l 444 403 l 661 403 m 697 1296 l 900 1296 l 726 1099 l 574 1099 l 697 1296 z "},"Ă":{"ha":976,"x_min":26,"x_max":954,"o":"m 504 1031 l 804 1031 l 954 0 l 706 0 l 683 188 l 354 188 l 272 0 l 26 0 l 504 1031 m 661 403 l 619 825 l 444 403 l 661 403 m 651 1086 q 526 1126 569 1086 q 483 1243 483 1165 q 489 1300 483 1258 l 599 1300 q 596 1271 596 1278 q 616 1213 596 1231 q 668 1194 636 1194 q 771 1300 754 1194 l 885 1300 q 651 1086 850 1086 z "},"Ắ":{"ha":976,"x_min":26,"x_max":954,"o":"m 504 1031 l 804 1031 l 954 0 l 706 0 l 683 188 l 354 188 l 272 0 l 26 0 l 504 1031 m 661 403 l 619 825 l 444 403 l 661 403 m 711 1471 l 914 1471 l 740 1274 l 588 1274 l 711 1471 m 639 1061 q 467 1196 467 1061 q 469 1233 467 1221 l 581 1233 q 579 1218 579 1228 q 600 1172 579 1186 q 654 1157 621 1157 q 753 1233 740 1157 l 865 1233 q 639 1061 839 1061 z "},"Ặ":{"ha":976,"x_min":26,"x_max":954,"o":"m 504 1031 l 804 1031 l 954 0 l 706 0 l 683 188 l 354 188 l 272 0 l 26 0 l 504 1031 m 661 403 l 619 825 l 444 403 l 661 403 m 651 1086 q 526 1126 569 1086 q 483 1243 483 1165 q 489 1300 483 1258 l 599 1300 q 596 1271 596 1278 q 616 1213 596 1231 q 668 1194 636 1194 q 771 1300 754 1194 l 885 1300 q 651 1086 850 1086 m 368 -321 q 349 -314 356 -321 q 342 -296 342 -307 l 342 -290 l 365 -146 q 400 -112 369 -112 l 511 -112 q 538 -139 538 -112 l 538 -146 l 514 -290 q 479 -321 510 -321 l 368 -321 z "},"Ằ":{"ha":976,"x_min":26,"x_max":954,"o":"m 504 1031 l 804 1031 l 954 0 l 706 0 l 683 188 l 354 188 l 272 0 l 26 0 l 504 1031 m 661 403 l 619 825 l 444 403 l 661 403 m 479 1471 l 671 1471 l 743 1274 l 601 1274 l 479 1471 m 639 1061 q 467 1196 467 1061 q 469 1233 467 1221 l 581 1233 q 579 1218 579 1228 q 600 1172 579 1186 q 654 1157 621 1157 q 753 1233 740 1157 l 865 1233 q 639 1061 839 1061 z "},"Ẳ":{"ha":976,"x_min":26,"x_max":954,"o":"m 504 1031 l 804 1031 l 954 0 l 706 0 l 683 188 l 354 188 l 272 0 l 26 0 l 504 1031 m 661 403 l 619 825 l 444 403 l 661 403 m 640 1319 q 696 1372 696 1335 q 661 1396 696 1396 q 617 1388 647 1396 l 631 1481 q 710 1492 667 1492 q 824 1393 824 1492 q 625 1215 824 1269 l 640 1319 m 639 1061 q 467 1196 467 1061 q 469 1233 467 1221 l 581 1233 q 579 1218 579 1228 q 600 1172 579 1186 q 654 1157 621 1157 q 753 1233 740 1157 l 865 1233 q 639 1061 839 1061 z "},"Ẵ":{"ha":976,"x_min":26,"x_max":954,"o":"m 504 1031 l 804 1031 l 954 0 l 706 0 l 683 188 l 354 188 l 272 0 l 26 0 l 504 1031 m 661 403 l 619 825 l 444 403 l 661 403 m 444 1286 q 508 1403 467 1372 q 617 1433 550 1433 q 663 1428 639 1433 q 707 1415 686 1422 q 730 1408 711 1414 q 764 1401 749 1401 q 817 1443 810 1401 l 935 1443 q 875 1322 914 1354 q 767 1289 836 1289 q 719 1295 744 1289 q 671 1308 693 1301 q 618 1321 633 1321 q 582 1310 596 1321 q 564 1286 568 1300 l 444 1286 m 644 1061 q 515 1094 560 1061 q 471 1194 471 1128 q 475 1233 471 1215 l 585 1233 q 583 1217 583 1228 q 605 1172 583 1186 q 658 1157 626 1157 q 757 1233 746 1157 l 871 1233 q 644 1061 842 1061 z "},"Â":{"ha":976,"x_min":26,"x_max":954,"o":"m 504 1031 l 804 1031 l 954 0 l 706 0 l 683 188 l 354 188 l 272 0 l 26 0 l 504 1031 m 661 403 l 619 825 l 444 403 l 661 403 m 600 1299 l 763 1299 l 863 1099 l 724 1099 l 661 1193 l 563 1099 l 424 1099 l 600 1299 z "},"Ấ":{"ha":976,"x_min":26,"x_max":1064,"o":"m 504 1031 l 804 1031 l 954 0 l 706 0 l 683 188 l 354 188 l 272 0 l 26 0 l 504 1031 m 661 403 l 619 825 l 444 403 l 661 403 m 885 1393 l 1064 1393 l 942 1221 l 814 1221 l 885 1393 m 606 1256 l 769 1256 l 876 1099 l 738 1099 l 667 1150 l 576 1099 l 438 1099 l 606 1256 z "},"Ậ":{"ha":976,"x_min":26,"x_max":954,"o":"m 504 1031 l 804 1031 l 954 0 l 706 0 l 683 188 l 354 188 l 272 0 l 26 0 l 504 1031 m 661 403 l 619 825 l 444 403 l 661 403 m 600 1299 l 763 1299 l 863 1099 l 724 1099 l 661 1193 l 563 1099 l 424 1099 l 600 1299 m 368 -321 q 349 -314 356 -321 q 342 -296 342 -307 l 342 -290 l 365 -146 q 400 -112 369 -112 l 511 -112 q 538 -139 538 -112 l 538 -146 l 514 -290 q 479 -321 510 -321 l 368 -321 z "},"Ầ":{"ha":976,"x_min":26,"x_max":954,"o":"m 504 1031 l 804 1031 l 954 0 l 706 0 l 683 188 l 354 188 l 272 0 l 26 0 l 504 1031 m 661 403 l 619 825 l 444 403 l 661 403 m 350 1393 l 529 1393 l 544 1221 l 415 1221 l 350 1393 m 604 1256 l 768 1256 l 875 1099 l 736 1099 l 665 1150 l 575 1099 l 436 1099 l 604 1256 z "},"Ẩ":{"ha":976,"x_min":26,"x_max":1014,"o":"m 504 1031 l 804 1031 l 954 0 l 706 0 l 683 188 l 354 188 l 272 0 l 26 0 l 504 1031 m 661 403 l 619 825 l 444 403 l 661 403 m 856 1269 q 896 1315 896 1288 q 874 1332 896 1332 q 828 1324 856 1332 l 843 1417 q 919 1428 879 1428 q 1014 1346 1014 1428 q 840 1176 1014 1224 l 856 1269 m 607 1256 l 769 1256 l 876 1099 l 739 1099 l 668 1150 l 576 1099 l 438 1099 l 607 1256 z "},"Ẫ":{"ha":976,"x_min":26,"x_max":954,"o":"m 504 1031 l 804 1031 l 954 0 l 706 0 l 683 188 l 354 188 l 272 0 l 26 0 l 504 1031 m 661 403 l 619 825 l 444 403 l 661 403 m 449 1310 q 512 1428 469 1397 q 619 1458 554 1458 q 665 1453 642 1458 q 710 1440 689 1447 q 733 1433 714 1439 q 767 1426 751 1426 q 821 1467 813 1426 l 939 1467 q 878 1345 917 1378 q 769 1313 839 1313 q 709 1322 739 1313 q 675 1332 679 1331 q 621 1344 635 1344 q 585 1335 599 1344 q 567 1310 571 1325 l 449 1310 m 607 1256 l 769 1256 l 875 1099 l 738 1099 l 667 1150 l 576 1099 l 436 1099 l 607 1256 z "},"Ȁ":{"ha":976,"x_min":26,"x_max":954,"o":"m 504 1031 l 804 1031 l 954 0 l 706 0 l 683 188 l 354 188 l 272 0 l 26 0 l 504 1031 m 661 403 l 619 825 l 444 403 l 661 403 m 343 1296 l 535 1296 l 607 1099 l 465 1099 l 343 1296 m 607 1296 l 799 1296 l 871 1099 l 729 1099 l 607 1296 z "},"Ä":{"ha":976,"x_min":26,"x_max":954,"o":"m 504 1031 l 804 1031 l 954 0 l 706 0 l 683 188 l 354 188 l 272 0 l 26 0 l 504 1031 m 661 403 l 619 825 l 444 403 l 661 403 m 458 1100 q 439 1107 446 1100 q 432 1125 432 1114 l 457 1275 q 490 1308 461 1308 l 603 1308 q 628 1282 628 1308 l 604 1131 q 569 1100 600 1100 l 458 1100 m 733 1100 q 715 1107 722 1100 q 707 1125 707 1114 l 732 1275 q 767 1308 736 1308 l 878 1308 q 904 1282 904 1308 l 881 1131 q 869 1108 879 1115 q 844 1100 858 1100 l 733 1100 z "},"Ạ":{"ha":976,"x_min":26,"x_max":954,"o":"m 504 1031 l 804 1031 l 954 0 l 706 0 l 683 188 l 354 188 l 272 0 l 26 0 l 504 1031 m 661 403 l 619 825 l 444 403 l 661 403 m 368 -321 q 349 -314 356 -321 q 342 -296 342 -307 l 342 -290 l 365 -146 q 400 -112 369 -112 l 511 -112 q 538 -139 538 -112 l 538 -146 l 514 -290 q 479 -321 510 -321 l 368 -321 z "},"À":{"ha":976,"x_min":26,"x_max":954,"o":"m 504 1031 l 804 1031 l 954 0 l 706 0 l 683 188 l 354 188 l 272 0 l 26 0 l 504 1031 m 661 403 l 619 825 l 444 403 l 661 403 m 490 1296 l 682 1296 l 754 1099 l 613 1099 l 490 1296 z "},"Ả":{"ha":976,"x_min":26,"x_max":954,"o":"m 504 1031 l 804 1031 l 954 0 l 706 0 l 683 188 l 354 188 l 272 0 l 26 0 l 504 1031 m 661 403 l 619 825 l 444 403 l 661 403 m 642 1161 q 697 1214 697 1176 q 663 1238 697 1238 q 618 1229 649 1238 l 632 1322 q 711 1333 668 1333 q 825 1235 825 1333 q 626 1057 825 1111 l 642 1161 z "},"Ȃ":{"ha":976,"x_min":26,"x_max":954,"o":"m 504 1031 l 804 1031 l 954 0 l 706 0 l 683 188 l 354 188 l 272 0 l 26 0 l 504 1031 m 661 403 l 619 825 l 444 403 l 661 403 m 464 1089 q 697 1303 499 1303 q 822 1263 779 1303 q 865 1146 865 1224 q 860 1089 865 1131 l 750 1089 q 753 1119 753 1111 q 733 1178 753 1160 q 681 1196 713 1196 q 578 1089 594 1196 l 464 1089 z "},"Ā":{"ha":976,"x_min":26,"x_max":954,"o":"m 504 1031 l 804 1031 l 954 0 l 706 0 l 683 188 l 354 188 l 272 0 l 26 0 l 504 1031 m 661 403 l 619 825 l 444 403 l 661 403 m 479 1250 l 878 1250 l 856 1110 l 457 1110 l 479 1250 z "},"Ą":{"ha":976,"x_min":26,"x_max":954,"o":"m 504 1031 l 804 1031 l 954 0 l 706 0 l 683 188 l 354 188 l 272 0 l 26 0 l 504 1031 m 661 403 l 619 825 l 444 403 l 661 403 m 722 -269 q 623 -240 654 -269 q 592 -165 592 -210 q 622 -70 592 -112 q 704 0 651 -28 l 790 0 q 733 -51 751 -24 q 715 -99 715 -78 q 732 -137 715 -124 q 775 -151 749 -151 l 788 -151 l 771 -264 q 722 -269 758 -269 z "},"Å":{"ha":976,"x_min":26,"x_max":954,"o":"m 504 1031 l 804 1031 l 954 0 l 706 0 l 683 188 l 354 188 l 272 0 l 26 0 l 504 1031 m 661 403 l 619 825 l 444 403 l 661 403 m 658 1060 q 538 1092 578 1060 q 497 1199 497 1124 q 551 1328 497 1276 q 700 1381 606 1381 q 820 1348 781 1381 q 860 1240 860 1315 q 807 1110 860 1161 q 658 1060 754 1060 m 669 1146 q 728 1172 708 1146 q 749 1238 749 1199 q 690 1293 749 1293 q 629 1267 650 1293 q 608 1203 608 1240 q 669 1146 608 1146 z "},"Ǻ":{"ha":976,"x_min":26,"x_max":954,"o":"m 658 1060 q 538 1092 578 1060 q 497 1199 497 1124 q 533 1310 497 1263 q 636 1374 569 1357 l 729 1522 l 932 1522 l 793 1364 q 860 1240 860 1333 q 807 1110 860 1161 q 658 1060 754 1060 m 669 1146 q 728 1172 708 1146 q 749 1238 749 1199 q 690 1293 749 1293 q 629 1267 650 1293 q 608 1203 608 1240 q 669 1146 608 1146 m 954 0 l 706 0 l 683 188 l 354 188 l 272 0 l 26 0 l 504 1031 l 804 1031 l 954 0 m 661 403 l 619 825 l 444 403 l 661 403 z "},"Ã":{"ha":976,"x_min":26,"x_max":954,"o":"m 504 1031 l 804 1031 l 954 0 l 706 0 l 683 188 l 354 188 l 272 0 l 26 0 l 504 1031 m 661 403 l 619 825 l 444 403 l 661 403 m 396 1097 q 575 1279 440 1279 q 634 1272 607 1279 q 694 1250 661 1264 q 733 1237 714 1243 q 768 1231 753 1231 q 825 1288 817 1231 l 944 1288 q 876 1143 918 1188 q 768 1099 835 1099 q 713 1106 739 1099 q 643 1128 688 1113 q 574 1147 594 1147 q 536 1133 551 1147 q 515 1097 521 1118 l 396 1097 z "},"Æ":{"ha":1385,"x_min":13,"x_max":1474,"o":"m 904 -8 q 728 26 783 -8 q 674 146 672 60 l 676 188 l 386 188 l 247 0 l 13 0 l 543 774 q 774 976 644 922 q 1067 1031 904 1031 q 1474 1010 1274 1028 l 1442 808 l 1081 808 q 1019 799 1039 808 q 990 769 999 789 q 974 706 981 749 l 960 622 l 1343 608 l 1314 419 l 926 407 l 910 299 q 908 278 908 290 q 934 228 908 239 q 1003 217 960 217 l 1349 217 l 1317 18 q 940 -7 1183 1 q 914 -8 922 -7 q 904 -8 906 -8 m 710 390 l 767 756 l 525 390 l 710 390 z "},"Ǽ":{"ha":1385,"x_min":13,"x_max":1474,"o":"m 904 -8 q 728 26 783 -8 q 674 146 672 60 l 676 188 l 386 188 l 247 0 l 13 0 l 543 774 q 774 976 644 922 q 1067 1031 904 1031 q 1474 1010 1274 1028 l 1442 808 l 1081 808 q 1019 799 1039 808 q 990 769 999 789 q 974 706 981 749 l 960 622 l 1343 608 l 1314 419 l 926 407 l 910 299 q 908 278 908 290 q 934 228 908 239 q 1003 217 960 217 l 1349 217 l 1317 18 q 940 -7 1183 1 q 914 -8 922 -7 q 904 -8 906 -8 m 710 390 l 767 756 l 525 390 l 710 390 m 967 1296 l 1169 1296 l 996 1099 l 843 1099 l 967 1296 z "},"B":{"ha":893,"x_min":83,"x_max":929,"o":"m 244 1031 l 657 1031 q 869 975 808 1031 q 929 815 929 919 q 924 742 929 776 q 861 609 911 665 q 735 536 811 553 q 848 467 811 515 q 885 332 885 419 q 876 244 885 290 q 761 56 856 113 q 496 0 667 0 l 83 0 l 244 1031 m 585 617 q 685 699 667 617 q 692 749 692 733 q 671 800 692 785 q 606 815 650 815 l 451 815 l 419 617 l 585 617 m 526 215 q 619 240 590 215 q 657 324 649 264 q 660 357 660 336 q 635 416 660 397 q 557 435 611 435 l 390 435 l 357 215 l 526 215 z "},"Ḃ":{"ha":893,"x_min":83,"x_max":929,"o":"m 244 1031 l 657 1031 q 869 975 808 1031 q 929 815 929 919 q 924 742 929 776 q 861 609 911 665 q 735 536 811 553 q 848 467 811 515 q 885 332 885 419 q 876 244 885 290 q 761 56 856 113 q 496 0 667 0 l 83 0 l 244 1031 m 585 617 q 685 699 667 617 q 692 749 692 733 q 671 800 692 785 q 606 815 650 815 l 451 815 l 419 617 l 585 617 m 526 215 q 619 240 590 215 q 657 324 649 264 q 660 357 660 336 q 635 416 660 397 q 557 435 611 435 l 390 435 l 357 215 l 526 215 m 506 1110 q 486 1117 493 1110 q 479 1135 479 1124 l 479 1140 l 503 1285 q 538 1318 507 1318 l 649 1318 q 675 1292 675 1318 l 675 1285 l 651 1140 q 617 1110 647 1110 l 506 1110 z "},"C":{"ha":822,"x_min":125,"x_max":922,"o":"m 475 -8 q 213 85 300 -8 q 125 350 125 179 q 142 550 125 446 q 283 919 181 800 q 583 1039 386 1039 q 922 975 779 1039 l 890 785 q 760 813 831 803 q 626 824 690 824 q 510 801 554 824 q 433 712 465 779 q 379 508 401 644 q 363 347 363 399 q 402 240 363 272 q 539 207 442 207 q 673 210 619 207 q 801 222 726 214 l 772 35 q 475 -8 660 -8 z "},"Ć":{"ha":822,"x_min":125,"x_max":922,"o":"m 475 -8 q 213 85 300 -8 q 125 350 125 179 q 142 550 125 446 q 283 919 181 800 q 583 1039 386 1039 q 922 975 779 1039 l 890 785 q 760 813 831 803 q 626 824 690 824 q 510 801 554 824 q 433 712 465 779 q 379 508 401 644 q 363 347 363 399 q 402 240 363 272 q 539 207 442 207 q 673 210 619 207 q 801 222 726 214 l 772 35 q 475 -8 660 -8 m 668 1296 l 871 1296 l 697 1099 l 544 1099 l 668 1296 z "},"Č":{"ha":822,"x_min":125,"x_max":922,"o":"m 475 -8 q 213 85 300 -8 q 125 350 125 179 q 142 550 125 446 q 283 919 181 800 q 583 1039 386 1039 q 922 975 779 1039 l 890 785 q 760 813 831 803 q 626 824 690 824 q 510 801 554 824 q 433 712 465 779 q 379 508 401 644 q 363 347 363 399 q 402 240 363 272 q 539 207 442 207 q 673 210 619 207 q 801 222 726 214 l 772 35 q 475 -8 660 -8 m 463 1299 l 600 1299 l 664 1204 l 761 1299 l 901 1299 l 725 1099 l 563 1099 l 463 1299 z "},"Ç":{"ha":822,"x_min":125,"x_max":922,"o":"m 626 824 q 510 801 554 824 q 433 712 465 779 q 379 508 401 644 q 363 347 363 399 q 402 240 363 272 q 539 207 442 207 q 673 210 619 207 q 801 222 726 214 l 772 35 q 494 -8 667 -6 l 447 -69 q 502 -97 481 -75 q 524 -157 524 -118 q 480 -245 524 -210 q 351 -281 436 -281 l 275 -281 l 290 -182 l 314 -178 q 357 -159 343 -174 q 371 -128 371 -144 q 325 -89 371 -99 l 393 -3 q 192 110 260 18 q 125 350 125 201 q 142 550 125 446 q 283 919 181 800 q 583 1039 386 1039 q 922 975 779 1039 l 890 785 q 760 813 831 803 q 626 824 690 824 z "},"Ḉ":{"ha":822,"x_min":125,"x_max":922,"o":"m 697 1099 l 544 1099 l 668 1296 l 871 1296 l 697 1099 m 626 824 q 510 801 554 824 q 433 712 465 779 q 379 508 401 644 q 363 347 363 399 q 402 240 363 272 q 539 207 442 207 q 673 210 619 207 q 801 222 726 214 l 772 35 q 494 -8 667 -6 l 447 -69 q 502 -97 481 -75 q 524 -157 524 -118 q 480 -245 524 -210 q 351 -281 436 -281 l 275 -281 l 290 -182 l 314 -178 q 357 -159 343 -174 q 371 -128 371 -144 q 325 -89 371 -99 l 393 -3 q 192 110 260 18 q 125 350 125 201 q 142 550 125 446 q 283 919 181 800 q 583 1039 386 1039 q 922 975 779 1039 l 890 785 q 760 813 831 803 q 626 824 690 824 z "},"Ĉ":{"ha":822,"x_min":125,"x_max":922,"o":"m 475 -8 q 213 85 300 -8 q 125 350 125 179 q 142 550 125 446 q 283 919 181 800 q 583 1039 386 1039 q 922 975 779 1039 l 890 785 q 760 813 831 803 q 626 824 690 824 q 510 801 554 824 q 433 712 465 779 q 379 508 401 644 q 363 347 363 399 q 402 240 363 272 q 539 207 442 207 q 673 210 619 207 q 801 222 726 214 l 772 35 q 475 -8 660 -8 m 571 1299 l 733 1299 l 833 1099 l 694 1099 l 632 1193 l 533 1099 l 394 1099 l 571 1299 z "},"Ċ":{"ha":822,"x_min":125,"x_max":922,"o":"m 475 -8 q 213 85 300 -8 q 125 350 125 179 q 142 550 125 446 q 283 919 181 800 q 583 1039 386 1039 q 922 975 779 1039 l 890 785 q 760 813 831 803 q 626 824 690 824 q 510 801 554 824 q 433 712 465 779 q 379 508 401 644 q 363 347 363 399 q 402 240 363 272 q 539 207 442 207 q 673 210 619 207 q 801 222 726 214 l 772 35 q 475 -8 660 -8 m 569 1110 q 550 1117 557 1110 q 543 1135 543 1124 l 543 1140 l 567 1285 q 601 1318 571 1318 l 713 1318 q 739 1292 739 1318 l 739 1285 l 715 1140 q 681 1110 711 1110 l 569 1110 z "},"D":{"ha":961,"x_min":81,"x_max":997,"o":"m 244 1031 l 642 1031 q 919 938 840 1031 q 997 669 997 846 q 982 479 997 571 q 890 201 954 307 q 724 48 826 96 q 472 0 622 0 l 81 0 l 244 1031 m 497 215 q 660 289 603 215 q 742 519 717 363 q 757 660 757 618 q 717 781 757 746 q 582 815 676 815 l 450 815 l 356 215 l 497 215 z "},"Ð":{"ha":961,"x_min":76,"x_max":997,"o":"m 642 1031 q 919 938 840 1031 q 997 669 997 846 q 982 479 997 571 q 890 201 954 307 q 724 48 826 96 q 472 0 622 0 l 81 0 l 150 440 l 76 440 l 101 596 l 175 596 l 244 1031 l 642 1031 m 742 519 q 757 660 757 618 q 717 781 757 746 q 582 815 676 815 l 450 815 l 415 596 l 551 596 l 526 440 l 392 440 l 356 215 l 497 215 q 660 289 603 215 q 742 519 717 363 z "},"Ď":{"ha":961,"x_min":81,"x_max":997,"o":"m 244 1031 l 642 1031 q 919 938 840 1031 q 997 669 997 846 q 982 479 997 571 q 890 201 954 307 q 724 48 826 96 q 472 0 622 0 l 81 0 l 244 1031 m 497 215 q 660 289 603 215 q 742 519 717 363 q 757 660 757 618 q 717 781 757 746 q 582 815 676 815 l 450 815 l 356 215 l 497 215 m 449 1299 l 586 1299 l 650 1204 l 747 1299 l 888 1299 l 711 1099 l 549 1099 l 449 1299 z "},"Đ":{"ha":961,"x_min":76,"x_max":997,"o":"m 642 1031 q 919 938 840 1031 q 997 669 997 846 q 982 479 997 571 q 890 201 954 307 q 724 48 826 96 q 472 0 622 0 l 81 0 l 150 440 l 76 440 l 101 596 l 175 596 l 244 1031 l 642 1031 m 742 519 q 757 660 757 618 q 717 781 757 746 q 582 815 676 815 l 450 815 l 415 596 l 551 596 l 526 440 l 392 440 l 356 215 l 497 215 q 660 289 603 215 q 742 519 717 363 z "},"Ḋ":{"ha":961,"x_min":81,"x_max":997,"o":"m 244 1031 l 642 1031 q 919 938 840 1031 q 997 669 997 846 q 982 479 997 571 q 890 201 954 307 q 724 48 826 96 q 472 0 622 0 l 81 0 l 244 1031 m 497 215 q 660 289 603 215 q 742 519 717 363 q 757 660 757 618 q 717 781 757 746 q 582 815 676 815 l 450 815 l 356 215 l 497 215 m 556 1110 q 536 1117 543 1110 q 529 1135 529 1124 l 529 1140 l 553 1285 q 588 1318 557 1318 l 699 1318 q 725 1292 725 1318 l 725 1285 l 701 1140 q 667 1110 697 1110 l 556 1110 z "},"Ḍ":{"ha":961,"x_min":81,"x_max":997,"o":"m 244 1031 l 642 1031 q 919 938 840 1031 q 997 669 997 846 q 982 479 997 571 q 890 201 954 307 q 724 48 826 96 q 472 0 622 0 l 81 0 l 244 1031 m 497 215 q 660 289 603 215 q 742 519 717 363 q 757 660 757 618 q 717 781 757 746 q 582 815 676 815 l 450 815 l 356 215 l 497 215 m 325 -321 q 306 -314 313 -321 q 299 -296 299 -307 l 299 -290 l 322 -146 q 357 -112 326 -112 l 468 -112 q 494 -139 494 -112 l 494 -146 l 471 -290 q 436 -321 467 -321 l 325 -321 z "},"Ḏ":{"ha":961,"x_min":81,"x_max":997,"o":"m 244 1031 l 642 1031 q 919 938 840 1031 q 997 669 997 846 q 982 479 997 571 q 890 201 954 307 q 724 48 826 96 q 472 0 622 0 l 81 0 l 244 1031 m 497 215 q 660 289 603 215 q 742 519 717 363 q 757 660 757 618 q 717 781 757 746 q 582 815 676 815 l 450 815 l 356 215 l 497 215 m 196 -167 l 594 -167 l 572 -307 l 174 -307 l 196 -167 z "},"E":{"ha":832,"x_min":113,"x_max":914,"o":"m 343 -8 q 182 33 251 -8 q 113 181 113 74 q 117 232 113 206 l 204 781 q 493 1031 243 1031 q 914 1011 683 1029 l 882 808 l 529 808 q 463 788 485 808 q 435 721 442 767 l 419 624 l 781 611 l 751 421 l 385 408 l 368 299 q 367 278 367 292 q 440 217 367 217 l 789 217 l 757 15 q 343 -8 513 -8 z "},"É":{"ha":832,"x_min":113,"x_max":914,"o":"m 343 -8 q 182 33 251 -8 q 113 181 113 74 q 117 232 113 206 l 204 781 q 493 1031 243 1031 q 914 1011 683 1029 l 882 808 l 529 808 q 463 788 485 808 q 435 721 442 767 l 419 624 l 781 611 l 751 421 l 385 408 l 368 299 q 367 278 367 292 q 440 217 367 217 l 789 217 l 757 15 q 343 -8 513 -8 m 632 1296 l 835 1296 l 661 1099 l 508 1099 l 632 1296 z "},"Ĕ":{"ha":832,"x_min":113,"x_max":914,"o":"m 343 -8 q 182 33 251 -8 q 113 181 113 74 q 117 232 113 206 l 204 781 q 493 1031 243 1031 q 914 1011 683 1029 l 882 808 l 529 808 q 463 788 485 808 q 435 721 442 767 l 419 624 l 781 611 l 751 421 l 385 408 l 368 299 q 367 278 367 292 q 440 217 367 217 l 789 217 l 757 15 q 343 -8 513 -8 m 586 1086 q 461 1126 504 1086 q 418 1243 418 1165 q 424 1300 418 1258 l 533 1300 q 531 1271 531 1278 q 551 1213 531 1231 q 603 1194 571 1194 q 706 1300 689 1194 l 819 1300 q 586 1086 785 1086 z "},"Ě":{"ha":832,"x_min":113,"x_max":914,"o":"m 343 -8 q 182 33 251 -8 q 113 181 113 74 q 117 232 113 206 l 204 781 q 493 1031 243 1031 q 914 1011 683 1029 l 882 808 l 529 808 q 463 788 485 808 q 435 721 442 767 l 419 624 l 781 611 l 751 421 l 385 408 l 368 299 q 367 278 367 292 q 440 217 367 217 l 789 217 l 757 15 q 343 -8 513 -8 m 426 1299 l 564 1299 l 628 1204 l 725 1299 l 865 1299 l 689 1099 l 526 1099 l 426 1299 z "},"Ḝ":{"ha":832,"x_min":113,"x_max":914,"o":"m 586 1086 q 461 1126 504 1086 q 418 1243 418 1165 q 424 1300 418 1258 l 533 1300 q 531 1271 531 1278 q 551 1213 531 1231 q 603 1194 571 1194 q 706 1300 689 1194 l 819 1300 q 586 1086 785 1086 m 529 808 q 463 788 485 808 q 435 721 442 767 l 419 624 l 781 611 l 751 421 l 385 408 l 368 299 q 367 278 367 292 q 440 217 367 217 l 789 217 l 757 15 q 456 -7 589 -1 l 407 -69 q 462 -97 440 -75 q 483 -157 483 -118 q 440 -245 483 -210 q 311 -281 396 -281 l 235 -281 l 250 -182 l 274 -178 q 317 -159 303 -174 q 331 -128 331 -144 q 285 -89 331 -99 l 347 -8 l 343 -8 q 182 33 251 -8 q 113 181 113 74 q 117 232 113 206 l 204 781 q 493 1031 243 1031 q 914 1011 683 1029 l 882 808 l 529 808 z "},"Ê":{"ha":832,"x_min":113,"x_max":914,"o":"m 343 -8 q 182 33 251 -8 q 113 181 113 74 q 117 232 113 206 l 204 781 q 493 1031 243 1031 q 914 1011 683 1029 l 882 808 l 529 808 q 463 788 485 808 q 435 721 442 767 l 419 624 l 781 611 l 751 421 l 385 408 l 368 299 q 367 278 367 292 q 440 217 367 217 l 789 217 l 757 15 q 343 -8 513 -8 m 535 1299 l 697 1299 l 797 1099 l 658 1099 l 596 1193 l 497 1099 l 358 1099 l 535 1299 z "},"Ế":{"ha":832,"x_min":113,"x_max":997,"o":"m 343 -8 q 182 33 251 -8 q 113 181 113 74 q 117 232 113 206 l 204 781 q 493 1031 243 1031 q 914 1011 683 1029 l 882 808 l 529 808 q 463 788 485 808 q 435 721 442 767 l 419 624 l 781 611 l 751 421 l 385 408 l 368 299 q 367 278 367 292 q 440 217 367 217 l 789 217 l 757 15 q 343 -8 513 -8 m 818 1393 l 997 1393 l 875 1221 l 747 1221 l 818 1393 m 539 1256 l 703 1256 l 810 1099 l 671 1099 l 600 1150 l 510 1099 l 371 1099 l 539 1256 z "},"Ệ":{"ha":832,"x_min":113,"x_max":914,"o":"m 343 -8 q 182 33 251 -8 q 113 181 113 74 q 117 232 113 206 l 204 781 q 493 1031 243 1031 q 914 1011 683 1029 l 882 808 l 529 808 q 463 788 485 808 q 435 721 442 767 l 419 624 l 781 611 l 751 421 l 385 408 l 368 299 q 367 278 367 292 q 440 217 367 217 l 789 217 l 757 15 q 343 -8 513 -8 m 535 1299 l 697 1299 l 797 1099 l 658 1099 l 596 1193 l 497 1099 l 358 1099 l 535 1299 m 303 -321 q 283 -314 290 -321 q 276 -296 276 -307 l 276 -290 l 300 -146 q 335 -112 304 -112 l 446 -112 q 472 -139 472 -112 l 472 -146 l 449 -290 q 414 -321 444 -321 l 303 -321 z "},"Ề":{"ha":832,"x_min":113,"x_max":914,"o":"m 343 -8 q 182 33 251 -8 q 113 181 113 74 q 117 232 113 206 l 204 781 q 493 1031 243 1031 q 914 1011 683 1029 l 882 808 l 529 808 q 463 788 485 808 q 435 721 442 767 l 419 624 l 781 611 l 751 421 l 385 408 l 368 299 q 367 278 367 292 q 440 217 367 217 l 789 217 l 757 15 q 343 -8 513 -8 m 283 1393 l 463 1393 l 478 1221 l 349 1221 l 283 1393 m 538 1256 l 701 1256 l 808 1099 l 669 1099 l 599 1150 l 508 1099 l 369 1099 l 538 1256 z "},"Ể":{"ha":832,"x_min":113,"x_max":947,"o":"m 343 -8 q 182 33 251 -8 q 113 181 113 74 q 117 232 113 206 l 204 781 q 493 1031 243 1031 q 914 1011 683 1029 l 882 808 l 529 808 q 463 788 485 808 q 435 721 442 767 l 419 624 l 781 611 l 751 421 l 385 408 l 368 299 q 367 278 367 292 q 440 217 367 217 l 789 217 l 757 15 q 343 -8 513 -8 m 789 1269 q 829 1315 829 1288 q 807 1332 829 1332 q 761 1324 789 1332 l 776 1417 q 853 1428 813 1428 q 947 1346 947 1428 q 774 1176 947 1224 l 789 1269 m 540 1256 l 703 1256 l 810 1099 l 672 1099 l 601 1150 l 510 1099 l 371 1099 l 540 1256 z "},"Ễ":{"ha":832,"x_min":113,"x_max":914,"o":"m 343 -8 q 182 33 251 -8 q 113 181 113 74 q 117 232 113 206 l 204 781 q 493 1031 243 1031 q 914 1011 683 1029 l 882 808 l 529 808 q 463 788 485 808 q 435 721 442 767 l 419 624 l 781 611 l 751 421 l 385 408 l 368 299 q 367 278 367 292 q 440 217 367 217 l 789 217 l 757 15 q 343 -8 513 -8 m 383 1310 q 447 1428 404 1397 q 554 1458 489 1458 q 600 1453 576 1458 q 644 1440 624 1447 q 667 1433 649 1439 q 701 1426 686 1426 q 756 1467 747 1426 l 874 1467 q 813 1345 851 1378 q 704 1313 774 1313 q 644 1322 674 1313 q 610 1332 614 1331 q 556 1344 569 1344 q 519 1335 533 1344 q 501 1310 506 1325 l 383 1310 m 542 1256 l 704 1256 l 810 1099 l 672 1099 l 601 1150 l 511 1099 l 371 1099 l 542 1256 z "},"Ȅ":{"ha":832,"x_min":113,"x_max":914,"o":"m 343 -8 q 182 33 251 -8 q 113 181 113 74 q 117 232 113 206 l 204 781 q 493 1031 243 1031 q 914 1011 683 1029 l 882 808 l 529 808 q 463 788 485 808 q 435 721 442 767 l 419 624 l 781 611 l 751 421 l 385 408 l 368 299 q 367 278 367 292 q 440 217 367 217 l 789 217 l 757 15 q 343 -8 513 -8 m 278 1296 l 469 1296 l 542 1099 l 400 1099 l 278 1296 m 542 1296 l 733 1296 l 806 1099 l 664 1099 l 542 1296 z "},"Ë":{"ha":832,"x_min":113,"x_max":914,"o":"m 343 -8 q 182 33 251 -8 q 113 181 113 74 q 117 232 113 206 l 204 781 q 493 1031 243 1031 q 914 1011 683 1029 l 882 808 l 529 808 q 463 788 485 808 q 435 721 442 767 l 419 624 l 781 611 l 751 421 l 385 408 l 368 299 q 367 278 367 292 q 440 217 367 217 l 789 217 l 757 15 q 343 -8 513 -8 m 393 1100 q 374 1107 381 1100 q 367 1125 367 1114 l 392 1275 q 425 1308 396 1308 l 538 1308 q 563 1282 563 1308 l 539 1131 q 504 1100 535 1100 l 393 1100 m 668 1100 q 649 1107 657 1100 q 642 1125 642 1114 l 667 1275 q 701 1308 671 1308 l 813 1308 q 839 1282 839 1308 l 815 1131 q 803 1108 814 1115 q 779 1100 793 1100 l 668 1100 z "},"Ė":{"ha":832,"x_min":113,"x_max":914,"o":"m 343 -8 q 182 33 251 -8 q 113 181 113 74 q 117 232 113 206 l 204 781 q 493 1031 243 1031 q 914 1011 683 1029 l 882 808 l 529 808 q 463 788 485 808 q 435 721 442 767 l 419 624 l 781 611 l 751 421 l 385 408 l 368 299 q 367 278 367 292 q 440 217 367 217 l 789 217 l 757 15 q 343 -8 513 -8 m 533 1110 q 514 1117 521 1110 q 507 1135 507 1124 l 507 1140 l 531 1285 q 565 1318 535 1318 l 676 1318 q 703 1292 703 1318 l 703 1285 l 679 1140 q 644 1110 675 1110 l 533 1110 z "},"Ẹ":{"ha":832,"x_min":113,"x_max":914,"o":"m 343 -8 q 182 33 251 -8 q 113 181 113 74 q 117 232 113 206 l 204 781 q 493 1031 243 1031 q 914 1011 683 1029 l 882 808 l 529 808 q 463 788 485 808 q 435 721 442 767 l 419 624 l 781 611 l 751 421 l 385 408 l 368 299 q 367 278 367 292 q 440 217 367 217 l 789 217 l 757 15 q 343 -8 513 -8 m 303 -321 q 283 -314 290 -321 q 276 -296 276 -307 l 276 -290 l 300 -146 q 335 -112 304 -112 l 446 -112 q 472 -139 472 -112 l 472 -146 l 449 -290 q 414 -321 444 -321 l 303 -321 z "},"È":{"ha":832,"x_min":113,"x_max":914,"o":"m 343 -8 q 182 33 251 -8 q 113 181 113 74 q 117 232 113 206 l 204 781 q 493 1031 243 1031 q 914 1011 683 1029 l 882 808 l 529 808 q 463 788 485 808 q 435 721 442 767 l 419 624 l 781 611 l 751 421 l 385 408 l 368 299 q 367 278 367 292 q 440 217 367 217 l 789 217 l 757 15 q 343 -8 513 -8 m 425 1296 l 617 1296 l 689 1099 l 547 1099 l 425 1296 z "},"Ẻ":{"ha":832,"x_min":113,"x_max":914,"o":"m 343 -8 q 182 33 251 -8 q 113 181 113 74 q 117 232 113 206 l 204 781 q 493 1031 243 1031 q 914 1011 683 1029 l 882 808 l 529 808 q 463 788 485 808 q 435 721 442 767 l 419 624 l 781 611 l 751 421 l 385 408 l 368 299 q 367 278 367 292 q 440 217 367 217 l 789 217 l 757 15 q 343 -8 513 -8 m 576 1161 q 632 1214 632 1176 q 597 1238 632 1238 q 553 1229 583 1238 l 567 1322 q 646 1333 603 1333 q 760 1235 760 1333 q 561 1057 760 1111 l 576 1161 z "},"Ȇ":{"ha":832,"x_min":113,"x_max":914,"o":"m 343 -8 q 182 33 251 -8 q 113 181 113 74 q 117 232 113 206 l 204 781 q 493 1031 243 1031 q 914 1011 683 1029 l 882 808 l 529 808 q 463 788 485 808 q 435 721 442 767 l 419 624 l 781 611 l 751 421 l 385 408 l 368 299 q 367 278 367 292 q 440 217 367 217 l 789 217 l 757 15 q 343 -8 513 -8 m 399 1089 q 632 1303 433 1303 q 757 1263 714 1303 q 800 1146 800 1224 q 794 1089 800 1131 l 685 1089 q 688 1119 688 1111 q 667 1178 688 1160 q 615 1196 647 1196 q 513 1089 529 1196 l 399 1089 z "},"Ē":{"ha":832,"x_min":113,"x_max":914,"o":"m 343 -8 q 182 33 251 -8 q 113 181 113 74 q 117 232 113 206 l 204 781 q 493 1031 243 1031 q 914 1011 683 1029 l 882 808 l 529 808 q 463 788 485 808 q 435 721 442 767 l 419 624 l 781 611 l 751 421 l 385 408 l 368 299 q 367 278 367 292 q 440 217 367 217 l 789 217 l 757 15 q 343 -8 513 -8 m 414 1250 l 813 1250 l 790 1110 l 392 1110 l 414 1250 z "},"Ḗ":{"ha":832,"x_min":113,"x_max":914,"o":"m 343 -8 q 182 33 251 -8 q 113 181 113 74 q 117 232 113 206 l 204 781 q 493 1031 243 1031 q 914 1011 683 1029 l 882 808 l 529 808 q 463 788 485 808 q 435 721 442 767 l 419 624 l 781 611 l 751 421 l 385 408 l 368 299 q 367 278 367 292 q 440 217 367 217 l 789 217 l 757 15 q 343 -8 513 -8 m 414 1250 l 813 1250 l 790 1110 l 392 1110 l 414 1250 m 647 1511 l 850 1511 l 676 1314 l 524 1314 l 647 1511 z "},"Ḕ":{"ha":832,"x_min":113,"x_max":914,"o":"m 343 -8 q 182 33 251 -8 q 113 181 113 74 q 117 232 113 206 l 204 781 q 493 1031 243 1031 q 914 1011 683 1029 l 882 808 l 529 808 q 463 788 485 808 q 435 721 442 767 l 419 624 l 781 611 l 751 421 l 385 408 l 368 299 q 367 278 367 292 q 440 217 367 217 l 789 217 l 757 15 q 343 -8 513 -8 m 414 1250 l 813 1250 l 790 1110 l 392 1110 l 414 1250 m 413 1511 l 604 1511 l 676 1314 l 535 1314 l 413 1511 z "},"Ę":{"ha":832,"x_min":113,"x_max":914,"o":"m 529 808 q 463 788 485 808 q 435 721 442 767 l 419 624 l 781 611 l 751 421 l 385 408 l 368 299 q 367 278 367 292 q 440 217 367 217 l 789 217 l 757 15 q 700 -35 718 -8 q 682 -83 682 -62 q 699 -122 682 -108 q 742 -136 715 -136 l 754 -136 l 738 -249 q 689 -254 725 -254 q 590 -224 621 -254 q 558 -150 558 -194 q 584 -61 558 -101 q 654 6 610 -21 q 343 -8 492 -8 q 182 33 251 -8 q 113 181 113 74 q 117 232 113 206 l 204 781 q 493 1031 243 1031 q 914 1011 683 1029 l 882 808 l 529 808 z "},"Ẽ":{"ha":832,"x_min":113,"x_max":914,"o":"m 343 -8 q 182 33 251 -8 q 113 181 113 74 q 117 232 113 206 l 204 781 q 493 1031 243 1031 q 914 1011 683 1029 l 882 808 l 529 808 q 463 788 485 808 q 435 721 442 767 l 419 624 l 781 611 l 751 421 l 385 408 l 368 299 q 367 278 367 292 q 440 217 367 217 l 789 217 l 757 15 q 343 -8 513 -8 m 331 1097 q 510 1279 375 1279 q 569 1272 542 1279 q 629 1250 596 1264 q 668 1237 649 1243 q 703 1231 688 1231 q 760 1288 751 1231 l 879 1288 q 811 1143 853 1188 q 703 1099 769 1099 q 648 1106 674 1099 q 578 1128 622 1113 q 508 1147 529 1147 q 471 1133 486 1147 q 450 1097 456 1118 l 331 1097 z "},"F":{"ha":790,"x_min":81,"x_max":913,"o":"m 206 788 q 305 976 226 922 q 490 1031 383 1031 q 913 1010 710 1029 l 881 807 l 529 807 q 463 786 483 807 q 435 722 442 765 l 414 586 l 778 575 l 746 385 l 381 372 l 321 0 l 81 0 l 206 788 z "},"Ḟ":{"ha":790,"x_min":81,"x_max":913,"o":"m 206 788 q 305 976 226 922 q 490 1031 383 1031 q 913 1010 710 1029 l 881 807 l 529 807 q 463 786 483 807 q 435 722 442 765 l 414 586 l 778 575 l 746 385 l 381 372 l 321 0 l 81 0 l 206 788 m 543 1110 q 524 1117 531 1110 q 517 1135 517 1124 l 517 1140 l 540 1285 q 575 1318 544 1318 l 686 1318 q 713 1292 713 1318 l 713 1285 l 689 1140 q 654 1110 685 1110 l 543 1110 z "},"G":{"ha":919,"x_min":119,"x_max":960,"o":"m 388 -8 q 181 69 243 -8 q 119 318 119 147 q 144 564 119 406 q 294 922 182 804 q 599 1039 407 1039 q 803 1026 721 1039 q 960 990 886 1014 l 931 803 q 629 825 807 825 q 497 796 544 825 q 424 701 450 767 q 379 511 399 635 q 363 340 363 403 q 389 245 363 278 q 472 213 415 213 q 574 219 518 213 q 658 235 631 226 l 685 400 l 522 400 l 553 589 l 582 592 q 783 603 711 603 q 946 600 882 603 l 851 0 l 671 0 l 650 69 q 524 17 606 43 q 388 -8 443 -8 z "},"Ğ":{"ha":919,"x_min":119,"x_max":960,"o":"m 388 -8 q 181 69 243 -8 q 119 318 119 147 q 144 564 119 406 q 294 922 182 804 q 599 1039 407 1039 q 803 1026 721 1039 q 960 990 886 1014 l 931 803 q 629 825 807 825 q 497 796 544 825 q 424 701 450 767 q 379 511 399 635 q 363 340 363 403 q 389 245 363 278 q 472 213 415 213 q 574 219 518 213 q 658 235 631 226 l 685 400 l 522 400 l 553 589 l 582 592 q 783 603 711 603 q 946 600 882 603 l 851 0 l 671 0 l 650 69 q 524 17 606 43 q 388 -8 443 -8 m 614 1086 q 489 1126 532 1086 q 446 1243 446 1165 q 451 1300 446 1258 l 561 1300 q 558 1271 558 1278 q 578 1213 558 1231 q 631 1194 599 1194 q 733 1300 717 1194 l 847 1300 q 614 1086 813 1086 z "},"Ǧ":{"ha":919,"x_min":119,"x_max":960,"o":"m 388 -8 q 181 69 243 -8 q 119 318 119 147 q 144 564 119 406 q 294 922 182 804 q 599 1039 407 1039 q 803 1026 721 1039 q 960 990 886 1014 l 931 803 q 629 825 807 825 q 497 796 544 825 q 424 701 450 767 q 379 511 399 635 q 363 340 363 403 q 389 245 363 278 q 472 213 415 213 q 574 219 518 213 q 658 235 631 226 l 685 400 l 522 400 l 553 589 l 582 592 q 783 603 711 603 q 946 600 882 603 l 851 0 l 671 0 l 650 69 q 524 17 606 43 q 388 -8 443 -8 m 454 1299 l 592 1299 l 656 1204 l 753 1299 l 893 1299 l 717 1099 l 554 1099 l 454 1299 z "},"Ĝ":{"ha":919,"x_min":119,"x_max":960,"o":"m 388 -8 q 181 69 243 -8 q 119 318 119 147 q 144 564 119 406 q 294 922 182 804 q 599 1039 407 1039 q 803 1026 721 1039 q 960 990 886 1014 l 931 803 q 629 825 807 825 q 497 796 544 825 q 424 701 450 767 q 379 511 399 635 q 363 340 363 403 q 389 245 363 278 q 472 213 415 213 q 574 219 518 213 q 658 235 631 226 l 685 400 l 522 400 l 553 589 l 582 592 q 783 603 711 603 q 946 600 882 603 l 851 0 l 671 0 l 650 69 q 524 17 606 43 q 388 -8 443 -8 m 563 1299 l 725 1299 l 825 1099 l 686 1099 l 624 1193 l 525 1099 l 386 1099 l 563 1299 z "},"Ģ":{"ha":919,"x_min":119,"x_max":960,"o":"m 388 -8 q 181 69 243 -8 q 119 318 119 147 q 144 564 119 406 q 294 922 182 804 q 599 1039 407 1039 q 803 1026 721 1039 q 960 990 886 1014 l 931 803 q 629 825 807 825 q 497 796 544 825 q 424 701 450 767 q 379 511 399 635 q 363 340 363 403 q 389 245 363 278 q 472 213 415 213 q 574 219 518 213 q 658 235 631 226 l 685 400 l 522 400 l 553 589 l 582 592 q 783 603 711 603 q 946 600 882 603 l 851 0 l 671 0 l 650 69 q 524 17 606 43 q 388 -8 443 -8 m 261 -208 l 300 -197 q 354 -169 339 -186 q 376 -106 369 -153 l 521 -106 q 460 -261 504 -215 q 324 -307 417 -307 l 246 -307 l 261 -208 z "},"Ġ":{"ha":919,"x_min":119,"x_max":960,"o":"m 388 -8 q 181 69 243 -8 q 119 318 119 147 q 144 564 119 406 q 294 922 182 804 q 599 1039 407 1039 q 803 1026 721 1039 q 960 990 886 1014 l 931 803 q 629 825 807 825 q 497 796 544 825 q 424 701 450 767 q 379 511 399 635 q 363 340 363 403 q 389 245 363 278 q 472 213 415 213 q 574 219 518 213 q 658 235 631 226 l 685 400 l 522 400 l 553 589 l 582 592 q 783 603 711 603 q 946 600 882 603 l 851 0 l 671 0 l 650 69 q 524 17 606 43 q 388 -8 443 -8 m 561 1110 q 542 1117 549 1110 q 535 1135 535 1124 l 535 1140 l 558 1285 q 593 1318 563 1318 l 704 1318 q 731 1292 731 1318 l 731 1285 l 707 1140 q 672 1110 703 1110 l 561 1110 z "},"Ḡ":{"ha":919,"x_min":119,"x_max":960,"o":"m 388 -8 q 181 69 243 -8 q 119 318 119 147 q 144 564 119 406 q 294 922 182 804 q 599 1039 407 1039 q 803 1026 721 1039 q 960 990 886 1014 l 931 803 q 629 825 807 825 q 497 796 544 825 q 424 701 450 767 q 379 511 399 635 q 363 340 363 403 q 389 245 363 278 q 472 213 415 213 q 574 219 518 213 q 658 235 631 226 l 685 400 l 522 400 l 553 589 l 582 592 q 783 603 711 603 q 946 600 882 603 l 851 0 l 671 0 l 650 69 q 524 17 606 43 q 388 -8 443 -8 m 442 1250 l 840 1250 l 818 1110 l 419 1110 l 442 1250 z "},"H":{"ha":972,"x_min":81,"x_max":1068,"o":"m 244 1031 l 485 1031 l 418 619 l 761 619 l 828 1031 l 1068 1031 l 904 0 l 664 0 l 728 404 l 385 404 l 321 0 l 81 0 l 244 1031 z "},"Ħ":{"ha":972,"x_min":81,"x_max":1104,"o":"m 1085 715 l 1018 715 l 904 0 l 664 0 l 728 404 l 385 404 l 321 0 l 81 0 l 194 715 l 126 715 l 144 833 l 213 833 l 244 1031 l 485 1031 l 453 833 l 796 833 l 828 1031 l 1068 1031 l 1036 833 l 1104 833 l 1085 715 m 776 715 l 433 715 l 418 619 l 761 619 l 776 715 z "},"Ḫ":{"ha":972,"x_min":81,"x_max":1068,"o":"m 244 1031 l 485 1031 l 418 619 l 761 619 l 828 1031 l 1068 1031 l 904 0 l 664 0 l 728 404 l 385 404 l 321 0 l 81 0 l 244 1031 m 432 -317 q 307 -277 350 -317 q 264 -160 264 -237 q 269 -103 264 -144 l 379 -103 q 376 -133 376 -125 q 397 -192 376 -174 q 449 -210 417 -210 q 551 -103 536 -210 l 665 -103 q 589 -263 649 -210 q 432 -317 529 -317 z "},"Ĥ":{"ha":972,"x_min":81,"x_max":1068,"o":"m 244 1031 l 485 1031 l 418 619 l 761 619 l 828 1031 l 1068 1031 l 904 0 l 664 0 l 728 404 l 385 404 l 321 0 l 81 0 l 244 1031 m 601 1299 l 764 1299 l 864 1099 l 725 1099 l 663 1193 l 564 1099 l 425 1099 l 601 1299 z "},"Ḥ":{"ha":972,"x_min":81,"x_max":1068,"o":"m 244 1031 l 485 1031 l 418 619 l 761 619 l 828 1031 l 1068 1031 l 904 0 l 664 0 l 728 404 l 385 404 l 321 0 l 81 0 l 244 1031 m 369 -321 q 350 -314 357 -321 q 343 -296 343 -307 l 343 -290 l 367 -146 q 401 -112 371 -112 l 513 -112 q 539 -139 539 -112 l 539 -146 l 515 -290 q 481 -321 511 -321 l 369 -321 z "},"I":{"ha":401,"x_min":81,"x_max":485,"o":"m 244 1031 l 485 1031 l 321 0 l 81 0 l 244 1031 z "},"Í":{"ha":401,"x_min":81,"x_max":617,"o":"m 244 1031 l 485 1031 l 321 0 l 81 0 l 244 1031 m 414 1296 l 617 1296 l 443 1099 l 290 1099 l 414 1296 z "},"Ĭ":{"ha":401,"x_min":81,"x_max":601,"o":"m 244 1031 l 485 1031 l 321 0 l 81 0 l 244 1031 m 368 1086 q 243 1126 286 1086 q 200 1243 200 1165 q 206 1300 200 1258 l 315 1300 q 313 1271 313 1278 q 333 1213 313 1231 q 385 1194 353 1194 q 488 1300 471 1194 l 601 1300 q 368 1086 567 1086 z "},"Î":{"ha":401,"x_min":81,"x_max":579,"o":"m 244 1031 l 485 1031 l 321 0 l 81 0 l 244 1031 m 317 1299 l 479 1299 l 579 1099 l 440 1099 l 378 1193 l 279 1099 l 140 1099 l 317 1299 z "},"Ȉ":{"ha":401,"x_min":60,"x_max":588,"o":"m 244 1031 l 485 1031 l 321 0 l 81 0 l 244 1031 m 60 1296 l 251 1296 l 324 1099 l 182 1099 l 60 1296 m 324 1296 l 515 1296 l 588 1099 l 446 1099 l 324 1296 z "},"Ï":{"ha":401,"x_min":81,"x_max":621,"o":"m 244 1031 l 485 1031 l 321 0 l 81 0 l 244 1031 m 175 1100 q 156 1107 163 1100 q 149 1125 149 1114 l 174 1275 q 207 1308 178 1308 l 319 1308 q 344 1282 344 1308 l 321 1131 q 286 1100 317 1100 l 175 1100 m 450 1100 q 431 1107 439 1100 q 424 1125 424 1114 l 449 1275 q 483 1308 453 1308 l 594 1308 q 621 1282 621 1308 l 597 1131 q 585 1108 596 1115 q 561 1100 575 1100 l 450 1100 z "},"Ḯ":{"ha":401,"x_min":81,"x_max":642,"o":"m 244 1031 l 485 1031 l 321 0 l 81 0 l 244 1031 m 175 1100 q 156 1107 163 1100 q 149 1125 149 1114 l 174 1275 q 207 1308 178 1308 l 319 1308 q 344 1282 344 1308 l 321 1131 q 286 1100 317 1100 l 175 1100 m 450 1100 q 431 1107 439 1100 q 424 1125 424 1114 l 449 1275 q 483 1308 453 1308 l 594 1308 q 621 1282 621 1308 l 597 1131 q 585 1108 596 1115 q 561 1100 575 1100 l 450 1100 m 439 1543 l 642 1543 l 468 1346 l 315 1346 l 439 1543 z "},"İ":{"ha":401,"x_min":81,"x_max":485,"o":"m 244 1031 l 485 1031 l 321 0 l 81 0 l 244 1031 m 315 1110 q 296 1117 303 1110 q 289 1135 289 1124 l 289 1140 l 313 1285 q 347 1318 317 1318 l 458 1318 q 485 1292 485 1318 l 485 1285 l 461 1140 q 426 1110 457 1110 l 315 1110 z "},"Ị":{"ha":401,"x_min":58,"x_max":485,"o":"m 244 1031 l 485 1031 l 321 0 l 81 0 l 244 1031 m 85 -321 q 65 -314 72 -321 q 58 -296 58 -307 l 58 -290 l 82 -146 q 117 -112 86 -112 l 228 -112 q 254 -139 254 -112 l 254 -146 l 231 -290 q 196 -321 226 -321 l 85 -321 z "},"Ì":{"ha":401,"x_min":81,"x_max":485,"o":"m 244 1031 l 485 1031 l 321 0 l 81 0 l 244 1031 m 207 1296 l 399 1296 l 471 1099 l 329 1099 l 207 1296 z "},"Ỉ":{"ha":401,"x_min":81,"x_max":542,"o":"m 244 1031 l 485 1031 l 321 0 l 81 0 l 244 1031 m 358 1161 q 414 1214 414 1176 q 379 1238 414 1238 q 335 1229 365 1238 l 349 1322 q 428 1333 385 1333 q 542 1235 542 1333 q 343 1057 542 1111 l 358 1161 z "},"Ȋ":{"ha":401,"x_min":81,"x_max":582,"o":"m 244 1031 l 485 1031 l 321 0 l 81 0 l 244 1031 m 181 1089 q 414 1303 215 1303 q 539 1263 496 1303 q 582 1146 582 1224 q 576 1089 582 1131 l 467 1089 q 469 1119 469 1111 q 449 1178 469 1160 q 397 1196 429 1196 q 294 1089 311 1196 l 181 1089 z "},"Ī":{"ha":401,"x_min":81,"x_max":594,"o":"m 244 1031 l 485 1031 l 321 0 l 81 0 l 244 1031 m 196 1250 l 594 1250 l 572 1110 l 174 1110 l 196 1250 z "},"Į":{"ha":401,"x_min":81,"x_max":485,"o":"m 244 1031 l 485 1031 l 321 0 l 81 0 l 244 1031 m 253 -269 q 153 -240 185 -269 q 122 -165 122 -210 q 152 -70 122 -112 q 235 0 182 -28 l 321 0 q 264 -51 282 -24 q 246 -99 246 -78 q 263 -137 246 -124 q 306 -151 279 -151 l 318 -151 l 301 -264 q 253 -269 289 -269 z "},"Ĩ":{"ha":401,"x_min":81,"x_max":661,"o":"m 244 1031 l 485 1031 l 321 0 l 81 0 l 244 1031 m 113 1097 q 292 1279 157 1279 q 351 1272 324 1279 q 411 1250 378 1264 q 450 1237 431 1243 q 485 1231 469 1231 q 542 1288 533 1231 l 661 1288 q 593 1143 635 1188 q 485 1099 551 1099 q 430 1106 456 1099 q 360 1128 404 1113 q 290 1147 311 1147 q 253 1133 268 1147 q 232 1097 238 1118 l 113 1097 z "},"J":{"ha":563,"x_min":47,"x_max":650,"o":"m 214 -8 q 123 0 169 -8 q 47 22 76 8 l 78 213 q 172 210 139 210 q 260 235 231 210 q 296 311 289 260 l 410 1031 l 650 1031 l 528 258 q 431 53 504 114 q 214 -8 358 -8 z "},"Ĵ":{"ha":563,"x_min":47,"x_max":743,"o":"m 214 -8 q 123 0 169 -8 q 47 22 76 8 l 78 213 q 172 210 139 210 q 260 235 231 210 q 296 311 289 260 l 410 1031 l 650 1031 l 528 258 q 431 53 504 114 q 214 -8 358 -8 m 481 1299 l 643 1299 l 743 1099 l 604 1099 l 542 1193 l 443 1099 l 304 1099 l 481 1299 z "},"K":{"ha":913,"x_min":81,"x_max":1044,"o":"m 244 1031 l 485 1031 l 419 625 l 539 625 l 800 1031 l 1044 1031 l 715 513 l 907 0 l 669 0 l 518 410 l 385 410 l 321 0 l 81 0 l 244 1031 z "},"Ķ":{"ha":913,"x_min":81,"x_max":1044,"o":"m 244 1031 l 485 1031 l 419 625 l 539 625 l 800 1031 l 1044 1031 l 715 513 l 907 0 l 669 0 l 518 410 l 385 410 l 321 0 l 81 0 l 244 1031 m 264 -208 l 303 -197 q 357 -169 342 -186 q 379 -106 372 -153 l 524 -106 q 463 -261 507 -215 q 326 -307 419 -307 l 249 -307 l 264 -208 z "},"L":{"ha":743,"x_min":118,"x_max":749,"o":"m 332 0 q 174 49 231 0 q 118 199 118 99 q 124 265 118 232 l 244 1031 l 485 1031 l 368 297 q 367 275 367 289 q 439 215 367 215 l 749 215 l 714 0 l 332 0 z "},"Ĺ":{"ha":743,"x_min":118,"x_max":749,"o":"m 332 0 q 174 49 231 0 q 118 199 118 99 q 124 265 118 232 l 244 1031 l 485 1031 l 368 297 q 367 275 367 289 q 439 215 367 215 l 749 215 l 714 0 l 332 0 m 415 1296 l 618 1296 l 444 1099 l 292 1099 l 415 1296 z "},"Ľ":{"ha":743,"x_min":118,"x_max":810,"o":"m 332 0 q 174 49 231 0 q 118 199 118 99 q 124 265 118 232 l 244 1031 l 485 1031 l 368 297 q 367 275 367 289 q 439 215 367 215 l 749 215 l 714 0 l 332 0 m 578 960 l 593 1053 l 810 1053 l 794 960 l 751 769 l 563 769 l 578 960 z "},"Ļ":{"ha":743,"x_min":118,"x_max":749,"o":"m 332 0 q 174 49 231 0 q 118 199 118 99 q 124 265 118 232 l 244 1031 l 485 1031 l 368 297 q 367 275 367 289 q 439 215 367 215 l 749 215 l 714 0 l 332 0 m 193 -208 l 232 -197 q 286 -169 271 -186 q 308 -106 301 -153 l 453 -106 q 392 -261 436 -215 q 256 -307 349 -307 l 178 -307 l 193 -208 z "},"Ŀ":{"ha":743,"x_min":118,"x_max":761,"o":"m 332 0 q 174 49 231 0 q 118 199 118 99 q 124 265 118 232 l 244 1031 l 485 1031 l 368 297 q 367 275 367 289 q 439 215 367 215 l 749 215 l 714 0 l 332 0 m 561 503 q 540 511 547 503 q 533 533 532 519 l 557 678 q 593 710 561 710 l 733 710 q 760 678 767 710 l 736 533 q 700 503 731 503 l 561 503 z "},"Ḷ":{"ha":743,"x_min":118,"x_max":749,"o":"m 332 0 q 174 49 231 0 q 118 199 118 99 q 124 265 118 232 l 244 1031 l 485 1031 l 368 297 q 367 275 367 289 q 439 215 367 215 l 749 215 l 714 0 l 332 0 m 263 -321 q 243 -314 250 -321 q 236 -296 236 -307 l 236 -290 l 260 -146 q 294 -112 264 -112 l 406 -112 q 432 -139 432 -112 l 432 -146 l 408 -290 q 374 -321 404 -321 l 263 -321 z "},"Ḻ":{"ha":743,"x_min":111,"x_max":749,"o":"m 332 0 q 174 49 231 0 q 118 199 118 99 q 124 265 118 232 l 244 1031 l 485 1031 l 368 297 q 367 275 367 289 q 439 215 367 215 l 749 215 l 714 0 l 332 0 m 133 -167 l 532 -167 l 510 -307 l 111 -307 l 133 -167 z "},"Ł":{"ha":743,"x_min":65,"x_max":749,"o":"m 749 215 l 714 0 l 332 0 q 174 49 231 0 q 118 199 118 99 q 124 265 118 232 l 153 451 l 65 417 l 86 543 l 174 578 l 244 1031 l 485 1031 l 425 654 l 619 733 l 599 607 l 404 528 l 368 297 q 367 275 367 289 q 439 215 367 215 l 749 215 z "},"M":{"ha":1235,"x_min":49,"x_max":1238,"o":"m 339 1031 l 564 1031 l 669 278 l 1015 1031 l 1238 1031 l 1197 0 l 965 0 l 990 604 l 736 0 l 511 0 l 449 594 l 286 0 l 49 0 l 339 1031 z "},"Ṁ":{"ha":1235,"x_min":49,"x_max":1238,"o":"m 339 1031 l 564 1031 l 669 278 l 1015 1031 l 1238 1031 l 1197 0 l 965 0 l 990 604 l 736 0 l 511 0 l 449 594 l 286 0 l 49 0 l 339 1031 m 719 1110 q 700 1117 707 1110 q 693 1135 693 1124 l 693 1140 l 717 1285 q 751 1318 721 1318 l 863 1318 q 889 1292 889 1318 l 889 1285 l 865 1140 q 831 1110 861 1110 l 719 1110 z "},"Ṃ":{"ha":1235,"x_min":49,"x_max":1238,"o":"m 339 1031 l 564 1031 l 669 278 l 1015 1031 l 1238 1031 l 1197 0 l 965 0 l 990 604 l 736 0 l 511 0 l 449 594 l 286 0 l 49 0 l 339 1031 m 489 -321 q 469 -314 476 -321 q 463 -296 463 -307 l 463 -290 l 486 -146 q 521 -112 490 -112 l 632 -112 q 658 -139 658 -112 l 658 -146 l 635 -290 q 600 -321 631 -321 l 489 -321 z "},"N":{"ha":975,"x_min":81,"x_max":1069,"o":"m 244 1031 l 435 1031 l 731 407 l 829 1031 l 1069 1031 l 906 0 l 715 0 l 419 624 l 321 0 l 81 0 l 244 1031 z "},"Ń":{"ha":975,"x_min":81,"x_max":1069,"o":"m 244 1031 l 435 1031 l 731 407 l 829 1031 l 1069 1031 l 906 0 l 715 0 l 419 624 l 321 0 l 81 0 l 244 1031 m 674 1296 l 876 1296 l 703 1099 l 550 1099 l 674 1296 z "},"Ň":{"ha":975,"x_min":81,"x_max":1069,"o":"m 244 1031 l 435 1031 l 731 407 l 829 1031 l 1069 1031 l 906 0 l 715 0 l 419 624 l 321 0 l 81 0 l 244 1031 m 468 1299 l 606 1299 l 669 1204 l 767 1299 l 907 1299 l 731 1099 l 568 1099 l 468 1299 z "},"Ņ":{"ha":975,"x_min":81,"x_max":1069,"o":"m 244 1031 l 435 1031 l 731 407 l 829 1031 l 1069 1031 l 906 0 l 715 0 l 419 624 l 321 0 l 81 0 l 244 1031 m 275 -208 l 314 -197 q 368 -169 353 -186 q 390 -106 383 -153 l 535 -106 q 474 -261 518 -215 q 338 -307 431 -307 l 260 -307 l 275 -208 z "},"Ṅ":{"ha":975,"x_min":81,"x_max":1069,"o":"m 244 1031 l 435 1031 l 731 407 l 829 1031 l 1069 1031 l 906 0 l 715 0 l 419 624 l 321 0 l 81 0 l 244 1031 m 344 -321 q 325 -314 332 -321 q 318 -296 318 -307 l 318 -290 l 342 -146 q 376 -112 346 -112 l 488 -112 q 514 -139 514 -112 l 514 -146 l 490 -290 q 456 -321 486 -321 l 344 -321 z "},"Ṇ":{"ha":975,"x_min":81,"x_max":1069,"o":"m 244 1031 l 435 1031 l 731 407 l 829 1031 l 1069 1031 l 906 0 l 715 0 l 419 624 l 321 0 l 81 0 l 244 1031 m 344 -321 q 325 -314 332 -321 q 318 -296 318 -307 l 318 -290 l 342 -146 q 376 -112 346 -112 l 488 -112 q 514 -139 514 -112 l 514 -146 l 490 -290 q 456 -321 486 -321 l 344 -321 z "},"Ŋ":{"ha":975,"x_min":81,"x_max":1069,"o":"m 922 101 l 896 -64 q 797 -269 875 -200 q 571 -337 719 -337 q 480 -330 525 -337 q 401 -311 435 -322 l 432 -119 q 557 -122 513 -122 q 628 -98 603 -122 q 663 -26 654 -74 l 679 76 l 419 624 l 321 0 l 81 0 l 244 1031 l 435 1031 l 731 407 l 829 1031 l 1069 1031 l 922 101 z "},"Ṉ":{"ha":975,"x_min":81,"x_max":1069,"o":"m 244 1031 l 435 1031 l 731 407 l 829 1031 l 1069 1031 l 906 0 l 715 0 l 419 624 l 321 0 l 81 0 l 244 1031 m 219 -167 l 618 -167 l 596 -307 l 197 -307 l 219 -167 z "},"Ñ":{"ha":975,"x_min":81,"x_max":1069,"o":"m 244 1031 l 435 1031 l 731 407 l 829 1031 l 1069 1031 l 906 0 l 715 0 l 419 624 l 321 0 l 81 0 l 244 1031 m 372 1097 q 551 1279 417 1279 q 610 1272 583 1279 q 671 1250 638 1264 q 710 1237 690 1243 q 744 1231 729 1231 q 801 1288 793 1231 l 921 1288 q 853 1143 894 1188 q 744 1099 811 1099 q 690 1106 715 1099 q 619 1128 664 1113 q 550 1147 571 1147 q 513 1133 528 1147 q 492 1097 497 1118 l 372 1097 z "},"O":{"ha":974,"x_min":121,"x_max":1014,"o":"m 483 -8 q 288 19 367 -8 q 165 119 210 46 q 121 325 121 192 q 142 547 121 419 q 231 844 171 738 q 392 994 292 950 q 650 1039 492 1039 q 844 1010 765 1039 q 968 905 922 982 q 1014 689 1014 828 q 993 469 1014 601 q 902 172 963 275 q 744 31 842 69 q 483 -8 646 -8 m 521 208 q 640 238 596 208 q 710 331 685 268 q 754 501 736 393 q 774 686 774 628 q 738 795 774 767 q 617 824 703 824 q 499 797 543 824 q 427 706 454 771 q 381 517 400 640 q 360 338 360 399 q 396 236 360 264 q 521 208 432 208 z "},"Ó":{"ha":974,"x_min":121,"x_max":1014,"o":"m 483 -8 q 288 19 367 -8 q 165 119 210 46 q 121 325 121 192 q 142 547 121 419 q 231 844 171 738 q 392 994 292 950 q 650 1039 492 1039 q 844 1010 765 1039 q 968 905 922 982 q 1014 689 1014 828 q 993 469 1014 601 q 902 172 963 275 q 744 31 842 69 q 483 -8 646 -8 m 521 208 q 640 238 596 208 q 710 331 685 268 q 754 501 736 393 q 774 686 774 628 q 738 795 774 767 q 617 824 703 824 q 499 797 543 824 q 427 706 454 771 q 381 517 400 640 q 360 338 360 399 q 396 236 360 264 q 521 208 432 208 m 701 1296 l 904 1296 l 731 1099 l 578 1099 l 701 1296 z "},"Ŏ":{"ha":974,"x_min":121,"x_max":1014,"o":"m 483 -8 q 288 19 367 -8 q 165 119 210 46 q 121 325 121 192 q 142 547 121 419 q 231 844 171 738 q 392 994 292 950 q 650 1039 492 1039 q 844 1010 765 1039 q 968 905 922 982 q 1014 689 1014 828 q 993 469 1014 601 q 902 172 963 275 q 744 31 842 69 q 483 -8 646 -8 m 521 208 q 640 238 596 208 q 710 331 685 268 q 754 501 736 393 q 774 686 774 628 q 738 795 774 767 q 617 824 703 824 q 499 797 543 824 q 427 706 454 771 q 381 517 400 640 q 360 338 360 399 q 396 236 360 264 q 521 208 432 208 m 656 1086 q 531 1126 574 1086 q 488 1243 488 1165 q 493 1300 488 1258 l 603 1300 q 600 1271 600 1278 q 620 1213 600 1231 q 672 1194 640 1194 q 775 1300 758 1194 l 889 1300 q 656 1086 854 1086 z "},"Ô":{"ha":974,"x_min":121,"x_max":1014,"o":"m 483 -8 q 288 19 367 -8 q 165 119 210 46 q 121 325 121 192 q 142 547 121 419 q 231 844 171 738 q 392 994 292 950 q 650 1039 492 1039 q 844 1010 765 1039 q 968 905 922 982 q 1014 689 1014 828 q 993 469 1014 601 q 902 172 963 275 q 744 31 842 69 q 483 -8 646 -8 m 521 208 q 640 238 596 208 q 710 331 685 268 q 754 501 736 393 q 774 686 774 628 q 738 795 774 767 q 617 824 703 824 q 499 797 543 824 q 427 706 454 771 q 381 517 400 640 q 360 338 360 399 q 396 236 360 264 q 521 208 432 208 m 604 1299 l 767 1299 l 867 1099 l 728 1099 l 665 1193 l 567 1099 l 428 1099 l 604 1299 z "},"Ố":{"ha":974,"x_min":121,"x_max":1067,"o":"m 483 -8 q 288 19 367 -8 q 165 119 210 46 q 121 325 121 192 q 142 547 121 419 q 231 844 171 738 q 392 994 292 950 q 650 1039 492 1039 q 844 1010 765 1039 q 968 905 922 982 q 1014 689 1014 828 q 993 469 1014 601 q 902 172 963 275 q 744 31 842 69 q 483 -8 646 -8 m 521 208 q 640 238 596 208 q 710 331 685 268 q 754 501 736 393 q 774 686 774 628 q 738 795 774 767 q 617 824 703 824 q 499 797 543 824 q 427 706 454 771 q 381 517 400 640 q 360 338 360 399 q 396 236 360 264 q 521 208 432 208 m 888 1393 l 1067 1393 l 944 1221 l 817 1221 l 888 1393 m 608 1256 l 772 1256 l 879 1099 l 740 1099 l 669 1150 l 579 1099 l 440 1099 l 608 1256 z "},"Ộ":{"ha":974,"x_min":121,"x_max":1014,"o":"m 483 -8 q 288 19 367 -8 q 165 119 210 46 q 121 325 121 192 q 142 547 121 419 q 231 844 171 738 q 392 994 292 950 q 650 1039 492 1039 q 844 1010 765 1039 q 968 905 922 982 q 1014 689 1014 828 q 993 469 1014 601 q 902 172 963 275 q 744 31 842 69 q 483 -8 646 -8 m 521 208 q 640 238 596 208 q 710 331 685 268 q 754 501 736 393 q 774 686 774 628 q 738 795 774 767 q 617 824 703 824 q 499 797 543 824 q 427 706 454 771 q 381 517 400 640 q 360 338 360 399 q 396 236 360 264 q 521 208 432 208 m 604 1299 l 767 1299 l 867 1099 l 728 1099 l 665 1193 l 567 1099 l 428 1099 l 604 1299 m 372 -321 q 353 -314 360 -321 q 346 -296 346 -307 l 346 -290 l 369 -146 q 404 -112 374 -112 l 515 -112 q 542 -139 542 -112 l 542 -146 l 518 -290 q 483 -321 514 -321 l 372 -321 z "},"Ồ":{"ha":974,"x_min":121,"x_max":1014,"o":"m 483 -8 q 288 19 367 -8 q 165 119 210 46 q 121 325 121 192 q 142 547 121 419 q 231 844 171 738 q 392 994 292 950 q 650 1039 492 1039 q 844 1010 765 1039 q 968 905 922 982 q 1014 689 1014 828 q 993 469 1014 601 q 902 172 963 275 q 744 31 842 69 q 483 -8 646 -8 m 521 208 q 640 238 596 208 q 710 331 685 268 q 754 501 736 393 q 774 686 774 628 q 738 795 774 767 q 617 824 703 824 q 499 797 543 824 q 427 706 454 771 q 381 517 400 640 q 360 338 360 399 q 396 236 360 264 q 521 208 432 208 m 353 1393 l 532 1393 l 547 1221 l 418 1221 l 353 1393 m 607 1256 l 771 1256 l 878 1099 l 739 1099 l 668 1150 l 578 1099 l 439 1099 l 607 1256 z "},"Ổ":{"ha":974,"x_min":121,"x_max":1017,"o":"m 483 -8 q 288 19 367 -8 q 165 119 210 46 q 121 325 121 192 q 142 547 121 419 q 231 844 171 738 q 392 994 292 950 q 650 1039 492 1039 q 844 1010 765 1039 q 968 905 922 982 q 1014 689 1014 828 q 993 469 1014 601 q 902 172 963 275 q 744 31 842 69 q 483 -8 646 -8 m 521 208 q 640 238 596 208 q 710 331 685 268 q 754 501 736 393 q 774 686 774 628 q 738 795 774 767 q 617 824 703 824 q 499 797 543 824 q 427 706 454 771 q 381 517 400 640 q 360 338 360 399 q 396 236 360 264 q 521 208 432 208 m 858 1269 q 899 1315 899 1288 q 876 1332 899 1332 q 831 1324 858 1332 l 846 1417 q 922 1428 882 1428 q 1017 1346 1017 1428 q 843 1176 1017 1224 l 858 1269 m 610 1256 l 772 1256 l 879 1099 l 742 1099 l 671 1150 l 579 1099 l 440 1099 l 610 1256 z "},"Ỗ":{"ha":974,"x_min":121,"x_max":1014,"o":"m 483 -8 q 288 19 367 -8 q 165 119 210 46 q 121 325 121 192 q 142 547 121 419 q 231 844 171 738 q 392 994 292 950 q 650 1039 492 1039 q 844 1010 765 1039 q 968 905 922 982 q 1014 689 1014 828 q 993 469 1014 601 q 902 172 963 275 q 744 31 842 69 q 483 -8 646 -8 m 521 208 q 640 238 596 208 q 710 331 685 268 q 754 501 736 393 q 774 686 774 628 q 738 795 774 767 q 617 824 703 824 q 499 797 543 824 q 427 706 454 771 q 381 517 400 640 q 360 338 360 399 q 396 236 360 264 q 521 208 432 208 m 453 1310 q 516 1428 474 1397 q 624 1458 558 1458 q 669 1453 646 1458 q 714 1440 693 1447 q 737 1433 718 1439 q 771 1426 756 1426 q 825 1467 817 1426 l 943 1467 q 882 1345 921 1378 q 774 1313 843 1313 q 713 1322 743 1313 q 679 1332 683 1331 q 625 1344 639 1344 q 589 1335 603 1344 q 571 1310 575 1325 l 453 1310 m 611 1256 l 774 1256 l 879 1099 l 742 1099 l 671 1150 l 581 1099 l 440 1099 l 611 1256 z "},"Ȍ":{"ha":974,"x_min":121,"x_max":1014,"o":"m 483 -8 q 288 19 367 -8 q 165 119 210 46 q 121 325 121 192 q 142 547 121 419 q 231 844 171 738 q 392 994 292 950 q 650 1039 492 1039 q 844 1010 765 1039 q 968 905 922 982 q 1014 689 1014 828 q 993 469 1014 601 q 902 172 963 275 q 744 31 842 69 q 483 -8 646 -8 m 521 208 q 640 238 596 208 q 710 331 685 268 q 754 501 736 393 q 774 686 774 628 q 738 795 774 767 q 617 824 703 824 q 499 797 543 824 q 427 706 454 771 q 381 517 400 640 q 360 338 360 399 q 396 236 360 264 q 521 208 432 208 m 347 1296 l 539 1296 l 611 1099 l 469 1099 l 347 1296 m 611 1296 l 803 1296 l 875 1099 l 733 1099 l 611 1296 z "},"Ö":{"ha":974,"x_min":121,"x_max":1014,"o":"m 483 -8 q 288 19 367 -8 q 165 119 210 46 q 121 325 121 192 q 142 547 121 419 q 231 844 171 738 q 392 994 292 950 q 650 1039 492 1039 q 844 1010 765 1039 q 968 905 922 982 q 1014 689 1014 828 q 993 469 1014 601 q 902 172 963 275 q 744 31 842 69 q 483 -8 646 -8 m 521 208 q 640 238 596 208 q 710 331 685 268 q 754 501 736 393 q 774 686 774 628 q 738 795 774 767 q 617 824 703 824 q 499 797 543 824 q 427 706 454 771 q 381 517 400 640 q 360 338 360 399 q 396 236 360 264 q 521 208 432 208 m 463 1100 q 443 1107 450 1100 q 436 1125 436 1114 l 461 1275 q 494 1308 465 1308 l 607 1308 q 632 1282 632 1308 l 608 1131 q 574 1100 604 1100 l 463 1100 m 738 1100 q 719 1107 726 1100 q 711 1125 711 1114 l 736 1275 q 771 1308 740 1308 l 882 1308 q 908 1282 908 1308 l 885 1131 q 873 1108 883 1115 q 849 1100 863 1100 l 738 1100 z "},"Ȫ":{"ha":974,"x_min":121,"x_max":1014,"o":"m 483 -8 q 288 19 367 -8 q 165 119 210 46 q 121 325 121 192 q 142 547 121 419 q 231 844 171 738 q 392 994 292 950 q 650 1039 492 1039 q 844 1010 765 1039 q 968 905 922 982 q 1014 689 1014 828 q 993 469 1014 601 q 902 172 963 275 q 744 31 842 69 q 483 -8 646 -8 m 521 208 q 640 238 596 208 q 710 331 685 268 q 754 501 736 393 q 774 686 774 628 q 738 795 774 767 q 617 824 703 824 q 499 797 543 824 q 427 706 454 771 q 381 517 400 640 q 360 338 360 399 q 396 236 360 264 q 521 208 432 208 m 464 1100 q 444 1107 451 1100 q 438 1125 438 1114 l 463 1275 q 496 1308 467 1308 l 608 1308 q 633 1282 633 1308 l 610 1131 q 575 1100 606 1100 l 464 1100 m 739 1100 q 720 1107 728 1100 q 713 1125 713 1114 l 738 1275 q 772 1308 742 1308 l 883 1308 q 910 1282 910 1308 l 886 1131 q 874 1108 885 1115 q 850 1100 864 1100 l 739 1100 m 514 1504 l 913 1504 l 890 1364 l 492 1364 l 514 1504 z "},"Ȱ":{"ha":974,"x_min":121,"x_max":1014,"o":"m 483 -8 q 288 19 367 -8 q 165 119 210 46 q 121 325 121 192 q 142 547 121 419 q 231 844 171 738 q 392 994 292 950 q 650 1039 492 1039 q 844 1010 765 1039 q 968 905 922 982 q 1014 689 1014 828 q 993 469 1014 601 q 902 172 963 275 q 744 31 842 69 q 483 -8 646 -8 m 521 208 q 640 238 596 208 q 710 331 685 268 q 754 501 736 393 q 774 686 774 628 q 738 795 774 767 q 617 824 703 824 q 499 797 543 824 q 427 706 454 771 q 381 517 400 640 q 360 338 360 399 q 396 236 360 264 q 521 208 432 208 m 603 1110 q 583 1117 590 1110 q 576 1135 576 1124 l 576 1140 l 600 1285 q 635 1318 604 1318 l 746 1318 q 772 1292 772 1318 l 772 1285 l 749 1140 q 714 1110 744 1110 l 603 1110 m 517 1519 l 915 1519 l 893 1379 l 494 1379 l 517 1519 z "},"Ọ":{"ha":974,"x_min":121,"x_max":1014,"o":"m 483 -8 q 288 19 367 -8 q 165 119 210 46 q 121 325 121 192 q 142 547 121 419 q 231 844 171 738 q 392 994 292 950 q 650 1039 492 1039 q 844 1010 765 1039 q 968 905 922 982 q 1014 689 1014 828 q 993 469 1014 601 q 902 172 963 275 q 744 31 842 69 q 483 -8 646 -8 m 521 208 q 640 238 596 208 q 710 331 685 268 q 754 501 736 393 q 774 686 774 628 q 738 795 774 767 q 617 824 703 824 q 499 797 543 824 q 427 706 454 771 q 381 517 400 640 q 360 338 360 399 q 396 236 360 264 q 521 208 432 208 m 372 -321 q 353 -314 360 -321 q 346 -296 346 -307 l 346 -290 l 369 -146 q 404 -112 374 -112 l 515 -112 q 542 -139 542 -112 l 542 -146 l 518 -290 q 483 -321 514 -321 l 372 -321 z "},"Ò":{"ha":974,"x_min":121,"x_max":1014,"o":"m 483 -8 q 288 19 367 -8 q 165 119 210 46 q 121 325 121 192 q 142 547 121 419 q 231 844 171 738 q 392 994 292 950 q 650 1039 492 1039 q 844 1010 765 1039 q 968 905 922 982 q 1014 689 1014 828 q 993 469 1014 601 q 902 172 963 275 q 744 31 842 69 q 483 -8 646 -8 m 521 208 q 640 238 596 208 q 710 331 685 268 q 754 501 736 393 q 774 686 774 628 q 738 795 774 767 q 617 824 703 824 q 499 797 543 824 q 427 706 454 771 q 381 517 400 640 q 360 338 360 399 q 396 236 360 264 q 521 208 432 208 m 494 1296 l 686 1296 l 758 1099 l 617 1099 l 494 1296 z "},"Ỏ":{"ha":974,"x_min":121,"x_max":1014,"o":"m 483 -8 q 288 19 367 -8 q 165 119 210 46 q 121 325 121 192 q 142 547 121 419 q 231 844 171 738 q 392 994 292 950 q 650 1039 492 1039 q 844 1010 765 1039 q 968 905 922 982 q 1014 689 1014 828 q 993 469 1014 601 q 902 172 963 275 q 744 31 842 69 q 483 -8 646 -8 m 521 208 q 640 238 596 208 q 710 331 685 268 q 754 501 736 393 q 774 686 774 628 q 738 795 774 767 q 617 824 703 824 q 499 797 543 824 q 427 706 454 771 q 381 517 400 640 q 360 338 360 399 q 396 236 360 264 q 521 208 432 208 m 646 1161 q 701 1214 701 1176 q 667 1238 701 1238 q 622 1229 653 1238 l 636 1322 q 715 1333 672 1333 q 829 1235 829 1333 q 631 1057 829 1111 l 646 1161 z "},"Ơ":{"ha":978,"x_min":121,"x_max":1131,"o":"m 1131 1182 q 1069 1013 1114 1081 q 960 918 1025 946 q 1014 689 1014 836 q 993 469 1014 601 q 902 172 963 275 q 744 31 842 69 q 483 -8 646 -8 q 288 19 367 -8 q 165 119 210 46 q 121 325 121 192 q 142 547 121 419 q 231 844 171 738 q 392 994 292 950 q 650 1039 492 1039 q 768 1031 711 1039 l 846 1031 q 924 1065 894 1031 q 967 1182 954 1100 l 1131 1182 m 754 501 q 774 686 774 628 q 738 795 774 767 q 617 824 703 824 q 499 797 543 824 q 427 706 454 771 q 381 517 400 640 q 360 338 360 399 q 396 236 360 264 q 521 208 432 208 q 640 238 596 208 q 710 331 685 268 q 754 501 736 393 z "},"Ớ":{"ha":978,"x_min":121,"x_max":1131,"o":"m 1131 1182 q 1069 1013 1114 1081 q 960 918 1025 946 q 1014 689 1014 836 q 993 469 1014 601 q 902 172 963 275 q 744 31 842 69 q 483 -8 646 -8 q 288 19 367 -8 q 165 119 210 46 q 121 325 121 192 q 142 547 121 419 q 231 844 171 738 q 392 994 292 950 q 650 1039 492 1039 q 768 1031 711 1039 l 846 1031 q 924 1065 894 1031 q 967 1182 954 1100 l 1131 1182 m 754 501 q 774 686 774 628 q 738 795 774 767 q 617 824 703 824 q 499 797 543 824 q 427 706 454 771 q 381 517 400 640 q 360 338 360 399 q 396 236 360 264 q 521 208 432 208 q 640 238 596 208 q 710 331 685 268 q 754 501 736 393 m 665 1296 l 868 1296 l 694 1099 l 542 1099 l 665 1296 z "},"Ợ":{"ha":978,"x_min":121,"x_max":1131,"o":"m 1131 1182 q 1069 1013 1114 1081 q 960 918 1025 946 q 1014 689 1014 836 q 993 469 1014 601 q 902 172 963 275 q 744 31 842 69 q 483 -8 646 -8 q 288 19 367 -8 q 165 119 210 46 q 121 325 121 192 q 142 547 121 419 q 231 844 171 738 q 392 994 292 950 q 650 1039 492 1039 q 768 1031 711 1039 l 846 1031 q 924 1065 894 1031 q 967 1182 954 1100 l 1131 1182 m 754 501 q 774 686 774 628 q 738 795 774 767 q 617 824 703 824 q 499 797 543 824 q 427 706 454 771 q 381 517 400 640 q 360 338 360 399 q 396 236 360 264 q 521 208 432 208 q 640 238 596 208 q 710 331 685 268 q 754 501 736 393 m 364 -321 q 344 -314 351 -321 q 338 -296 338 -307 l 338 -290 l 361 -146 q 396 -112 365 -112 l 507 -112 q 533 -139 533 -112 l 533 -146 l 510 -290 q 475 -321 506 -321 l 364 -321 z "},"Ờ":{"ha":978,"x_min":121,"x_max":1131,"o":"m 1131 1182 q 1069 1013 1114 1081 q 960 918 1025 946 q 1014 689 1014 836 q 993 469 1014 601 q 902 172 963 275 q 744 31 842 69 q 483 -8 646 -8 q 288 19 367 -8 q 165 119 210 46 q 121 325 121 192 q 142 547 121 419 q 231 844 171 738 q 392 994 292 950 q 650 1039 492 1039 q 768 1031 711 1039 l 846 1031 q 924 1065 894 1031 q 967 1182 954 1100 l 1131 1182 m 754 501 q 774 686 774 628 q 738 795 774 767 q 617 824 703 824 q 499 797 543 824 q 427 706 454 771 q 381 517 400 640 q 360 338 360 399 q 396 236 360 264 q 521 208 432 208 q 640 238 596 208 q 710 331 685 268 q 754 501 736 393 m 458 1296 l 650 1296 l 722 1099 l 581 1099 l 458 1296 z "},"Ở":{"ha":978,"x_min":121,"x_max":1131,"o":"m 1131 1182 q 1069 1013 1114 1081 q 960 918 1025 946 q 1014 689 1014 836 q 993 469 1014 601 q 902 172 963 275 q 744 31 842 69 q 483 -8 646 -8 q 288 19 367 -8 q 165 119 210 46 q 121 325 121 192 q 142 547 121 419 q 231 844 171 738 q 392 994 292 950 q 650 1039 492 1039 q 768 1031 711 1039 l 846 1031 q 924 1065 894 1031 q 967 1182 954 1100 l 1131 1182 m 754 501 q 774 686 774 628 q 738 795 774 767 q 617 824 703 824 q 499 797 543 824 q 427 706 454 771 q 381 517 400 640 q 360 338 360 399 q 396 236 360 264 q 521 208 432 208 q 640 238 596 208 q 710 331 685 268 q 754 501 736 393 m 610 1161 q 665 1214 665 1176 q 631 1238 665 1238 q 586 1229 617 1238 l 600 1322 q 679 1333 636 1333 q 793 1235 793 1333 q 594 1057 793 1111 l 610 1161 z "},"Ỡ":{"ha":978,"x_min":121,"x_max":1131,"o":"m 1131 1182 q 1069 1013 1114 1081 q 960 918 1025 946 q 1014 689 1014 836 q 993 469 1014 601 q 902 172 963 275 q 744 31 842 69 q 483 -8 646 -8 q 288 19 367 -8 q 165 119 210 46 q 121 325 121 192 q 142 547 121 419 q 231 844 171 738 q 392 994 292 950 q 650 1039 492 1039 q 768 1031 711 1039 l 846 1031 q 924 1065 894 1031 q 967 1182 954 1100 l 1131 1182 m 754 501 q 774 686 774 628 q 738 795 774 767 q 617 824 703 824 q 499 797 543 824 q 427 706 454 771 q 381 517 400 640 q 360 338 360 399 q 396 236 360 264 q 521 208 432 208 q 640 238 596 208 q 710 331 685 268 q 754 501 736 393 m 364 1097 q 543 1279 408 1279 q 602 1272 575 1279 q 663 1250 629 1264 q 701 1237 682 1243 q 736 1231 721 1231 q 793 1288 785 1231 l 913 1288 q 844 1143 886 1188 q 736 1099 803 1099 q 681 1106 707 1099 q 611 1128 656 1113 q 542 1147 563 1147 q 504 1133 519 1147 q 483 1097 489 1118 l 364 1097 z "},"Ő":{"ha":974,"x_min":121,"x_max":1014,"o":"m 483 -8 q 288 19 367 -8 q 165 119 210 46 q 121 325 121 192 q 142 547 121 419 q 231 844 171 738 q 392 994 292 950 q 650 1039 492 1039 q 844 1010 765 1039 q 968 905 922 982 q 1014 689 1014 828 q 993 469 1014 601 q 902 172 963 275 q 744 31 842 69 q 483 -8 646 -8 m 521 208 q 640 238 596 208 q 710 331 685 268 q 754 501 736 393 q 774 686 774 628 q 738 795 774 767 q 617 824 703 824 q 499 797 543 824 q 427 706 454 771 q 381 517 400 640 q 360 338 360 399 q 396 236 360 264 q 521 208 432 208 m 578 1296 l 757 1296 l 596 1099 l 454 1099 l 578 1296 m 811 1296 l 992 1296 l 829 1099 l 689 1099 l 811 1296 z "},"Ȏ":{"ha":974,"x_min":121,"x_max":1014,"o":"m 483 -8 q 288 19 367 -8 q 165 119 210 46 q 121 325 121 192 q 142 547 121 419 q 231 844 171 738 q 392 994 292 950 q 650 1039 492 1039 q 844 1010 765 1039 q 968 905 922 982 q 1014 689 1014 828 q 993 469 1014 601 q 902 172 963 275 q 744 31 842 69 q 483 -8 646 -8 m 521 208 q 640 238 596 208 q 710 331 685 268 q 754 501 736 393 q 774 686 774 628 q 738 795 774 767 q 617 824 703 824 q 499 797 543 824 q 427 706 454 771 q 381 517 400 640 q 360 338 360 399 q 396 236 360 264 q 521 208 432 208 m 468 1089 q 701 1303 503 1303 q 826 1263 783 1303 q 869 1146 869 1224 q 864 1089 869 1131 l 754 1089 q 757 1119 757 1111 q 737 1178 757 1160 q 685 1196 717 1196 q 582 1089 599 1196 l 468 1089 z "},"Ō":{"ha":974,"x_min":121,"x_max":1014,"o":"m 483 -8 q 288 19 367 -8 q 165 119 210 46 q 121 325 121 192 q 142 547 121 419 q 231 844 171 738 q 392 994 292 950 q 650 1039 492 1039 q 844 1010 765 1039 q 968 905 922 982 q 1014 689 1014 828 q 993 469 1014 601 q 902 172 963 275 q 744 31 842 69 q 483 -8 646 -8 m 521 208 q 640 238 596 208 q 710 331 685 268 q 754 501 736 393 q 774 686 774 628 q 738 795 774 767 q 617 824 703 824 q 499 797 543 824 q 427 706 454 771 q 381 517 400 640 q 360 338 360 399 q 396 236 360 264 q 521 208 432 208 m 483 1250 l 882 1250 l 860 1110 l 461 1110 l 483 1250 z "},"Ṓ":{"ha":974,"x_min":121,"x_max":1014,"o":"m 483 -8 q 288 19 367 -8 q 165 119 210 46 q 121 325 121 192 q 142 547 121 419 q 231 844 171 738 q 392 994 292 950 q 650 1039 492 1039 q 844 1010 765 1039 q 968 905 922 982 q 1014 689 1014 828 q 993 469 1014 601 q 902 172 963 275 q 744 31 842 69 q 483 -8 646 -8 m 521 208 q 640 238 596 208 q 710 331 685 268 q 754 501 736 393 q 774 686 774 628 q 738 795 774 767 q 617 824 703 824 q 499 797 543 824 q 427 706 454 771 q 381 517 400 640 q 360 338 360 399 q 396 236 360 264 q 521 208 432 208 m 483 1250 l 882 1250 l 860 1110 l 461 1110 l 483 1250 m 729 1511 l 932 1511 l 758 1314 l 606 1314 l 729 1511 z "},"Ṑ":{"ha":974,"x_min":121,"x_max":1014,"o":"m 483 -8 q 288 19 367 -8 q 165 119 210 46 q 121 325 121 192 q 142 547 121 419 q 231 844 171 738 q 392 994 292 950 q 650 1039 492 1039 q 844 1010 765 1039 q 968 905 922 982 q 1014 689 1014 828 q 993 469 1014 601 q 902 172 963 275 q 744 31 842 69 q 483 -8 646 -8 m 521 208 q 640 238 596 208 q 710 331 685 268 q 754 501 736 393 q 774 686 774 628 q 738 795 774 767 q 617 824 703 824 q 499 797 543 824 q 427 706 454 771 q 381 517 400 640 q 360 338 360 399 q 396 236 360 264 q 521 208 432 208 m 483 1250 l 882 1250 l 860 1110 l 461 1110 l 483 1250 m 482 1511 l 674 1511 l 746 1314 l 604 1314 l 482 1511 z "},"Ǫ":{"ha":974,"x_min":121,"x_max":1014,"o":"m 650 1039 q 844 1010 765 1039 q 968 905 922 982 q 1014 689 1014 828 q 993 469 1014 601 q 922 210 968 307 q 805 64 876 113 q 625 0 733 15 q 568 -51 586 -24 q 550 -99 550 -78 q 567 -137 550 -124 q 610 -151 583 -151 l 622 -151 l 606 -264 q 557 -269 593 -269 q 458 -240 489 -269 q 426 -165 426 -210 q 453 -75 426 -115 q 525 -8 479 -35 l 483 -8 q 288 19 367 -8 q 165 119 210 46 q 121 325 121 192 q 142 547 121 419 q 231 844 171 738 q 392 994 292 950 q 650 1039 492 1039 m 754 501 q 774 686 774 628 q 738 795 774 767 q 617 824 703 824 q 499 797 543 824 q 427 706 454 771 q 381 517 400 640 q 360 338 360 399 q 396 236 360 264 q 521 208 432 208 q 640 238 596 208 q 710 331 685 268 q 754 501 736 393 z "},"Ø":{"ha":978,"x_min":54,"x_max":1086,"o":"m 971 899 q 1014 689 1014 821 q 993 469 1014 601 q 902 172 963 275 q 744 31 842 69 q 483 -8 646 -8 q 338 5 400 -8 q 229 50 275 18 l 186 0 l 54 0 l 163 124 q 121 325 121 200 q 142 547 121 419 q 231 844 171 738 q 392 994 292 950 q 650 1039 492 1039 q 797 1025 733 1039 q 907 976 861 1011 l 954 1031 l 1086 1031 l 971 899 m 381 517 q 360 350 361 408 l 744 790 q 694 816 725 808 q 617 824 664 824 q 499 797 543 824 q 427 706 454 771 q 381 517 400 640 m 754 501 q 774 672 772 621 l 393 238 q 443 215 413 221 q 521 208 474 208 q 640 238 596 208 q 710 331 685 268 q 754 501 736 393 z "},"Ǿ":{"ha":978,"x_min":54,"x_max":1086,"o":"m 971 899 q 1014 689 1014 821 q 993 469 1014 601 q 902 172 963 275 q 744 31 842 69 q 483 -8 646 -8 q 338 5 400 -8 q 229 50 275 18 l 186 0 l 54 0 l 163 124 q 121 325 121 200 q 142 547 121 419 q 231 844 171 738 q 392 994 292 950 q 650 1039 492 1039 q 797 1025 733 1039 q 907 976 861 1011 l 954 1031 l 1086 1031 l 971 899 m 381 517 q 360 350 361 408 l 744 790 q 694 816 725 808 q 617 824 664 824 q 499 797 543 824 q 427 706 454 771 q 381 517 400 640 m 754 501 q 774 672 772 621 l 393 238 q 443 215 413 221 q 521 208 474 208 q 640 238 596 208 q 710 331 685 268 q 754 501 736 393 m 681 1296 l 883 1296 l 710 1099 l 557 1099 l 681 1296 z "},"Õ":{"ha":974,"x_min":121,"x_max":1014,"o":"m 483 -8 q 288 19 367 -8 q 165 119 210 46 q 121 325 121 192 q 142 547 121 419 q 231 844 171 738 q 392 994 292 950 q 650 1039 492 1039 q 844 1010 765 1039 q 968 905 922 982 q 1014 689 1014 828 q 993 469 1014 601 q 902 172 963 275 q 744 31 842 69 q 483 -8 646 -8 m 521 208 q 640 238 596 208 q 710 331 685 268 q 754 501 736 393 q 774 686 774 628 q 738 795 774 767 q 617 824 703 824 q 499 797 543 824 q 427 706 454 771 q 381 517 400 640 q 360 338 360 399 q 396 236 360 264 q 521 208 432 208 m 400 1097 q 579 1279 444 1279 q 638 1272 611 1279 q 699 1250 665 1264 q 738 1237 718 1243 q 772 1231 757 1231 q 829 1288 821 1231 l 949 1288 q 881 1143 922 1188 q 772 1099 839 1099 q 717 1106 743 1099 q 647 1128 692 1113 q 578 1147 599 1147 q 540 1133 556 1147 q 519 1097 525 1118 l 400 1097 z "},"Ṍ":{"ha":974,"x_min":121,"x_max":1014,"o":"m 483 -8 q 288 19 367 -8 q 165 119 210 46 q 121 325 121 192 q 142 547 121 419 q 231 844 171 738 q 392 994 292 950 q 650 1039 492 1039 q 844 1010 765 1039 q 968 905 922 982 q 1014 689 1014 828 q 993 469 1014 601 q 902 172 963 275 q 744 31 842 69 q 483 -8 646 -8 m 521 208 q 640 238 596 208 q 710 331 685 268 q 754 501 736 393 q 774 686 774 628 q 738 795 774 767 q 617 824 703 824 q 499 797 543 824 q 427 706 454 771 q 381 517 400 640 q 360 338 360 399 q 396 236 360 264 q 521 208 432 208 m 400 1097 q 579 1279 444 1279 q 638 1272 611 1279 q 699 1250 665 1264 q 738 1237 718 1243 q 772 1231 757 1231 q 829 1288 821 1231 l 949 1288 q 881 1143 922 1188 q 772 1099 839 1099 q 717 1106 743 1099 q 647 1128 692 1113 q 578 1147 599 1147 q 540 1133 556 1147 q 519 1097 525 1118 l 400 1097 m 731 1531 l 933 1531 l 760 1333 l 607 1333 l 731 1531 z "},"Ṏ":{"ha":974,"x_min":121,"x_max":1014,"o":"m 483 -8 q 288 19 367 -8 q 165 119 210 46 q 121 325 121 192 q 142 547 121 419 q 231 844 171 738 q 392 994 292 950 q 650 1039 492 1039 q 844 1010 765 1039 q 968 905 922 982 q 1014 689 1014 828 q 993 469 1014 601 q 902 172 963 275 q 744 31 842 69 q 483 -8 646 -8 m 521 208 q 640 238 596 208 q 710 331 685 268 q 754 501 736 393 q 774 686 774 628 q 738 795 774 767 q 617 824 703 824 q 499 797 543 824 q 427 706 454 771 q 381 517 400 640 q 360 338 360 399 q 396 236 360 264 q 521 208 432 208 m 396 1097 q 575 1279 440 1279 q 634 1272 607 1279 q 694 1250 661 1264 q 733 1237 714 1243 q 768 1231 753 1231 q 825 1288 817 1231 l 944 1288 q 876 1143 918 1188 q 768 1099 835 1099 q 713 1106 739 1099 q 643 1128 688 1113 q 574 1147 594 1147 q 536 1133 551 1147 q 515 1097 521 1118 l 396 1097 m 493 1343 q 474 1350 481 1343 q 467 1368 467 1357 l 492 1518 q 525 1551 496 1551 l 638 1551 q 663 1525 663 1551 l 639 1374 q 604 1343 635 1343 l 493 1343 m 768 1343 q 749 1350 757 1343 q 742 1368 742 1357 l 767 1518 q 801 1551 771 1551 l 913 1551 q 939 1525 939 1551 l 915 1374 q 903 1351 914 1358 q 879 1343 893 1343 l 768 1343 z "},"Ȭ":{"ha":974,"x_min":121,"x_max":1014,"o":"m 483 -8 q 288 19 367 -8 q 165 119 210 46 q 121 325 121 192 q 142 547 121 419 q 231 844 171 738 q 392 994 292 950 q 650 1039 492 1039 q 844 1010 765 1039 q 968 905 922 982 q 1014 689 1014 828 q 993 469 1014 601 q 902 172 963 275 q 744 31 842 69 q 483 -8 646 -8 m 521 208 q 640 238 596 208 q 710 331 685 268 q 754 501 736 393 q 774 686 774 628 q 738 795 774 767 q 617 824 703 824 q 499 797 543 824 q 427 706 454 771 q 381 517 400 640 q 360 338 360 399 q 396 236 360 264 q 521 208 432 208 m 510 1479 l 908 1479 l 886 1339 l 488 1339 l 510 1479 m 396 1097 q 575 1279 440 1279 q 634 1272 607 1279 q 694 1250 661 1264 q 733 1237 714 1243 q 768 1231 753 1231 q 825 1288 817 1231 l 944 1288 q 876 1143 918 1188 q 768 1099 835 1099 q 713 1106 739 1099 q 643 1128 688 1113 q 574 1147 594 1147 q 536 1133 551 1147 q 515 1097 521 1118 l 396 1097 z "},"Œ":{"ha":1426,"x_min":121,"x_max":1510,"o":"m 1125 808 q 1059 788 1081 808 q 1031 721 1038 767 l 1015 624 l 1376 611 l 1347 421 l 982 408 l 976 379 l 964 299 q 963 278 963 292 q 1036 217 963 217 l 1385 217 l 1353 15 q 939 -8 1108 -8 q 767 42 826 -8 q 644 3 714 15 q 483 -8 575 -8 q 288 19 367 -8 q 165 119 210 46 q 121 325 121 192 q 142 547 121 419 q 231 844 171 738 q 392 994 292 950 q 650 1039 492 1039 q 795 1025 732 1039 q 904 978 858 1011 q 1089 1031 975 1031 q 1510 1011 1279 1029 l 1478 808 l 1125 808 m 521 208 q 640 238 596 208 q 710 331 685 268 q 754 501 736 393 q 774 686 774 628 q 738 795 774 767 q 617 824 703 824 q 499 797 543 824 q 427 706 454 771 q 381 517 400 640 q 360 338 360 399 q 396 236 360 264 q 521 208 432 208 z "},"P":{"ha":851,"x_min":81,"x_max":943,"o":"m 244 1031 l 663 1031 q 868 965 793 1031 q 943 740 943 899 q 931 629 943 704 q 813 378 904 457 q 601 300 721 300 q 474 308 539 300 q 374 328 410 317 l 321 0 l 81 0 l 244 1031 m 568 515 q 650 553 618 515 q 692 656 682 592 q 699 717 699 697 q 678 792 699 769 q 615 815 657 815 l 450 815 l 403 515 l 568 515 z "},"Ṗ":{"ha":851,"x_min":81,"x_max":943,"o":"m 244 1031 l 663 1031 q 868 965 793 1031 q 943 740 943 899 q 931 629 943 704 q 813 378 904 457 q 601 300 721 300 q 474 308 539 300 q 374 328 410 317 l 321 0 l 81 0 l 244 1031 m 568 515 q 650 553 618 515 q 692 656 682 592 q 699 717 699 697 q 678 792 699 769 q 615 815 657 815 l 450 815 l 403 515 l 568 515 m 515 1110 q 496 1117 503 1110 q 489 1135 489 1124 l 489 1140 l 513 1285 q 547 1318 517 1318 l 658 1318 q 685 1292 685 1318 l 685 1285 l 661 1140 q 626 1110 657 1110 l 515 1110 z "},"Þ":{"ha":800,"x_min":81,"x_max":869,"o":"m 574 863 q 790 801 711 863 q 869 593 869 740 q 856 482 869 565 q 739 253 831 325 q 526 182 647 182 q 353 204 456 182 l 321 0 l 81 0 l 244 1031 l 483 1031 l 457 863 l 574 863 m 617 508 q 624 569 624 547 q 600 630 624 613 q 526 647 576 647 l 422 647 l 383 397 l 493 397 q 576 427 543 397 q 617 508 610 457 z "},"Q":{"ha":974,"x_min":121,"x_max":1014,"o":"m 483 -8 q 288 19 367 -8 q 165 119 210 46 q 121 325 121 192 q 142 547 121 419 q 231 844 171 738 q 392 994 292 950 q 650 1039 492 1039 q 844 1010 765 1039 q 968 905 922 982 q 1014 689 1014 828 q 993 469 1014 601 q 902 172 963 275 q 744 31 842 69 q 483 -8 646 -8 m 521 208 q 640 238 596 208 q 710 331 685 268 q 754 501 736 393 q 774 686 774 628 q 738 795 774 767 q 617 824 703 824 q 499 797 543 824 q 427 706 454 771 q 381 517 400 640 q 360 338 360 399 q 396 236 360 264 q 521 208 432 208 m 692 -283 q 499 -227 572 -283 q 426 -56 426 -171 l 592 -56 q 618 -103 594 -89 q 690 -117 642 -117 q 806 -103 747 -117 l 779 -278 q 692 -283 746 -283 z "},"R":{"ha":888,"x_min":81,"x_max":933,"o":"m 244 1031 l 643 1031 q 859 967 785 1031 q 933 767 933 904 q 925 676 933 726 q 853 496 907 553 q 732 407 800 439 l 851 0 l 607 0 l 513 368 l 379 368 l 321 0 l 81 0 l 244 1031 m 550 558 q 644 588 615 558 q 685 692 674 618 q 688 733 688 707 q 596 815 688 815 l 450 815 l 410 558 l 550 558 z "},"Ŕ":{"ha":888,"x_min":81,"x_max":933,"o":"m 244 1031 l 643 1031 q 859 967 785 1031 q 933 767 933 904 q 925 676 933 726 q 853 496 907 553 q 732 407 800 439 l 851 0 l 607 0 l 513 368 l 379 368 l 321 0 l 81 0 l 244 1031 m 550 558 q 644 588 615 558 q 685 692 674 618 q 688 733 688 707 q 596 815 688 815 l 450 815 l 410 558 l 550 558 m 625 1296 l 828 1296 l 654 1099 l 501 1099 l 625 1296 z "},"Ř":{"ha":888,"x_min":81,"x_max":933,"o":"m 244 1031 l 643 1031 q 859 967 785 1031 q 933 767 933 904 q 925 676 933 726 q 853 496 907 553 q 732 407 800 439 l 851 0 l 607 0 l 513 368 l 379 368 l 321 0 l 81 0 l 244 1031 m 550 558 q 644 588 615 558 q 685 692 674 618 q 688 733 688 707 q 596 815 688 815 l 450 815 l 410 558 l 550 558 m 419 1299 l 557 1299 l 621 1204 l 718 1299 l 858 1299 l 682 1099 l 519 1099 l 419 1299 z "},"Ŗ":{"ha":888,"x_min":81,"x_max":933,"o":"m 244 1031 l 643 1031 q 859 967 785 1031 q 933 767 933 904 q 925 676 933 726 q 853 496 907 553 q 732 407 800 439 l 851 0 l 607 0 l 513 368 l 379 368 l 321 0 l 81 0 l 244 1031 m 550 558 q 644 588 615 558 q 685 692 674 618 q 688 733 688 707 q 596 815 688 815 l 450 815 l 410 558 l 550 558 m 229 -208 l 268 -197 q 322 -169 307 -186 q 344 -106 338 -153 l 489 -106 q 428 -261 472 -215 q 292 -307 385 -307 l 214 -307 l 229 -208 z "},"Ȑ":{"ha":888,"x_min":81,"x_max":933,"o":"m 244 1031 l 643 1031 q 859 967 785 1031 q 933 767 933 904 q 925 676 933 726 q 853 496 907 553 q 732 407 800 439 l 851 0 l 607 0 l 513 368 l 379 368 l 321 0 l 81 0 l 244 1031 m 550 558 q 644 588 615 558 q 685 692 674 618 q 688 733 688 707 q 596 815 688 815 l 450 815 l 410 558 l 550 558 m 271 1296 l 463 1296 l 535 1099 l 393 1099 l 271 1296 m 535 1296 l 726 1296 l 799 1099 l 657 1099 l 535 1296 z "},"Ṛ":{"ha":888,"x_min":81,"x_max":933,"o":"m 244 1031 l 643 1031 q 859 967 785 1031 q 933 767 933 904 q 925 676 933 726 q 853 496 907 553 q 732 407 800 439 l 851 0 l 607 0 l 513 368 l 379 368 l 321 0 l 81 0 l 244 1031 m 550 558 q 644 588 615 558 q 685 692 674 618 q 688 733 688 707 q 596 815 688 815 l 450 815 l 410 558 l 550 558 m 339 -321 q 319 -314 326 -321 q 313 -296 313 -307 l 313 -290 l 336 -146 q 371 -112 340 -112 l 482 -112 q 508 -139 508 -112 l 508 -146 l 485 -290 q 450 -321 481 -321 l 339 -321 z "},"Ȓ":{"ha":888,"x_min":81,"x_max":933,"o":"m 244 1031 l 643 1031 q 859 967 785 1031 q 933 767 933 904 q 925 676 933 726 q 853 496 907 553 q 732 407 800 439 l 851 0 l 607 0 l 513 368 l 379 368 l 321 0 l 81 0 l 244 1031 m 550 558 q 644 588 615 558 q 685 692 674 618 q 688 733 688 707 q 596 815 688 815 l 450 815 l 410 558 l 550 558 m 392 1089 q 625 1303 426 1303 q 750 1263 707 1303 q 793 1146 793 1224 q 788 1089 793 1131 l 678 1089 q 681 1119 681 1111 q 660 1178 681 1160 q 608 1196 640 1196 q 506 1089 522 1196 l 392 1089 z "},"Ṟ":{"ha":888,"x_min":81,"x_max":933,"o":"m 244 1031 l 643 1031 q 859 967 785 1031 q 933 767 933 904 q 925 676 933 726 q 853 496 907 553 q 732 407 800 439 l 851 0 l 607 0 l 513 368 l 379 368 l 321 0 l 81 0 l 244 1031 m 550 558 q 644 588 615 558 q 685 692 674 618 q 688 733 688 707 q 596 815 688 815 l 450 815 l 410 558 l 550 558 m 211 -167 l 610 -167 l 588 -307 l 189 -307 l 211 -167 z "},"S":{"ha":799,"x_min":82,"x_max":879,"o":"m 428 -8 q 82 29 229 -8 l 111 219 q 422 207 238 207 q 544 224 507 207 q 588 290 581 242 l 592 315 q 593 338 593 324 q 569 384 593 371 q 488 397 544 397 l 419 397 q 231 461 300 397 q 163 629 163 525 q 167 688 163 657 l 179 768 q 299 976 203 913 q 561 1039 394 1039 q 879 1000 728 1039 l 850 811 q 531 822 717 822 q 442 804 474 822 q 404 740 411 786 l 400 715 q 397 689 397 696 q 417 640 397 656 q 478 624 436 624 l 551 624 q 756 561 683 624 q 828 396 828 499 q 824 342 828 371 l 808 244 q 754 102 794 157 q 635 19 714 47 q 428 -8 556 -8 z "},"Ś":{"ha":799,"x_min":82,"x_max":879,"o":"m 428 -8 q 82 29 229 -8 l 111 219 q 422 207 238 207 q 544 224 507 207 q 588 290 581 242 l 592 315 q 593 338 593 324 q 569 384 593 371 q 488 397 544 397 l 419 397 q 231 461 300 397 q 163 629 163 525 q 167 688 163 657 l 179 768 q 299 976 203 913 q 561 1039 394 1039 q 879 1000 728 1039 l 850 811 q 531 822 717 822 q 442 804 474 822 q 404 740 411 786 l 400 715 q 397 689 397 696 q 417 640 397 656 q 478 624 436 624 l 551 624 q 756 561 683 624 q 828 396 828 499 q 824 342 828 371 l 808 244 q 754 102 794 157 q 635 19 714 47 q 428 -8 556 -8 m 608 1296 l 811 1296 l 638 1099 l 485 1099 l 608 1296 z "},"Ṥ":{"ha":799,"x_min":82,"x_max":879,"o":"m 428 -8 q 82 29 229 -8 l 111 219 q 422 207 238 207 q 544 224 507 207 q 588 290 581 242 l 592 315 q 593 338 593 324 q 569 384 593 371 q 488 397 544 397 l 419 397 q 231 461 300 397 q 163 629 163 525 q 167 688 163 657 l 179 768 q 299 976 203 913 q 561 1039 394 1039 q 879 1000 728 1039 l 850 811 q 531 822 717 822 q 442 804 474 822 q 404 740 411 786 l 400 715 q 397 689 397 696 q 417 640 397 656 q 478 624 436 624 l 551 624 q 756 561 683 624 q 828 396 828 499 q 824 342 828 371 l 808 244 q 754 102 794 157 q 635 19 714 47 q 428 -8 556 -8 m 567 1296 l 769 1296 l 596 1099 l 443 1099 l 567 1296 m 590 1350 q 571 1357 578 1350 q 564 1375 564 1364 l 564 1381 l 588 1525 q 622 1558 592 1558 l 733 1558 q 760 1532 760 1558 l 760 1525 l 736 1381 q 701 1350 732 1350 l 590 1350 z "},"Š":{"ha":799,"x_min":82,"x_max":879,"o":"m 428 -8 q 82 29 229 -8 l 111 219 q 422 207 238 207 q 544 224 507 207 q 588 290 581 242 l 592 315 q 593 338 593 324 q 569 384 593 371 q 488 397 544 397 l 419 397 q 231 461 300 397 q 163 629 163 525 q 167 688 163 657 l 179 768 q 299 976 203 913 q 561 1039 394 1039 q 879 1000 728 1039 l 850 811 q 531 822 717 822 q 442 804 474 822 q 404 740 411 786 l 400 715 q 397 689 397 696 q 417 640 397 656 q 478 624 436 624 l 551 624 q 756 561 683 624 q 828 396 828 499 q 824 342 828 371 l 808 244 q 754 102 794 157 q 635 19 714 47 q 428 -8 556 -8 m 403 1299 l 540 1299 l 604 1204 l 701 1299 l 842 1299 l 665 1099 l 503 1099 l 403 1299 z "},"Ṧ":{"ha":799,"x_min":82,"x_max":879,"o":"m 428 -8 q 82 29 229 -8 l 111 219 q 422 207 238 207 q 544 224 507 207 q 588 290 581 242 l 592 315 q 593 338 593 324 q 569 384 593 371 q 488 397 544 397 l 419 397 q 231 461 300 397 q 163 629 163 525 q 167 688 163 657 l 179 768 q 299 976 203 913 q 561 1039 394 1039 q 879 1000 728 1039 l 850 811 q 531 822 717 822 q 442 804 474 822 q 404 740 411 786 l 400 715 q 397 689 397 696 q 417 640 397 656 q 478 624 436 624 l 551 624 q 756 561 683 624 q 828 396 828 499 q 824 342 828 371 l 808 244 q 754 102 794 157 q 635 19 714 47 q 428 -8 556 -8 m 403 1299 l 540 1299 l 604 1204 l 701 1299 l 842 1299 l 665 1099 l 503 1099 l 403 1299 m 563 1351 q 543 1358 550 1351 q 536 1376 536 1365 l 536 1382 l 560 1526 q 594 1560 564 1560 l 706 1560 q 732 1533 732 1560 l 732 1526 l 708 1382 q 674 1351 704 1351 l 563 1351 z "},"Ş":{"ha":799,"x_min":82,"x_max":879,"o":"m 400 715 q 397 689 397 696 q 417 640 397 656 q 478 624 436 624 l 551 624 q 756 561 683 624 q 828 396 828 499 q 824 342 828 371 l 808 244 q 754 102 794 157 q 635 19 714 47 q 431 -8 557 -8 l 383 -69 q 438 -97 417 -75 q 460 -157 460 -118 q 416 -245 460 -210 q 288 -281 372 -281 l 211 -281 l 226 -182 l 250 -178 q 293 -159 279 -174 q 307 -128 307 -144 q 261 -89 307 -99 l 326 -6 q 82 29 190 1 l 111 219 q 422 207 238 207 q 544 224 507 207 q 588 290 581 242 l 592 315 q 593 338 593 324 q 569 384 593 371 q 488 397 544 397 l 419 397 q 231 461 300 397 q 163 629 163 525 q 167 688 163 657 l 179 768 q 299 976 203 913 q 561 1039 394 1039 q 879 1000 728 1039 l 850 811 q 531 822 717 822 q 442 804 474 822 q 404 740 411 786 l 400 715 z "},"Ŝ":{"ha":799,"x_min":82,"x_max":879,"o":"m 428 -8 q 82 29 229 -8 l 111 219 q 422 207 238 207 q 544 224 507 207 q 588 290 581 242 l 592 315 q 593 338 593 324 q 569 384 593 371 q 488 397 544 397 l 419 397 q 231 461 300 397 q 163 629 163 525 q 167 688 163 657 l 179 768 q 299 976 203 913 q 561 1039 394 1039 q 879 1000 728 1039 l 850 811 q 531 822 717 822 q 442 804 474 822 q 404 740 411 786 l 400 715 q 397 689 397 696 q 417 640 397 656 q 478 624 436 624 l 551 624 q 756 561 683 624 q 828 396 828 499 q 824 342 828 371 l 808 244 q 754 102 794 157 q 635 19 714 47 q 428 -8 556 -8 m 511 1299 l 674 1299 l 774 1099 l 635 1099 l 572 1193 l 474 1099 l 335 1099 l 511 1299 z "},"Ș":{"ha":799,"x_min":82,"x_max":879,"o":"m 428 -8 q 82 29 229 -8 l 111 219 q 422 207 238 207 q 544 224 507 207 q 588 290 581 242 l 592 315 q 593 338 593 324 q 569 384 593 371 q 488 397 544 397 l 419 397 q 231 461 300 397 q 163 629 163 525 q 167 688 163 657 l 179 768 q 299 976 203 913 q 561 1039 394 1039 q 879 1000 728 1039 l 850 811 q 531 822 717 822 q 442 804 474 822 q 404 740 411 786 l 400 715 q 397 689 397 696 q 417 640 397 656 q 478 624 436 624 l 551 624 q 756 561 683 624 q 828 396 828 499 q 824 342 828 371 l 808 244 q 754 102 794 157 q 635 19 714 47 q 428 -8 556 -8 m 210 -208 l 249 -197 q 303 -169 288 -186 q 325 -106 318 -153 l 469 -106 q 409 -261 453 -215 q 272 -307 365 -307 l 194 -307 l 210 -208 z "},"Ṡ":{"ha":799,"x_min":82,"x_max":879,"o":"m 428 -8 q 82 29 229 -8 l 111 219 q 422 207 238 207 q 544 224 507 207 q 588 290 581 242 l 592 315 q 593 338 593 324 q 569 384 593 371 q 488 397 544 397 l 419 397 q 231 461 300 397 q 163 629 163 525 q 167 688 163 657 l 179 768 q 299 976 203 913 q 561 1039 394 1039 q 879 1000 728 1039 l 850 811 q 531 822 717 822 q 442 804 474 822 q 404 740 411 786 l 400 715 q 397 689 397 696 q 417 640 397 656 q 478 624 436 624 l 551 624 q 756 561 683 624 q 828 396 828 499 q 824 342 828 371 l 808 244 q 754 102 794 157 q 635 19 714 47 q 428 -8 556 -8 m 510 1110 q 490 1117 497 1110 q 483 1135 483 1124 l 483 1140 l 507 1285 q 542 1318 511 1318 l 653 1318 q 679 1292 679 1318 l 679 1285 l 656 1140 q 621 1110 651 1110 l 510 1110 z "},"Ṣ":{"ha":799,"x_min":82,"x_max":879,"o":"m 428 -8 q 82 29 229 -8 l 111 219 q 422 207 238 207 q 544 224 507 207 q 588 290 581 242 l 592 315 q 593 338 593 324 q 569 384 593 371 q 488 397 544 397 l 419 397 q 231 461 300 397 q 163 629 163 525 q 167 688 163 657 l 179 768 q 299 976 203 913 q 561 1039 394 1039 q 879 1000 728 1039 l 850 811 q 531 822 717 822 q 442 804 474 822 q 404 740 411 786 l 400 715 q 397 689 397 696 q 417 640 397 656 q 478 624 436 624 l 551 624 q 756 561 683 624 q 828 396 828 499 q 824 342 828 371 l 808 244 q 754 102 794 157 q 635 19 714 47 q 428 -8 556 -8 m 279 -321 q 260 -314 267 -321 q 253 -296 253 -307 l 253 -290 l 276 -146 q 311 -112 281 -112 l 422 -112 q 449 -139 449 -112 l 449 -146 l 425 -290 q 390 -321 421 -321 l 279 -321 z "},"Ṩ":{"ha":799,"x_min":82,"x_max":879,"o":"m 428 -8 q 82 29 229 -8 l 111 219 q 422 207 238 207 q 544 224 507 207 q 588 290 581 242 l 592 315 q 593 338 593 324 q 569 384 593 371 q 488 397 544 397 l 419 397 q 231 461 300 397 q 163 629 163 525 q 167 688 163 657 l 179 768 q 299 976 203 913 q 561 1039 394 1039 q 879 1000 728 1039 l 850 811 q 531 822 717 822 q 442 804 474 822 q 404 740 411 786 l 400 715 q 397 689 397 696 q 417 640 397 656 q 478 624 436 624 l 551 624 q 756 561 683 624 q 828 396 828 499 q 824 342 828 371 l 808 244 q 754 102 794 157 q 635 19 714 47 q 428 -8 556 -8 m 279 -321 q 260 -314 267 -321 q 253 -296 253 -307 l 253 -290 l 276 -146 q 311 -112 281 -112 l 422 -112 q 449 -139 449 -112 l 449 -146 l 425 -290 q 390 -321 421 -321 l 279 -321 m 510 1110 q 490 1117 497 1110 q 483 1135 483 1124 l 483 1140 l 507 1285 q 542 1318 511 1318 l 653 1318 q 679 1292 679 1318 l 679 1285 l 656 1140 q 621 1110 651 1110 l 510 1110 z "},"ẞ":{"ha":1029,"x_min":82,"x_max":1047,"o":"m 969 769 l 799 581 q 970 526 907 575 q 1033 381 1033 476 q 1018 264 1033 351 q 947 96 997 156 q 823 14 897 36 q 639 -8 749 -8 q 524 -1 588 -8 q 415 19 460 7 l 449 233 q 638 207 560 207 q 737 226 703 207 q 779 292 771 244 q 783 329 783 325 q 763 375 783 360 q 696 390 742 390 l 514 390 l 543 582 l 668 582 l 592 639 l 749 815 l 538 815 q 469 794 494 815 q 439 739 444 774 l 322 0 l 82 0 l 199 735 q 322 959 222 888 q 563 1031 421 1031 q 992 1017 753 1031 l 1047 1014 l 1044 1010 l 1046 1011 l 969 769 z "},"Ə":{"ha":885,"x_min":114,"x_max":929,"o":"m 433 -8 q 114 313 114 -8 q 126 453 114 375 l 150 603 l 685 603 q 690 665 690 650 q 635 790 690 754 q 465 825 581 825 q 232 811 347 825 l 263 997 q 558 1040 386 1040 q 833 965 738 1040 q 929 697 929 889 q 913 514 929 618 q 813 194 881 308 q 651 35 744 79 q 433 -8 558 -8 m 464 207 q 579 252 532 207 q 651 413 626 297 l 364 413 q 356 333 356 367 q 380 239 356 271 q 464 207 404 207 z "},"T":{"ha":849,"x_min":158,"x_max":968,"o":"m 426 815 l 158 815 l 193 1031 l 968 1031 l 933 815 l 667 815 l 538 0 l 297 0 l 426 815 z "},"Ŧ":{"ha":833,"x_min":142,"x_max":968,"o":"m 667 815 l 631 589 l 860 589 l 842 471 l 613 471 l 538 0 l 297 0 l 372 471 l 142 471 l 161 589 l 390 589 l 426 815 l 158 815 l 193 1031 l 968 1031 l 933 815 l 667 815 z "},"Ť":{"ha":849,"x_min":158,"x_max":968,"o":"m 426 815 l 158 815 l 193 1031 l 968 1031 l 933 815 l 667 815 l 538 0 l 297 0 l 426 815 m 425 1299 l 563 1299 l 626 1204 l 724 1299 l 864 1299 l 688 1099 l 525 1099 l 425 1299 z "},"Ţ":{"ha":849,"x_min":158,"x_max":968,"o":"m 968 1031 l 933 815 l 667 815 l 538 0 l 460 0 l 406 -69 q 460 -97 439 -75 q 482 -157 482 -118 q 438 -245 482 -210 q 310 -281 394 -281 l 233 -281 l 249 -182 l 272 -178 q 315 -159 301 -174 q 329 -128 329 -144 q 283 -89 329 -99 l 353 0 l 297 0 l 426 815 l 158 815 l 193 1031 l 968 1031 z "},"Ț":{"ha":849,"x_min":158,"x_max":968,"o":"m 426 815 l 158 815 l 193 1031 l 968 1031 l 933 815 l 667 815 l 538 0 l 297 0 l 426 815 m 232 -208 l 271 -197 q 325 -169 310 -186 q 347 -106 340 -153 l 492 -106 q 431 -261 475 -215 q 294 -307 388 -307 l 217 -307 l 232 -208 z "},"Ṫ":{"ha":849,"x_min":158,"x_max":968,"o":"m 426 815 l 158 815 l 193 1031 l 968 1031 l 933 815 l 667 815 l 538 0 l 297 0 l 426 815 m 532 1110 q 513 1117 519 1110 q 506 1135 506 1124 l 506 1140 l 529 1285 q 564 1318 533 1318 l 675 1318 q 701 1292 701 1318 l 701 1285 l 678 1140 q 643 1110 674 1110 l 532 1110 z "},"Ṭ":{"ha":849,"x_min":158,"x_max":968,"o":"m 426 815 l 158 815 l 193 1031 l 968 1031 l 933 815 l 667 815 l 538 0 l 297 0 l 426 815 m 301 -321 q 282 -314 289 -321 q 275 -296 275 -307 l 275 -290 l 299 -146 q 333 -112 303 -112 l 444 -112 q 471 -139 471 -112 l 471 -146 l 447 -290 q 413 -321 443 -321 l 301 -321 z "},"Ṯ":{"ha":849,"x_min":154,"x_max":968,"o":"m 426 815 l 158 815 l 193 1031 l 968 1031 l 933 815 l 667 815 l 538 0 l 297 0 l 426 815 m 176 -167 l 575 -167 l 553 -307 l 154 -307 l 176 -167 z "},"U":{"ha":961,"x_min":139,"x_max":1044,"o":"m 483 -8 q 224 67 310 -8 q 139 310 139 143 q 157 481 139 367 l 244 1031 l 485 1031 l 392 444 q 378 331 378 358 q 410 237 378 267 q 517 207 443 207 q 612 226 575 207 q 673 297 649 246 q 713 444 697 349 l 804 1031 l 1044 1031 l 946 408 q 860 146 918 236 q 713 24 801 56 q 483 -8 624 -8 z "},"Ú":{"ha":961,"x_min":139,"x_max":1044,"o":"m 483 -8 q 224 67 310 -8 q 139 310 139 143 q 157 481 139 367 l 244 1031 l 485 1031 l 392 444 q 378 331 378 358 q 410 237 378 267 q 517 207 443 207 q 612 226 575 207 q 673 297 649 246 q 713 444 697 349 l 804 1031 l 1044 1031 l 946 408 q 860 146 918 236 q 713 24 801 56 q 483 -8 624 -8 m 686 1296 l 889 1296 l 715 1099 l 563 1099 l 686 1296 z "},"Ŭ":{"ha":961,"x_min":139,"x_max":1044,"o":"m 483 -8 q 224 67 310 -8 q 139 310 139 143 q 157 481 139 367 l 244 1031 l 485 1031 l 392 444 q 378 331 378 358 q 410 237 378 267 q 517 207 443 207 q 612 226 575 207 q 673 297 649 246 q 713 444 697 349 l 804 1031 l 1044 1031 l 946 408 q 860 146 918 236 q 713 24 801 56 q 483 -8 624 -8 m 640 1086 q 515 1126 558 1086 q 472 1243 472 1165 q 478 1300 472 1258 l 588 1300 q 585 1271 585 1278 q 605 1213 585 1231 q 657 1194 625 1194 q 760 1300 743 1194 l 874 1300 q 640 1086 839 1086 z "},"Û":{"ha":961,"x_min":139,"x_max":1044,"o":"m 483 -8 q 224 67 310 -8 q 139 310 139 143 q 157 481 139 367 l 244 1031 l 485 1031 l 392 444 q 378 331 378 358 q 410 237 378 267 q 517 207 443 207 q 612 226 575 207 q 673 297 649 246 q 713 444 697 349 l 804 1031 l 1044 1031 l 946 408 q 860 146 918 236 q 713 24 801 56 q 483 -8 624 -8 m 589 1299 l 751 1299 l 851 1099 l 713 1099 l 650 1193 l 551 1099 l 413 1099 l 589 1299 z "},"Ȕ":{"ha":961,"x_min":139,"x_max":1044,"o":"m 483 -8 q 224 67 310 -8 q 139 310 139 143 q 157 481 139 367 l 244 1031 l 485 1031 l 392 444 q 378 331 378 358 q 410 237 378 267 q 517 207 443 207 q 612 226 575 207 q 673 297 649 246 q 713 444 697 349 l 804 1031 l 1044 1031 l 946 408 q 860 146 918 236 q 713 24 801 56 q 483 -8 624 -8 m 332 1296 l 524 1296 l 596 1099 l 454 1099 l 332 1296 m 596 1296 l 788 1296 l 860 1099 l 718 1099 l 596 1296 z "},"Ü":{"ha":961,"x_min":139,"x_max":1044,"o":"m 483 -8 q 224 67 310 -8 q 139 310 139 143 q 157 481 139 367 l 244 1031 l 485 1031 l 392 444 q 378 331 378 358 q 410 237 378 267 q 517 207 443 207 q 612 226 575 207 q 673 297 649 246 q 713 444 697 349 l 804 1031 l 1044 1031 l 946 408 q 860 146 918 236 q 713 24 801 56 q 483 -8 624 -8 m 447 1100 q 428 1107 435 1100 q 421 1125 421 1114 l 446 1275 q 479 1308 450 1308 l 592 1308 q 617 1282 617 1308 l 593 1131 q 558 1100 589 1100 l 447 1100 m 722 1100 q 703 1107 711 1100 q 696 1125 696 1114 l 721 1275 q 756 1308 725 1308 l 867 1308 q 893 1282 893 1308 l 869 1131 q 858 1108 868 1115 q 833 1100 847 1100 l 722 1100 z "},"Ụ":{"ha":961,"x_min":139,"x_max":1044,"o":"m 483 -8 q 224 67 310 -8 q 139 310 139 143 q 157 481 139 367 l 244 1031 l 485 1031 l 392 444 q 378 331 378 358 q 410 237 378 267 q 517 207 443 207 q 612 226 575 207 q 673 297 649 246 q 713 444 697 349 l 804 1031 l 1044 1031 l 946 408 q 860 146 918 236 q 713 24 801 56 q 483 -8 624 -8 m 357 -321 q 338 -314 344 -321 q 331 -296 331 -307 l 331 -290 l 354 -146 q 389 -112 358 -112 l 500 -112 q 526 -139 526 -112 l 526 -146 l 503 -290 q 468 -321 499 -321 l 357 -321 z "},"Ù":{"ha":961,"x_min":139,"x_max":1044,"o":"m 483 -8 q 224 67 310 -8 q 139 310 139 143 q 157 481 139 367 l 244 1031 l 485 1031 l 392 444 q 378 331 378 358 q 410 237 378 267 q 517 207 443 207 q 612 226 575 207 q 673 297 649 246 q 713 444 697 349 l 804 1031 l 1044 1031 l 946 408 q 860 146 918 236 q 713 24 801 56 q 483 -8 624 -8 m 479 1296 l 671 1296 l 743 1099 l 601 1099 l 479 1296 z "},"Ủ":{"ha":961,"x_min":139,"x_max":1044,"o":"m 483 -8 q 224 67 310 -8 q 139 310 139 143 q 157 481 139 367 l 244 1031 l 485 1031 l 392 444 q 378 331 378 358 q 410 237 378 267 q 517 207 443 207 q 612 226 575 207 q 673 297 649 246 q 713 444 697 349 l 804 1031 l 1044 1031 l 946 408 q 860 146 918 236 q 713 24 801 56 q 483 -8 624 -8 m 631 1161 q 686 1214 686 1176 q 651 1238 686 1238 q 607 1229 638 1238 l 621 1322 q 700 1333 657 1333 q 814 1235 814 1333 q 615 1057 814 1111 l 631 1161 z "},"Ư":{"ha":957,"x_min":139,"x_max":1182,"o":"m 1182 1182 q 1127 1021 1167 1086 q 1028 926 1088 956 l 946 408 q 860 146 918 236 q 713 24 801 56 q 483 -8 624 -8 q 224 67 310 -8 q 139 310 139 143 q 157 481 139 367 l 244 1031 l 485 1031 l 392 444 q 378 331 378 358 q 410 237 378 267 q 517 207 443 207 q 612 226 575 207 q 673 297 649 246 q 713 444 697 349 l 804 1031 l 897 1031 q 976 1065 946 1031 q 1018 1182 1006 1100 l 1182 1182 z "},"Ứ":{"ha":957,"x_min":139,"x_max":1182,"o":"m 1182 1182 q 1127 1021 1167 1086 q 1028 926 1088 956 l 946 408 q 860 146 918 236 q 713 24 801 56 q 483 -8 624 -8 q 224 67 310 -8 q 139 310 139 143 q 157 481 139 367 l 244 1031 l 485 1031 l 392 444 q 378 331 378 358 q 410 237 378 267 q 517 207 443 207 q 612 226 575 207 q 673 297 649 246 q 713 444 697 349 l 804 1031 l 897 1031 q 976 1065 946 1031 q 1018 1182 1006 1100 l 1182 1182 m 668 1296 l 871 1296 l 697 1099 l 544 1099 l 668 1296 z "},"Ự":{"ha":957,"x_min":139,"x_max":1182,"o":"m 1182 1182 q 1127 1021 1167 1086 q 1028 926 1088 956 l 946 408 q 860 146 918 236 q 713 24 801 56 q 483 -8 624 -8 q 224 67 310 -8 q 139 310 139 143 q 157 481 139 367 l 244 1031 l 485 1031 l 392 444 q 378 331 378 358 q 410 237 378 267 q 517 207 443 207 q 612 226 575 207 q 673 297 649 246 q 713 444 697 349 l 804 1031 l 897 1031 q 976 1065 946 1031 q 1018 1182 1006 1100 l 1182 1182 m 390 -321 q 371 -314 378 -321 q 364 -296 364 -307 l 364 -290 l 388 -146 q 422 -112 392 -112 l 533 -112 q 560 -139 560 -112 l 560 -146 l 536 -290 q 501 -321 532 -321 l 390 -321 z "},"Ừ":{"ha":957,"x_min":139,"x_max":1182,"o":"m 1182 1182 q 1127 1021 1167 1086 q 1028 926 1088 956 l 946 408 q 860 146 918 236 q 713 24 801 56 q 483 -8 624 -8 q 224 67 310 -8 q 139 310 139 143 q 157 481 139 367 l 244 1031 l 485 1031 l 392 444 q 378 331 378 358 q 410 237 378 267 q 517 207 443 207 q 612 226 575 207 q 673 297 649 246 q 713 444 697 349 l 804 1031 l 897 1031 q 976 1065 946 1031 q 1018 1182 1006 1100 l 1182 1182 m 461 1296 l 653 1296 l 725 1099 l 583 1099 l 461 1296 z "},"Ử":{"ha":957,"x_min":139,"x_max":1182,"o":"m 1182 1182 q 1127 1021 1167 1086 q 1028 926 1088 956 l 946 408 q 860 146 918 236 q 713 24 801 56 q 483 -8 624 -8 q 224 67 310 -8 q 139 310 139 143 q 157 481 139 367 l 244 1031 l 485 1031 l 392 444 q 378 331 378 358 q 410 237 378 267 q 517 207 443 207 q 612 226 575 207 q 673 297 649 246 q 713 444 697 349 l 804 1031 l 897 1031 q 976 1065 946 1031 q 1018 1182 1006 1100 l 1182 1182 m 613 1161 q 668 1214 668 1176 q 633 1238 668 1238 q 589 1229 619 1238 l 603 1322 q 682 1333 639 1333 q 796 1235 796 1333 q 597 1057 796 1111 l 613 1161 z "},"Ữ":{"ha":957,"x_min":139,"x_max":1182,"o":"m 1182 1182 q 1127 1021 1167 1086 q 1028 926 1088 956 l 946 408 q 860 146 918 236 q 713 24 801 56 q 483 -8 624 -8 q 224 67 310 -8 q 139 310 139 143 q 157 481 139 367 l 244 1031 l 485 1031 l 392 444 q 378 331 378 358 q 410 237 378 267 q 517 207 443 207 q 612 226 575 207 q 673 297 649 246 q 713 444 697 349 l 804 1031 l 897 1031 q 976 1065 946 1031 q 1018 1182 1006 1100 l 1182 1182 m 367 1097 q 546 1279 411 1279 q 605 1272 578 1279 q 665 1250 632 1264 q 704 1237 685 1243 q 739 1231 724 1231 q 796 1288 788 1231 l 915 1288 q 847 1143 889 1188 q 739 1099 806 1099 q 684 1106 710 1099 q 614 1128 658 1113 q 544 1147 565 1147 q 507 1133 522 1147 q 486 1097 492 1118 l 367 1097 z "},"Ű":{"ha":961,"x_min":139,"x_max":1044,"o":"m 483 -8 q 224 67 310 -8 q 139 310 139 143 q 157 481 139 367 l 244 1031 l 485 1031 l 392 444 q 378 331 378 358 q 410 237 378 267 q 517 207 443 207 q 612 226 575 207 q 673 297 649 246 q 713 444 697 349 l 804 1031 l 1044 1031 l 946 408 q 860 146 918 236 q 713 24 801 56 q 483 -8 624 -8 m 563 1296 l 742 1296 l 581 1099 l 439 1099 l 563 1296 m 796 1296 l 976 1296 l 814 1099 l 674 1099 l 796 1296 z "},"Ȗ":{"ha":961,"x_min":139,"x_max":1044,"o":"m 483 -8 q 224 67 310 -8 q 139 310 139 143 q 157 481 139 367 l 244 1031 l 485 1031 l 392 444 q 378 331 378 358 q 410 237 378 267 q 517 207 443 207 q 612 226 575 207 q 673 297 649 246 q 713 444 697 349 l 804 1031 l 1044 1031 l 946 408 q 860 146 918 236 q 713 24 801 56 q 483 -8 624 -8 m 453 1089 q 686 1303 488 1303 q 811 1263 768 1303 q 854 1146 854 1224 q 849 1089 854 1131 l 739 1089 q 742 1119 742 1111 q 722 1178 742 1160 q 669 1196 701 1196 q 567 1089 583 1196 l 453 1089 z "},"Ū":{"ha":961,"x_min":139,"x_max":1044,"o":"m 483 -8 q 224 67 310 -8 q 139 310 139 143 q 157 481 139 367 l 244 1031 l 485 1031 l 392 444 q 378 331 378 358 q 410 237 378 267 q 517 207 443 207 q 612 226 575 207 q 673 297 649 246 q 713 444 697 349 l 804 1031 l 1044 1031 l 946 408 q 860 146 918 236 q 713 24 801 56 q 483 -8 624 -8 m 468 1250 l 867 1250 l 844 1110 l 446 1110 l 468 1250 z "},"Ṻ":{"ha":961,"x_min":139,"x_max":1044,"o":"m 483 -8 q 224 67 310 -8 q 139 310 139 143 q 157 481 139 367 l 244 1031 l 485 1031 l 392 444 q 378 331 378 358 q 410 237 378 267 q 517 207 443 207 q 612 226 575 207 q 673 297 649 246 q 713 444 697 349 l 804 1031 l 1044 1031 l 946 408 q 860 146 918 236 q 713 24 801 56 q 483 -8 624 -8 m 468 1250 l 867 1250 l 844 1110 l 446 1110 l 468 1250 m 481 1317 q 461 1324 468 1317 q 454 1342 454 1331 l 479 1492 q 513 1525 483 1525 l 625 1525 q 650 1499 650 1525 l 626 1347 q 592 1317 622 1317 l 481 1317 m 756 1317 q 737 1324 744 1317 q 729 1342 729 1331 l 754 1492 q 789 1525 758 1525 l 900 1525 q 926 1499 926 1525 l 903 1347 q 891 1324 901 1332 q 867 1317 881 1317 l 756 1317 z "},"Ų":{"ha":961,"x_min":139,"x_max":1044,"o":"m 1044 1031 l 946 408 q 881 181 924 267 q 774 54 838 96 q 617 0 710 13 q 560 -51 578 -24 q 542 -99 542 -78 q 558 -137 542 -124 q 601 -151 575 -151 l 614 -151 l 597 -264 q 549 -269 585 -269 q 449 -240 481 -269 q 418 -165 418 -210 q 444 -75 418 -115 q 517 -8 471 -35 l 483 -8 q 224 67 310 -8 q 139 310 139 143 q 157 481 139 367 l 244 1031 l 485 1031 l 392 444 q 378 331 378 358 q 410 237 378 267 q 517 207 443 207 q 612 226 575 207 q 673 297 649 246 q 713 444 697 349 l 804 1031 l 1044 1031 z "},"Ů":{"ha":961,"x_min":139,"x_max":1044,"o":"m 483 -8 q 224 67 310 -8 q 139 310 139 143 q 157 481 139 367 l 244 1031 l 485 1031 l 392 444 q 378 331 378 358 q 410 237 378 267 q 517 207 443 207 q 612 226 575 207 q 673 297 649 246 q 713 444 697 349 l 804 1031 l 1044 1031 l 946 408 q 860 146 918 236 q 713 24 801 56 q 483 -8 624 -8 m 647 1060 q 526 1092 567 1060 q 486 1199 486 1124 q 540 1328 486 1276 q 689 1381 594 1381 q 809 1348 769 1381 q 849 1240 849 1315 q 796 1110 849 1161 q 647 1060 743 1060 m 658 1146 q 717 1172 697 1146 q 738 1238 738 1199 q 679 1293 738 1293 q 618 1267 639 1293 q 597 1203 597 1240 q 658 1146 597 1146 z "},"Ũ":{"ha":961,"x_min":139,"x_max":1044,"o":"m 483 -8 q 224 67 310 -8 q 139 310 139 143 q 157 481 139 367 l 244 1031 l 485 1031 l 392 444 q 378 331 378 358 q 410 237 378 267 q 517 207 443 207 q 612 226 575 207 q 673 297 649 246 q 713 444 697 349 l 804 1031 l 1044 1031 l 946 408 q 860 146 918 236 q 713 24 801 56 q 483 -8 624 -8 m 385 1097 q 564 1279 429 1279 q 623 1272 596 1279 q 683 1250 650 1264 q 722 1237 703 1243 q 757 1231 742 1231 q 814 1288 806 1231 l 933 1288 q 865 1143 907 1188 q 757 1099 824 1099 q 702 1106 728 1099 q 632 1128 676 1113 q 563 1147 583 1147 q 525 1133 540 1147 q 504 1097 510 1118 l 385 1097 z "},"Ṹ":{"ha":961,"x_min":139,"x_max":1044,"o":"m 483 -8 q 224 67 310 -8 q 139 310 139 143 q 157 481 139 367 l 244 1031 l 485 1031 l 392 444 q 378 331 378 358 q 410 237 378 267 q 517 207 443 207 q 612 226 575 207 q 673 297 649 246 q 713 444 697 349 l 804 1031 l 1044 1031 l 946 408 q 860 146 918 236 q 713 24 801 56 q 483 -8 624 -8 m 385 1097 q 564 1279 429 1279 q 623 1272 596 1279 q 683 1250 650 1264 q 722 1237 703 1243 q 757 1231 742 1231 q 814 1288 806 1231 l 933 1288 q 865 1143 907 1188 q 757 1099 824 1099 q 702 1106 728 1099 q 632 1128 676 1113 q 563 1147 583 1147 q 525 1133 540 1147 q 504 1097 510 1118 l 385 1097 m 728 1543 l 931 1543 l 757 1346 l 604 1346 l 728 1543 z "},"V":{"ha":978,"x_min":189,"x_max":1117,"o":"m 189 1031 l 438 1031 l 529 261 l 869 1031 l 1117 1031 l 638 0 l 338 0 l 189 1031 z "},"W":{"ha":1446,"x_min":190,"x_max":1536,"o":"m 190 1031 l 439 1031 l 482 358 l 754 1031 l 972 1031 l 1028 358 l 1288 1031 l 1536 1031 l 1124 0 l 882 0 l 807 674 l 515 0 l 274 0 l 190 1031 z "},"Ẃ":{"ha":1446,"x_min":190,"x_max":1536,"o":"m 190 1031 l 439 1031 l 482 358 l 754 1031 l 972 1031 l 1028 358 l 1288 1031 l 1536 1031 l 1124 0 l 882 0 l 807 674 l 515 0 l 274 0 l 190 1031 m 931 1296 l 1133 1296 l 960 1099 l 807 1099 l 931 1296 z "},"Ŵ":{"ha":1446,"x_min":190,"x_max":1536,"o":"m 190 1031 l 439 1031 l 482 358 l 754 1031 l 972 1031 l 1028 358 l 1288 1031 l 1536 1031 l 1124 0 l 882 0 l 807 674 l 515 0 l 274 0 l 190 1031 m 833 1299 l 996 1299 l 1096 1099 l 957 1099 l 894 1193 l 796 1099 l 657 1099 l 833 1299 z "},"Ẅ":{"ha":1446,"x_min":190,"x_max":1536,"o":"m 190 1031 l 439 1031 l 482 358 l 754 1031 l 972 1031 l 1028 358 l 1288 1031 l 1536 1031 l 1124 0 l 882 0 l 807 674 l 515 0 l 274 0 l 190 1031 m 692 1100 q 672 1107 679 1100 q 665 1125 665 1114 l 690 1275 q 724 1308 694 1308 l 836 1308 q 861 1282 861 1308 l 838 1131 q 803 1100 833 1100 l 692 1100 m 967 1100 q 948 1107 956 1100 q 940 1125 940 1114 l 965 1275 q 1000 1308 969 1308 l 1111 1308 q 1138 1282 1138 1308 l 1114 1131 q 1102 1108 1113 1115 q 1078 1100 1092 1100 l 967 1100 z "},"Ẁ":{"ha":1446,"x_min":190,"x_max":1536,"o":"m 190 1031 l 439 1031 l 482 358 l 754 1031 l 972 1031 l 1028 358 l 1288 1031 l 1536 1031 l 1124 0 l 882 0 l 807 674 l 515 0 l 274 0 l 190 1031 m 724 1296 l 915 1296 l 988 1099 l 846 1099 l 724 1296 z "},"X":{"ha":928,"x_min":18,"x_max":1090,"o":"m 683 501 l 919 0 l 660 0 l 513 319 l 283 0 l 18 0 l 418 522 l 176 1031 l 438 1031 l 589 701 l 825 1031 l 1090 1031 l 683 501 z "},"Y":{"ha":904,"x_min":181,"x_max":1051,"o":"m 369 289 l 181 1031 l 442 1031 l 529 547 l 779 1031 l 1051 1031 l 610 289 l 564 0 l 324 0 l 369 289 z "},"Ý":{"ha":904,"x_min":181,"x_max":1051,"o":"m 369 289 l 181 1031 l 442 1031 l 529 547 l 779 1031 l 1051 1031 l 610 289 l 564 0 l 324 0 l 369 289 m 664 1296 l 867 1296 l 693 1099 l 540 1099 l 664 1296 z "},"Ŷ":{"ha":904,"x_min":181,"x_max":1051,"o":"m 369 289 l 181 1031 l 442 1031 l 529 547 l 779 1031 l 1051 1031 l 610 289 l 564 0 l 324 0 l 369 289 m 567 1299 l 729 1299 l 829 1099 l 690 1099 l 628 1193 l 529 1099 l 390 1099 l 567 1299 z "},"Ÿ":{"ha":904,"x_min":181,"x_max":1051,"o":"m 369 289 l 181 1031 l 442 1031 l 529 547 l 779 1031 l 1051 1031 l 610 289 l 564 0 l 324 0 l 369 289 m 425 1100 q 406 1107 413 1100 q 399 1125 399 1114 l 424 1275 q 457 1308 428 1308 l 569 1308 q 594 1282 594 1308 l 571 1131 q 536 1100 567 1100 l 425 1100 m 700 1100 q 681 1107 689 1100 q 674 1125 674 1114 l 699 1275 q 733 1308 703 1308 l 844 1308 q 871 1282 871 1308 l 847 1131 q 835 1108 846 1115 q 811 1100 825 1100 l 700 1100 z "},"Ẏ":{"ha":904,"x_min":181,"x_max":1051,"o":"m 369 289 l 181 1031 l 442 1031 l 529 547 l 779 1031 l 1051 1031 l 610 289 l 564 0 l 324 0 l 369 289 m 335 -321 q 315 -314 322 -321 q 308 -296 308 -307 l 308 -290 l 332 -146 q 367 -112 336 -112 l 478 -112 q 504 -139 504 -112 l 504 -146 l 481 -290 q 446 -321 476 -321 l 335 -321 z "},"Ỵ":{"ha":904,"x_min":181,"x_max":1051,"o":"m 369 289 l 181 1031 l 442 1031 l 529 547 l 779 1031 l 1051 1031 l 610 289 l 564 0 l 324 0 l 369 289 m 335 -321 q 315 -314 322 -321 q 308 -296 308 -307 l 308 -290 l 332 -146 q 367 -112 336 -112 l 478 -112 q 504 -139 504 -112 l 504 -146 l 481 -290 q 446 -321 476 -321 l 335 -321 z "},"Ỳ":{"ha":904,"x_min":181,"x_max":1051,"o":"m 369 289 l 181 1031 l 442 1031 l 529 547 l 779 1031 l 1051 1031 l 610 289 l 564 0 l 324 0 l 369 289 m 457 1296 l 649 1296 l 721 1099 l 579 1099 l 457 1296 z "},"Ỷ":{"ha":904,"x_min":181,"x_max":1051,"o":"m 369 289 l 181 1031 l 442 1031 l 529 547 l 779 1031 l 1051 1031 l 610 289 l 564 0 l 324 0 l 369 289 m 608 1161 q 664 1214 664 1176 q 629 1238 664 1238 q 585 1229 615 1238 l 599 1322 q 678 1333 635 1333 q 792 1235 792 1333 q 593 1057 792 1111 l 608 1161 z "},"Ȳ":{"ha":904,"x_min":181,"x_max":1051,"o":"m 369 289 l 181 1031 l 442 1031 l 529 547 l 779 1031 l 1051 1031 l 610 289 l 564 0 l 324 0 l 369 289 m 446 1250 l 844 1250 l 822 1110 l 424 1110 l 446 1250 z "},"Ỹ":{"ha":904,"x_min":181,"x_max":1051,"o":"m 369 289 l 181 1031 l 442 1031 l 529 547 l 779 1031 l 1051 1031 l 610 289 l 564 0 l 324 0 l 369 289 m 363 1097 q 542 1279 407 1279 q 601 1272 574 1279 q 661 1250 628 1264 q 700 1237 681 1243 q 735 1231 719 1231 q 792 1288 783 1231 l 911 1288 q 843 1143 885 1188 q 735 1099 801 1099 q 680 1106 706 1099 q 610 1128 654 1113 q 540 1147 561 1147 q 503 1133 518 1147 q 482 1097 488 1118 l 363 1097 z "},"Z":{"ha":793,"x_min":44,"x_max":897,"o":"m 76 203 l 589 815 l 174 815 l 208 1031 l 897 1031 l 865 826 l 354 215 l 783 215 l 749 0 l 44 0 l 76 203 z "},"Ź":{"ha":793,"x_min":44,"x_max":897,"o":"m 76 203 l 589 815 l 174 815 l 208 1031 l 897 1031 l 865 826 l 354 215 l 783 215 l 749 0 l 44 0 l 76 203 m 613 1296 l 815 1296 l 642 1099 l 489 1099 l 613 1296 z "},"Ž":{"ha":793,"x_min":44,"x_max":897,"o":"m 76 203 l 589 815 l 174 815 l 208 1031 l 897 1031 l 865 826 l 354 215 l 783 215 l 749 0 l 44 0 l 76 203 m 407 1299 l 544 1299 l 608 1204 l 706 1299 l 846 1299 l 669 1099 l 507 1099 l 407 1299 z "},"Ż":{"ha":793,"x_min":44,"x_max":897,"o":"m 76 203 l 589 815 l 174 815 l 208 1031 l 897 1031 l 865 826 l 354 215 l 783 215 l 749 0 l 44 0 l 76 203 m 514 1110 q 494 1117 501 1110 q 488 1135 488 1124 l 488 1140 l 511 1285 q 546 1318 515 1318 l 657 1318 q 683 1292 683 1318 l 683 1285 l 660 1140 q 625 1110 656 1110 l 514 1110 z "},"Ẓ":{"ha":793,"x_min":44,"x_max":897,"o":"m 76 203 l 589 815 l 174 815 l 208 1031 l 897 1031 l 865 826 l 354 215 l 783 215 l 749 0 l 44 0 l 76 203 m 283 -321 q 264 -314 271 -321 q 257 -296 257 -307 l 257 -290 l 281 -146 q 315 -112 285 -112 l 426 -112 q 453 -139 453 -112 l 453 -146 l 429 -290 q 394 -321 425 -321 l 283 -321 z "},"a":{"ha":796,"x_min":94,"x_max":836,"o":"m 292 -8 q 150 57 206 -8 q 94 251 94 122 q 102 351 94 300 q 111 410 110 403 q 235 670 139 585 q 510 756 331 756 q 697 731 608 756 q 836 665 785 706 l 731 0 l 517 0 l 503 74 q 410 17 469 43 q 292 -8 350 -8 m 413 183 q 474 197 447 183 q 526 229 500 210 l 576 549 q 499 564 540 564 q 397 520 433 564 q 346 394 360 476 q 335 294 335 331 q 353 215 335 246 q 413 183 372 183 z "},"á":{"ha":796,"x_min":94,"x_max":836,"o":"m 292 -8 q 150 57 206 -8 q 94 251 94 122 q 102 351 94 300 q 111 410 110 403 q 235 670 139 585 q 510 756 331 756 q 697 731 608 756 q 836 665 785 706 l 731 0 l 517 0 l 503 74 q 410 17 469 43 q 292 -8 350 -8 m 413 183 q 474 197 447 183 q 526 229 500 210 l 576 549 q 499 564 540 564 q 397 520 433 564 q 346 394 360 476 q 335 294 335 331 q 353 215 335 246 q 413 183 372 183 m 576 1074 l 779 1074 l 606 876 l 453 876 l 576 1074 z "},"ă":{"ha":796,"x_min":94,"x_max":836,"o":"m 292 -8 q 150 57 206 -8 q 94 251 94 122 q 102 351 94 300 q 111 410 110 403 q 235 670 139 585 q 510 756 331 756 q 697 731 608 756 q 836 665 785 706 l 731 0 l 517 0 l 503 74 q 410 17 469 43 q 292 -8 350 -8 m 413 183 q 474 197 447 183 q 526 229 500 210 l 576 549 q 499 564 540 564 q 397 520 433 564 q 346 394 360 476 q 335 294 335 331 q 353 215 335 246 q 413 183 372 183 m 531 864 q 406 903 449 864 q 363 1021 363 943 q 368 1078 363 1036 l 478 1078 q 475 1049 475 1056 q 495 990 475 1008 q 547 972 515 972 q 650 1078 633 972 l 764 1078 q 531 864 729 864 z "},"ắ":{"ha":796,"x_min":94,"x_max":836,"o":"m 292 -8 q 150 57 206 -8 q 94 251 94 122 q 102 351 94 300 q 111 410 110 403 q 235 670 139 585 q 510 756 331 756 q 697 731 608 756 q 836 665 785 706 l 731 0 l 517 0 l 503 74 q 410 17 469 43 q 292 -8 350 -8 m 413 183 q 474 197 447 183 q 526 229 500 210 l 576 549 q 499 564 540 564 q 397 520 433 564 q 346 394 360 476 q 335 294 335 331 q 353 215 335 246 q 413 183 372 183 m 576 1249 l 779 1249 l 606 1051 l 453 1051 l 576 1249 m 504 839 q 332 974 332 839 q 335 1011 332 999 l 446 1011 q 444 996 444 1006 q 465 949 444 964 q 519 935 486 935 q 618 1011 606 935 l 731 1011 q 504 839 704 839 z "},"ặ":{"ha":796,"x_min":94,"x_max":836,"o":"m 292 -8 q 150 57 206 -8 q 94 251 94 122 q 102 351 94 300 q 111 410 110 403 q 235 670 139 585 q 510 756 331 756 q 697 731 608 756 q 836 665 785 706 l 731 0 l 517 0 l 503 74 q 410 17 469 43 q 292 -8 350 -8 m 413 183 q 474 197 447 183 q 526 229 500 210 l 576 549 q 499 564 540 564 q 397 520 433 564 q 346 394 360 476 q 335 294 335 331 q 353 215 335 246 q 413 183 372 183 m 531 864 q 406 903 449 864 q 363 1021 363 943 q 368 1078 363 1036 l 478 1078 q 475 1049 475 1056 q 495 990 475 1008 q 547 972 515 972 q 650 1078 633 972 l 764 1078 q 531 864 729 864 m 294 -321 q 275 -314 282 -321 q 268 -296 268 -307 l 268 -290 l 292 -146 q 326 -112 296 -112 l 438 -112 q 464 -139 464 -112 l 464 -146 l 440 -290 q 406 -321 436 -321 l 294 -321 z "},"ằ":{"ha":796,"x_min":94,"x_max":836,"o":"m 292 -8 q 150 57 206 -8 q 94 251 94 122 q 102 351 94 300 q 111 410 110 403 q 235 670 139 585 q 510 756 331 756 q 697 731 608 756 q 836 665 785 706 l 731 0 l 517 0 l 503 74 q 410 17 469 43 q 292 -8 350 -8 m 413 183 q 474 197 447 183 q 526 229 500 210 l 576 549 q 499 564 540 564 q 397 520 433 564 q 346 394 360 476 q 335 294 335 331 q 353 215 335 246 q 413 183 372 183 m 344 1249 l 536 1249 l 608 1051 l 467 1051 l 344 1249 m 504 839 q 332 974 332 839 q 335 1011 332 999 l 446 1011 q 444 996 444 1006 q 465 949 444 964 q 519 935 486 935 q 618 1011 606 935 l 731 1011 q 504 839 704 839 z "},"ẳ":{"ha":796,"x_min":94,"x_max":836,"o":"m 292 -8 q 150 57 206 -8 q 94 251 94 122 q 102 351 94 300 q 111 410 110 403 q 235 670 139 585 q 510 756 331 756 q 697 731 608 756 q 836 665 785 706 l 731 0 l 517 0 l 503 74 q 410 17 469 43 q 292 -8 350 -8 m 413 183 q 474 197 447 183 q 526 229 500 210 l 576 549 q 499 564 540 564 q 397 520 433 564 q 346 394 360 476 q 335 294 335 331 q 353 215 335 246 q 413 183 372 183 m 506 1097 q 561 1150 561 1113 q 526 1174 561 1174 q 482 1165 513 1174 l 496 1258 q 575 1269 532 1269 q 689 1171 689 1269 q 490 993 689 1047 l 506 1097 m 504 839 q 332 974 332 839 q 335 1011 332 999 l 446 1011 q 444 996 444 1006 q 465 949 444 964 q 519 935 486 935 q 618 1011 606 935 l 731 1011 q 504 839 704 839 z "},"ẵ":{"ha":796,"x_min":94,"x_max":836,"o":"m 292 -8 q 150 57 206 -8 q 94 251 94 122 q 102 351 94 300 q 111 410 110 403 q 235 670 139 585 q 510 756 331 756 q 697 731 608 756 q 836 665 785 706 l 731 0 l 517 0 l 503 74 q 410 17 469 43 q 292 -8 350 -8 m 413 183 q 474 197 447 183 q 526 229 500 210 l 576 549 q 499 564 540 564 q 397 520 433 564 q 346 394 360 476 q 335 294 335 331 q 353 215 335 246 q 413 183 372 183 m 310 1064 q 374 1181 332 1150 q 482 1211 415 1211 q 528 1206 504 1211 q 572 1193 551 1200 q 595 1185 576 1192 q 629 1179 614 1179 q 682 1221 675 1179 l 800 1221 q 740 1099 779 1132 q 632 1067 701 1067 q 584 1073 610 1067 q 536 1086 558 1079 q 483 1099 499 1099 q 447 1088 461 1099 q 429 1064 433 1078 l 310 1064 m 510 839 q 381 872 425 839 q 336 972 336 906 q 340 1011 336 993 l 450 1011 q 449 994 449 1006 q 470 949 449 964 q 524 935 492 935 q 622 1011 611 935 l 736 1011 q 510 839 707 839 z "},"â":{"ha":796,"x_min":94,"x_max":836,"o":"m 292 -8 q 150 57 206 -8 q 94 251 94 122 q 102 351 94 300 q 111 410 110 403 q 235 670 139 585 q 510 756 331 756 q 697 731 608 756 q 836 665 785 706 l 731 0 l 517 0 l 503 74 q 410 17 469 43 q 292 -8 350 -8 m 413 183 q 474 197 447 183 q 526 229 500 210 l 576 549 q 499 564 540 564 q 397 520 433 564 q 346 394 360 476 q 335 294 335 331 q 353 215 335 246 q 413 183 372 183 m 479 1076 l 642 1076 l 742 876 l 603 876 l 540 971 l 442 876 l 303 876 l 479 1076 z "},"ấ":{"ha":796,"x_min":94,"x_max":929,"o":"m 292 -8 q 150 57 206 -8 q 94 251 94 122 q 102 351 94 300 q 111 410 110 403 q 235 670 139 585 q 510 756 331 756 q 697 731 608 756 q 836 665 785 706 l 731 0 l 517 0 l 503 74 q 410 17 469 43 q 292 -8 350 -8 m 413 183 q 474 197 447 183 q 526 229 500 210 l 576 549 q 499 564 540 564 q 397 520 433 564 q 346 394 360 476 q 335 294 335 331 q 353 215 335 246 q 413 183 372 183 m 750 1171 l 929 1171 l 807 999 l 679 999 l 750 1171 m 471 1033 l 635 1033 l 742 876 l 603 876 l 532 928 l 442 876 l 303 876 l 471 1033 z "},"ậ":{"ha":796,"x_min":94,"x_max":836,"o":"m 292 -8 q 150 57 206 -8 q 94 251 94 122 q 102 351 94 300 q 111 410 110 403 q 235 670 139 585 q 510 756 331 756 q 697 731 608 756 q 836 665 785 706 l 731 0 l 517 0 l 503 74 q 410 17 469 43 q 292 -8 350 -8 m 413 183 q 474 197 447 183 q 526 229 500 210 l 576 549 q 499 564 540 564 q 397 520 433 564 q 346 394 360 476 q 335 294 335 331 q 353 215 335 246 q 413 183 372 183 m 479 1076 l 642 1076 l 742 876 l 603 876 l 540 971 l 442 876 l 303 876 l 479 1076 m 294 -321 q 275 -314 282 -321 q 268 -296 268 -307 l 268 -290 l 292 -146 q 326 -112 296 -112 l 438 -112 q 464 -139 464 -112 l 464 -146 l 440 -290 q 406 -321 436 -321 l 294 -321 z "},"ầ":{"ha":796,"x_min":94,"x_max":836,"o":"m 292 -8 q 150 57 206 -8 q 94 251 94 122 q 102 351 94 300 q 111 410 110 403 q 235 670 139 585 q 510 756 331 756 q 697 731 608 756 q 836 665 785 706 l 731 0 l 517 0 l 503 74 q 410 17 469 43 q 292 -8 350 -8 m 413 183 q 474 197 447 183 q 526 229 500 210 l 576 549 q 499 564 540 564 q 397 520 433 564 q 346 394 360 476 q 335 294 335 331 q 353 215 335 246 q 413 183 372 183 m 215 1171 l 394 1171 l 410 999 l 281 999 l 215 1171 m 469 1033 l 633 1033 l 740 876 l 601 876 l 531 928 l 440 876 l 301 876 l 469 1033 z "},"ẩ":{"ha":796,"x_min":94,"x_max":879,"o":"m 292 -8 q 150 57 206 -8 q 94 251 94 122 q 102 351 94 300 q 111 410 110 403 q 235 670 139 585 q 510 756 331 756 q 697 731 608 756 q 836 665 785 706 l 731 0 l 517 0 l 503 74 q 410 17 469 43 q 292 -8 350 -8 m 413 183 q 474 197 447 183 q 526 229 500 210 l 576 549 q 499 564 540 564 q 397 520 433 564 q 346 394 360 476 q 335 294 335 331 q 353 215 335 246 q 413 183 372 183 m 721 1047 q 761 1093 761 1065 q 739 1110 761 1110 q 693 1101 721 1110 l 708 1194 q 785 1206 744 1206 q 879 1124 879 1206 q 706 954 879 1001 l 721 1047 m 472 1033 l 635 1033 l 742 876 l 604 876 l 533 928 l 442 876 l 303 876 l 472 1033 z "},"ẫ":{"ha":796,"x_min":94,"x_max":836,"o":"m 292 -8 q 150 57 206 -8 q 94 251 94 122 q 102 351 94 300 q 111 410 110 403 q 235 670 139 585 q 510 756 331 756 q 697 731 608 756 q 836 665 785 706 l 731 0 l 517 0 l 503 74 q 410 17 469 43 q 292 -8 350 -8 m 413 183 q 474 197 447 183 q 526 229 500 210 l 576 549 q 499 564 540 564 q 397 520 433 564 q 346 394 360 476 q 335 294 335 331 q 353 215 335 246 q 413 183 372 183 m 314 1088 q 377 1206 335 1175 q 485 1236 419 1236 q 531 1231 507 1236 q 575 1218 554 1225 q 598 1210 579 1217 q 632 1204 617 1204 q 686 1244 678 1204 l 804 1244 q 743 1123 782 1156 q 635 1090 704 1090 q 574 1099 604 1090 q 540 1110 544 1108 q 486 1122 500 1122 q 450 1113 464 1122 q 432 1088 436 1103 l 314 1088 m 472 1033 l 635 1033 l 740 876 l 603 876 l 532 928 l 442 876 l 301 876 l 472 1033 z "},"ȁ":{"ha":796,"x_min":94,"x_max":836,"o":"m 292 -8 q 150 57 206 -8 q 94 251 94 122 q 102 351 94 300 q 111 410 110 403 q 235 670 139 585 q 510 756 331 756 q 697 731 608 756 q 836 665 785 706 l 731 0 l 517 0 l 503 74 q 410 17 469 43 q 292 -8 350 -8 m 413 183 q 474 197 447 183 q 526 229 500 210 l 576 549 q 499 564 540 564 q 397 520 433 564 q 346 394 360 476 q 335 294 335 331 q 353 215 335 246 q 413 183 372 183 m 215 1074 l 407 1074 l 479 876 l 338 876 l 215 1074 m 479 1074 l 671 1074 l 743 876 l 601 876 l 479 1074 z "},"ä":{"ha":796,"x_min":94,"x_max":836,"o":"m 292 -8 q 150 57 206 -8 q 94 251 94 122 q 102 351 94 300 q 111 410 110 403 q 235 670 139 585 q 510 756 331 756 q 697 731 608 756 q 836 665 785 706 l 731 0 l 517 0 l 503 74 q 410 17 469 43 q 292 -8 350 -8 m 413 183 q 474 197 447 183 q 526 229 500 210 l 576 549 q 499 564 540 564 q 397 520 433 564 q 346 394 360 476 q 335 294 335 331 q 353 215 335 246 q 413 183 372 183 m 335 878 q 315 885 322 878 q 308 903 308 892 l 333 1053 q 367 1086 338 1086 l 479 1086 q 504 1060 504 1086 l 481 908 q 446 878 476 878 l 335 878 m 610 878 q 591 885 599 878 q 583 903 583 892 l 608 1053 q 643 1086 613 1086 l 754 1086 q 781 1060 781 1086 l 757 908 q 745 885 756 893 q 721 878 735 878 l 610 878 z "},"ạ":{"ha":796,"x_min":94,"x_max":836,"o":"m 292 -8 q 150 57 206 -8 q 94 251 94 122 q 102 351 94 300 q 111 410 110 403 q 235 670 139 585 q 510 756 331 756 q 697 731 608 756 q 836 665 785 706 l 731 0 l 517 0 l 503 74 q 410 17 469 43 q 292 -8 350 -8 m 413 183 q 474 197 447 183 q 526 229 500 210 l 576 549 q 499 564 540 564 q 397 520 433 564 q 346 394 360 476 q 335 294 335 331 q 353 215 335 246 q 413 183 372 183 m 294 -321 q 275 -314 282 -321 q 268 -296 268 -307 l 268 -290 l 292 -146 q 326 -112 296 -112 l 438 -112 q 464 -139 464 -112 l 464 -146 l 440 -290 q 406 -321 436 -321 l 294 -321 z "},"à":{"ha":796,"x_min":94,"x_max":836,"o":"m 292 -8 q 150 57 206 -8 q 94 251 94 122 q 102 351 94 300 q 111 410 110 403 q 235 670 139 585 q 510 756 331 756 q 697 731 608 756 q 836 665 785 706 l 731 0 l 517 0 l 503 74 q 410 17 469 43 q 292 -8 350 -8 m 413 183 q 474 197 447 183 q 526 229 500 210 l 576 549 q 499 564 540 564 q 397 520 433 564 q 346 394 360 476 q 335 294 335 331 q 353 215 335 246 q 413 183 372 183 m 357 1074 l 549 1074 l 621 876 l 479 876 l 357 1074 z "},"ả":{"ha":796,"x_min":94,"x_max":836,"o":"m 292 -8 q 150 57 206 -8 q 94 251 94 122 q 102 351 94 300 q 111 410 110 403 q 235 670 139 585 q 510 756 331 756 q 697 731 608 756 q 836 665 785 706 l 731 0 l 517 0 l 503 74 q 410 17 469 43 q 292 -8 350 -8 m 413 183 q 474 197 447 183 q 526 229 500 210 l 576 549 q 499 564 540 564 q 397 520 433 564 q 346 394 360 476 q 335 294 335 331 q 353 215 335 246 q 413 183 372 183 m 488 925 q 543 978 543 940 q 508 1001 543 1001 q 464 993 494 1001 l 478 1086 q 557 1097 514 1097 q 671 999 671 1097 q 472 821 671 875 l 488 925 z "},"ȃ":{"ha":796,"x_min":94,"x_max":836,"o":"m 292 -8 q 150 57 206 -8 q 94 251 94 122 q 102 351 94 300 q 111 410 110 403 q 235 670 139 585 q 510 756 331 756 q 697 731 608 756 q 836 665 785 706 l 731 0 l 517 0 l 503 74 q 410 17 469 43 q 292 -8 350 -8 m 413 183 q 474 197 447 183 q 526 229 500 210 l 576 549 q 499 564 540 564 q 397 520 433 564 q 346 394 360 476 q 335 294 335 331 q 353 215 335 246 q 413 183 372 183 m 329 867 q 563 1081 364 1081 q 688 1041 644 1081 q 731 924 731 1001 q 725 867 731 908 l 615 867 q 618 897 618 889 q 598 956 618 938 q 546 974 578 974 q 443 867 460 974 l 329 867 z "},"ā":{"ha":796,"x_min":94,"x_max":836,"o":"m 292 -8 q 150 57 206 -8 q 94 251 94 122 q 102 351 94 300 q 111 410 110 403 q 235 670 139 585 q 510 756 331 756 q 697 731 608 756 q 836 665 785 706 l 731 0 l 517 0 l 503 74 q 410 17 469 43 q 292 -8 350 -8 m 413 183 q 474 197 447 183 q 526 229 500 210 l 576 549 q 499 564 540 564 q 397 520 433 564 q 346 394 360 476 q 335 294 335 331 q 353 215 335 246 q 413 183 372 183 m 358 1028 l 757 1028 l 735 888 l 336 888 l 358 1028 z "},"ą":{"ha":796,"x_min":94,"x_max":836,"o":"m 731 0 q 674 -51 692 -24 q 656 -99 656 -78 q 672 -137 656 -124 q 715 -151 689 -151 l 728 -151 l 711 -264 q 663 -269 699 -269 q 563 -240 594 -269 q 532 -165 532 -210 q 562 -70 532 -112 q 644 0 592 -28 l 517 0 l 503 74 q 410 17 469 43 q 292 -8 350 -8 q 150 57 206 -8 q 94 251 94 122 q 102 351 94 300 q 111 410 110 403 q 235 670 139 585 q 510 756 331 756 q 697 731 608 756 q 836 665 785 706 l 731 0 m 576 549 q 499 564 540 564 q 397 520 433 564 q 346 394 360 476 q 335 294 335 331 q 353 215 335 246 q 413 183 372 183 q 474 197 447 183 q 526 229 500 210 l 576 549 z "},"å":{"ha":796,"x_min":94,"x_max":836,"o":"m 292 -8 q 150 57 206 -8 q 94 251 94 122 q 102 351 94 300 q 111 410 110 403 q 235 670 139 585 q 510 756 331 756 q 697 731 608 756 q 836 665 785 706 l 731 0 l 517 0 l 503 74 q 410 17 469 43 q 292 -8 350 -8 m 413 183 q 474 197 447 183 q 526 229 500 210 l 576 549 q 499 564 540 564 q 397 520 433 564 q 346 394 360 476 q 335 294 335 331 q 353 215 335 246 q 413 183 372 183 m 538 810 q 417 842 457 810 q 376 949 376 874 q 431 1078 376 1026 q 579 1131 485 1131 q 699 1098 660 1131 q 739 990 739 1065 q 686 860 739 911 q 538 810 633 810 m 549 896 q 608 922 588 896 q 628 988 628 949 q 569 1043 628 1043 q 508 1017 529 1043 q 488 953 488 990 q 549 896 488 896 z "},"ǻ":{"ha":796,"x_min":94,"x_max":838,"o":"m 292 -8 q 150 57 206 -8 q 94 251 94 122 q 102 351 94 300 q 111 410 110 403 q 235 670 139 585 q 510 756 331 756 q 697 731 608 756 q 836 665 785 706 l 731 0 l 517 0 l 503 74 q 410 17 469 43 q 292 -8 350 -8 m 413 183 q 474 197 447 183 q 526 229 500 210 l 576 549 q 499 564 540 564 q 397 520 433 564 q 346 394 360 476 q 335 294 335 331 q 353 215 335 246 q 413 183 372 183 m 538 810 q 417 842 457 810 q 376 949 376 874 q 431 1078 376 1026 q 579 1131 485 1131 q 699 1098 660 1131 q 739 990 739 1065 q 686 860 739 911 q 538 810 633 810 m 549 896 q 608 922 588 896 q 628 988 628 949 q 569 1043 628 1043 q 508 1017 529 1043 q 488 953 488 990 q 549 896 488 896 m 635 1351 l 838 1351 l 664 1154 l 511 1154 l 635 1351 z "},"ã":{"ha":796,"x_min":94,"x_max":836,"o":"m 292 -8 q 150 57 206 -8 q 94 251 94 122 q 102 351 94 300 q 111 410 110 403 q 235 670 139 585 q 510 756 331 756 q 697 731 608 756 q 836 665 785 706 l 731 0 l 517 0 l 503 74 q 410 17 469 43 q 292 -8 350 -8 m 413 183 q 474 197 447 183 q 526 229 500 210 l 576 549 q 499 564 540 564 q 397 520 433 564 q 346 394 360 476 q 335 294 335 331 q 353 215 335 246 q 413 183 372 183 m 261 875 q 440 1057 306 1057 q 499 1049 472 1057 q 560 1028 526 1042 q 599 1015 579 1021 q 633 1008 618 1008 q 690 1065 682 1008 l 810 1065 q 742 921 783 965 q 633 876 700 876 q 578 883 603 876 q 508 906 553 890 q 439 925 460 925 q 401 910 417 925 q 381 875 386 896 l 261 875 z "},"æ":{"ha":1206,"x_min":99,"x_max":1239,"o":"m 299 -8 q 153 53 208 -8 q 99 247 99 115 q 208 638 99 521 q 496 756 318 756 q 729 708 639 756 q 826 744 757 731 q 931 757 896 757 q 1163 700 1086 757 q 1239 521 1239 643 q 932 272 1239 272 q 842 276 890 272 q 776 285 793 281 q 774 249 774 260 q 806 188 774 208 q 918 167 838 167 l 1172 167 l 1150 26 q 995 1 1089 11 q 817 -8 901 -8 q 674 19 739 -8 q 585 93 610 46 q 442 16 510 40 q 299 -8 374 -8 m 879 403 q 1015 494 1015 403 q 935 574 1015 574 q 840 534 869 574 q 793 410 810 494 q 822 406 797 410 q 879 403 847 403 m 410 186 q 484 206 446 186 q 540 250 522 226 l 540 292 q 553 427 540 360 q 592 549 567 494 q 558 559 581 554 q 519 564 536 564 q 381 492 425 564 q 336 293 336 419 q 354 215 336 243 q 410 186 372 186 z "},"ǽ":{"ha":1206,"x_min":99,"x_max":1239,"o":"m 299 -8 q 153 53 208 -8 q 99 247 99 115 q 208 638 99 521 q 496 756 318 756 q 729 708 639 756 q 826 744 757 731 q 931 757 896 757 q 1163 700 1086 757 q 1239 521 1239 643 q 932 272 1239 272 q 842 276 890 272 q 776 285 793 281 q 774 249 774 260 q 806 188 774 208 q 918 167 838 167 l 1172 167 l 1150 26 q 995 1 1089 11 q 817 -8 901 -8 q 674 19 739 -8 q 585 93 610 46 q 442 16 510 40 q 299 -8 374 -8 m 879 403 q 1015 494 1015 403 q 935 574 1015 574 q 840 534 869 574 q 793 410 810 494 q 822 406 797 410 q 879 403 847 403 m 410 186 q 484 206 446 186 q 540 250 522 226 l 540 292 q 553 427 540 360 q 592 549 567 494 q 558 559 581 554 q 519 564 536 564 q 381 492 425 564 q 336 293 336 419 q 354 215 336 243 q 410 186 372 186 m 789 1074 l 992 1074 l 818 876 l 665 876 l 789 1074 z "},"b":{"ha":814,"x_min":68,"x_max":835,"o":"m 536 -8 q 416 13 474 -8 q 319 69 358 35 l 282 0 l 68 0 l 236 1060 l 475 1060 l 419 708 q 512 742 463 729 q 599 756 561 756 q 772 686 710 756 q 835 490 835 617 q 815 315 835 438 q 718 76 792 160 q 536 -8 644 -8 m 460 183 q 542 228 511 183 q 588 378 574 272 q 594 451 594 426 q 517 564 594 564 q 453 556 488 564 q 393 535 418 549 l 343 221 q 392 192 365 201 q 460 183 418 183 z "},"ḃ":{"ha":814,"x_min":68,"x_max":835,"o":"m 536 -8 q 416 13 474 -8 q 319 69 358 35 l 282 0 l 68 0 l 236 1060 l 475 1060 l 419 708 q 512 742 463 729 q 599 756 561 756 q 772 686 710 756 q 835 490 835 617 q 815 315 835 438 q 718 76 792 160 q 536 -8 644 -8 m 460 183 q 542 228 511 183 q 588 378 574 272 q 594 451 594 426 q 517 564 594 564 q 453 556 488 564 q 393 535 418 549 l 343 221 q 392 192 365 201 q 460 183 418 183 m 324 1165 q 304 1172 311 1165 q 297 1190 297 1179 l 297 1196 l 321 1340 q 356 1374 325 1374 l 467 1374 q 493 1347 493 1374 l 493 1340 l 469 1196 q 435 1165 465 1165 l 324 1165 z "},"c":{"ha":657,"x_min":100,"x_max":721,"o":"m 376 -8 q 170 58 240 -8 q 100 279 100 124 q 113 413 100 336 q 461 756 165 756 q 721 711 568 756 l 697 574 l 517 574 q 401 525 439 574 q 346 374 364 476 q 339 303 339 326 q 367 203 339 235 q 454 172 396 172 l 646 172 l 624 36 q 511 3 569 15 q 376 -8 453 -8 z "},"ć":{"ha":657,"x_min":100,"x_max":750,"o":"m 376 -8 q 170 58 240 -8 q 100 279 100 124 q 113 413 100 336 q 461 756 165 756 q 721 711 568 756 l 697 574 l 517 574 q 401 525 439 574 q 346 374 364 476 q 339 303 339 326 q 367 203 339 235 q 454 172 396 172 l 646 172 l 624 36 q 511 3 569 15 q 376 -8 453 -8 m 547 1074 l 750 1074 l 576 876 l 424 876 l 547 1074 z "},"č":{"ha":657,"x_min":100,"x_max":767,"o":"m 376 -8 q 170 58 240 -8 q 100 279 100 124 q 113 413 100 336 q 461 756 165 756 q 721 711 568 756 l 697 574 l 517 574 q 401 525 439 574 q 346 374 364 476 q 339 303 339 326 q 367 203 339 235 q 454 172 396 172 l 646 172 l 624 36 q 511 3 569 15 q 376 -8 453 -8 m 328 1076 l 465 1076 l 529 982 l 626 1076 l 767 1076 l 590 876 l 428 876 l 328 1076 z "},"ç":{"ha":657,"x_min":100,"x_max":721,"o":"m 517 574 q 401 525 439 574 q 346 374 364 476 q 339 303 339 326 q 367 203 339 235 q 454 172 396 172 l 646 172 l 624 36 q 394 -8 519 -4 l 347 -69 q 402 -97 381 -75 q 424 -157 424 -118 q 380 -245 424 -210 q 251 -281 336 -281 l 175 -281 l 190 -182 l 214 -178 q 257 -159 243 -174 q 271 -128 271 -144 q 225 -89 271 -99 l 293 -1 q 149 83 199 17 q 100 279 100 150 q 113 413 100 336 q 461 756 165 756 q 721 711 568 756 l 697 574 l 517 574 z "},"ḉ":{"ha":657,"x_min":100,"x_max":750,"o":"m 576 876 l 424 876 l 547 1074 l 750 1074 l 576 876 m 113 413 q 461 756 165 756 q 721 711 568 756 l 697 574 l 517 574 q 401 525 439 574 q 346 374 364 476 q 339 303 339 326 q 367 203 339 235 q 454 172 396 172 l 646 172 l 624 36 q 394 -8 519 -4 l 347 -69 q 402 -97 381 -75 q 424 -157 424 -118 q 380 -245 424 -210 q 251 -281 336 -281 l 175 -281 l 190 -182 l 214 -178 q 257 -159 243 -174 q 271 -128 271 -144 q 225 -89 271 -99 l 293 -1 q 149 83 199 17 q 100 279 100 150 q 113 413 100 336 z "},"ĉ":{"ha":657,"x_min":100,"x_max":721,"o":"m 376 -8 q 170 58 240 -8 q 100 279 100 124 q 113 413 100 336 q 461 756 165 756 q 721 711 568 756 l 697 574 l 517 574 q 401 525 439 574 q 346 374 364 476 q 339 303 339 326 q 367 203 339 235 q 454 172 396 172 l 646 172 l 624 36 q 511 3 569 15 q 376 -8 453 -8 m 450 1076 l 613 1076 l 713 876 l 574 876 l 511 971 l 413 876 l 274 876 l 450 1076 z "},"ċ":{"ha":657,"x_min":100,"x_max":721,"o":"m 376 -8 q 170 58 240 -8 q 100 279 100 124 q 113 413 100 336 q 461 756 165 756 q 721 711 568 756 l 697 574 l 517 574 q 401 525 439 574 q 346 374 364 476 q 339 303 339 326 q 367 203 339 235 q 454 172 396 172 l 646 172 l 624 36 q 511 3 569 15 q 376 -8 453 -8 m 447 888 q 428 894 435 888 q 421 913 421 901 l 421 918 l 444 1063 q 479 1096 449 1096 l 590 1096 q 617 1069 617 1096 l 617 1063 l 593 918 q 558 888 589 888 l 447 888 z "},"d":{"ha":803,"x_min":99,"x_max":901,"o":"m 306 -8 q 151 60 203 -8 q 99 254 99 129 q 115 415 99 332 q 177 603 138 531 q 292 716 217 676 q 490 756 367 756 q 613 744 564 756 l 661 1060 l 901 1060 l 733 0 l 519 0 l 506 74 q 412 15 464 38 q 306 -8 360 -8 m 414 183 q 476 196 449 183 q 529 229 503 208 l 581 549 q 503 564 550 564 q 404 526 443 564 q 346 375 365 488 q 338 293 338 332 q 414 183 338 183 z "},"ð":{"ha":801,"x_min":99,"x_max":858,"o":"m 736 933 q 835 626 835 833 q 807 332 835 519 q 738 122 786 196 q 609 20 689 49 q 400 -8 529 -8 q 174 58 249 -8 q 99 254 99 125 q 107 374 99 329 q 174 598 131 521 q 283 703 217 675 q 457 732 350 732 q 556 717 510 732 q 639 674 603 701 q 612 785 635 740 q 544 857 589 829 l 322 767 l 301 840 l 435 894 q 278 906 364 906 l 303 1060 q 667 988 542 1060 l 839 1057 l 858 983 l 736 933 m 572 392 q 579 476 579 447 q 557 529 579 514 q 485 544 535 544 q 410 528 436 544 q 369 468 385 511 q 342 339 354 425 q 336 265 336 300 q 357 201 336 219 q 425 183 378 183 q 498 198 472 183 q 540 251 524 213 q 568 364 556 289 l 572 392 z "},"ď":{"ha":803,"x_min":99,"x_max":1188,"o":"m 306 -8 q 151 60 203 -8 q 99 254 99 129 q 115 415 99 332 q 177 603 138 531 q 292 716 217 676 q 490 756 367 756 q 613 744 564 756 l 661 1060 l 901 1060 l 733 0 l 519 0 l 506 74 q 412 15 464 38 q 306 -8 360 -8 m 414 183 q 476 196 449 183 q 529 229 503 208 l 581 549 q 503 564 550 564 q 404 526 443 564 q 346 375 365 488 q 338 293 338 332 q 414 183 338 183 m 956 996 l 971 1089 l 1188 1089 l 1172 996 l 1129 806 l 940 806 l 956 996 z "},"đ":{"ha":804,"x_min":99,"x_max":960,"o":"m 944 847 l 868 847 l 733 0 l 519 0 l 506 74 q 412 15 464 38 q 306 -8 360 -8 q 151 60 203 -8 q 99 254 99 129 q 115 415 99 332 q 177 603 138 531 q 292 716 217 676 q 490 756 367 756 q 613 744 564 756 l 628 847 l 476 847 l 492 940 l 643 940 l 661 1060 l 901 1060 l 882 940 l 960 940 l 944 847 m 581 549 q 503 564 550 564 q 404 526 443 564 q 346 375 365 488 q 338 293 338 332 q 414 183 338 183 q 476 196 449 183 q 529 229 503 208 l 581 549 z "},"ḋ":{"ha":803,"x_min":99,"x_max":919,"o":"m 306 -8 q 151 60 203 -8 q 99 254 99 129 q 115 415 99 332 q 177 603 138 531 q 292 716 217 676 q 490 756 367 756 q 613 744 564 756 l 661 1060 l 901 1060 l 733 0 l 519 0 l 506 74 q 412 15 464 38 q 306 -8 360 -8 m 414 183 q 476 196 449 183 q 529 229 503 208 l 581 549 q 503 564 550 564 q 404 526 443 564 q 346 375 365 488 q 338 293 338 332 q 414 183 338 183 m 750 1165 q 731 1172 738 1165 q 724 1190 724 1179 l 724 1196 l 747 1340 q 782 1374 751 1374 l 893 1374 q 919 1347 919 1374 l 919 1340 l 896 1196 q 861 1165 892 1165 l 750 1165 z "},"ḍ":{"ha":803,"x_min":99,"x_max":901,"o":"m 306 -8 q 151 60 203 -8 q 99 254 99 129 q 115 415 99 332 q 177 603 138 531 q 292 716 217 676 q 490 756 367 756 q 613 744 564 756 l 661 1060 l 901 1060 l 733 0 l 519 0 l 506 74 q 412 15 464 38 q 306 -8 360 -8 m 414 183 q 476 196 449 183 q 529 229 503 208 l 581 549 q 503 564 550 564 q 404 526 443 564 q 346 375 365 488 q 338 293 338 332 q 414 183 338 183 m 311 -321 q 292 -314 299 -321 q 285 -296 285 -307 l 285 -290 l 308 -146 q 343 -112 313 -112 l 454 -112 q 481 -139 481 -112 l 481 -146 l 457 -290 q 422 -321 453 -321 l 311 -321 z "},"ḏ":{"ha":803,"x_min":99,"x_max":901,"o":"m 306 -8 q 151 60 203 -8 q 99 254 99 129 q 115 415 99 332 q 177 603 138 531 q 292 716 217 676 q 490 756 367 756 q 613 744 564 756 l 661 1060 l 901 1060 l 733 0 l 519 0 l 506 74 q 412 15 464 38 q 306 -8 360 -8 m 414 183 q 476 196 449 183 q 529 229 503 208 l 581 549 q 503 564 550 564 q 404 526 443 564 q 346 375 365 488 q 338 293 338 332 q 414 183 338 183 m 199 -167 l 597 -167 l 575 -307 l 176 -307 l 199 -167 z "},"e":{"ha":761,"x_min":99,"x_max":799,"o":"m 393 -8 q 167 64 236 -8 q 99 276 99 136 q 113 414 99 328 q 239 676 140 594 q 507 757 338 757 q 716 706 633 757 q 799 528 799 656 q 715 326 799 381 q 483 272 632 272 q 338 285 394 272 q 335 246 335 260 q 372 186 335 206 q 489 167 408 167 l 733 167 l 711 26 q 393 -8 558 -8 m 425 403 q 542 426 508 403 q 575 501 575 450 q 490 574 575 574 q 399 533 431 574 q 353 410 367 493 q 425 403 408 403 z "},"é":{"ha":761,"x_min":99,"x_max":799,"o":"m 393 -8 q 167 64 236 -8 q 99 276 99 136 q 113 414 99 328 q 239 676 140 594 q 507 757 338 757 q 716 706 633 757 q 799 528 799 656 q 715 326 799 381 q 483 272 632 272 q 338 285 394 272 q 335 246 335 260 q 372 186 335 206 q 489 167 408 167 l 733 167 l 711 26 q 393 -8 558 -8 m 425 403 q 542 426 508 403 q 575 501 575 450 q 490 574 575 574 q 399 533 431 574 q 353 410 367 493 q 425 403 408 403 m 575 1074 l 778 1074 l 604 876 l 451 876 l 575 1074 z "},"ĕ":{"ha":761,"x_min":99,"x_max":799,"o":"m 393 -8 q 167 64 236 -8 q 99 276 99 136 q 113 414 99 328 q 239 676 140 594 q 507 757 338 757 q 716 706 633 757 q 799 528 799 656 q 715 326 799 381 q 483 272 632 272 q 338 285 394 272 q 335 246 335 260 q 372 186 335 206 q 489 167 408 167 l 733 167 l 711 26 q 393 -8 558 -8 m 425 403 q 542 426 508 403 q 575 501 575 450 q 490 574 575 574 q 399 533 431 574 q 353 410 367 493 q 425 403 408 403 m 529 864 q 404 903 447 864 q 361 1021 361 943 q 367 1078 361 1036 l 476 1078 q 474 1049 474 1056 q 494 990 474 1008 q 546 972 514 972 q 649 1078 632 972 l 763 1078 q 529 864 728 864 z "},"ě":{"ha":761,"x_min":99,"x_max":799,"o":"m 393 -8 q 167 64 236 -8 q 99 276 99 136 q 113 414 99 328 q 239 676 140 594 q 507 757 338 757 q 716 706 633 757 q 799 528 799 656 q 715 326 799 381 q 483 272 632 272 q 338 285 394 272 q 335 246 335 260 q 372 186 335 206 q 489 167 408 167 l 733 167 l 711 26 q 393 -8 558 -8 m 425 403 q 542 426 508 403 q 575 501 575 450 q 490 574 575 574 q 399 533 431 574 q 353 410 367 493 q 425 403 408 403 m 356 1076 l 493 1076 l 557 982 l 654 1076 l 794 1076 l 618 876 l 456 876 l 356 1076 z "},"ḝ":{"ha":761,"x_min":99,"x_max":799,"o":"m 529 864 q 404 903 447 864 q 361 1021 361 943 q 367 1078 361 1036 l 476 1078 q 474 1049 474 1056 q 494 990 474 1008 q 546 972 514 972 q 649 1078 632 972 l 763 1078 q 529 864 728 864 m 483 272 q 338 285 394 272 q 335 246 335 260 q 372 186 335 206 q 489 167 408 167 l 733 167 l 711 26 q 451 -7 590 -1 l 403 -69 q 458 -97 436 -75 q 479 -157 479 -118 q 435 -245 479 -210 q 307 -281 392 -281 l 231 -281 l 246 -182 l 269 -178 q 313 -159 299 -174 q 326 -128 326 -144 q 281 -89 326 -99 l 344 -7 q 156 76 214 4 q 99 276 99 147 q 113 414 99 328 q 239 676 140 594 q 507 757 338 757 q 716 706 633 757 q 799 528 799 656 q 715 326 799 381 q 483 272 632 272 m 490 574 q 399 533 431 574 q 353 410 367 493 q 425 403 408 403 q 542 426 508 403 q 575 501 575 450 q 490 574 575 574 z "},"ê":{"ha":761,"x_min":99,"x_max":799,"o":"m 393 -8 q 167 64 236 -8 q 99 276 99 136 q 113 414 99 328 q 239 676 140 594 q 507 757 338 757 q 716 706 633 757 q 799 528 799 656 q 715 326 799 381 q 483 272 632 272 q 338 285 394 272 q 335 246 335 260 q 372 186 335 206 q 489 167 408 167 l 733 167 l 711 26 q 393 -8 558 -8 m 425 403 q 542 426 508 403 q 575 501 575 450 q 490 574 575 574 q 399 533 431 574 q 353 410 367 493 q 425 403 408 403 m 478 1076 l 640 1076 l 740 876 l 601 876 l 539 971 l 440 876 l 301 876 l 478 1076 z "},"ế":{"ha":761,"x_min":99,"x_max":926,"o":"m 393 -8 q 167 64 236 -8 q 99 276 99 136 q 113 414 99 328 q 239 676 140 594 q 507 757 338 757 q 716 706 633 757 q 799 528 799 656 q 715 326 799 381 q 483 272 632 272 q 338 285 394 272 q 335 246 335 260 q 372 186 335 206 q 489 167 408 167 l 733 167 l 711 26 q 393 -8 558 -8 m 425 403 q 542 426 508 403 q 575 501 575 450 q 490 574 575 574 q 399 533 431 574 q 353 410 367 493 q 425 403 408 403 m 747 1171 l 926 1171 l 804 999 l 676 999 l 747 1171 m 468 1033 l 632 1033 l 739 876 l 600 876 l 529 928 l 439 876 l 300 876 l 468 1033 z "},"ệ":{"ha":761,"x_min":99,"x_max":799,"o":"m 393 -8 q 167 64 236 -8 q 99 276 99 136 q 113 414 99 328 q 239 676 140 594 q 507 757 338 757 q 716 706 633 757 q 799 528 799 656 q 715 326 799 381 q 483 272 632 272 q 338 285 394 272 q 335 246 335 260 q 372 186 335 206 q 489 167 408 167 l 733 167 l 711 26 q 393 -8 558 -8 m 425 403 q 542 426 508 403 q 575 501 575 450 q 490 574 575 574 q 399 533 431 574 q 353 410 367 493 q 425 403 408 403 m 478 1076 l 640 1076 l 740 876 l 601 876 l 539 971 l 440 876 l 301 876 l 478 1076 m 321 -321 q 301 -314 308 -321 q 294 -296 294 -307 l 294 -290 l 318 -146 q 353 -112 322 -112 l 464 -112 q 490 -139 490 -112 l 490 -146 l 467 -290 q 432 -321 463 -321 l 321 -321 z "},"ề":{"ha":761,"x_min":99,"x_max":799,"o":"m 393 -8 q 167 64 236 -8 q 99 276 99 136 q 113 414 99 328 q 239 676 140 594 q 507 757 338 757 q 716 706 633 757 q 799 528 799 656 q 715 326 799 381 q 483 272 632 272 q 338 285 394 272 q 335 246 335 260 q 372 186 335 206 q 489 167 408 167 l 733 167 l 711 26 q 393 -8 558 -8 m 425 403 q 542 426 508 403 q 575 501 575 450 q 490 574 575 574 q 399 533 431 574 q 353 410 367 493 q 425 403 408 403 m 213 1171 l 392 1171 l 407 999 l 278 999 l 213 1171 m 467 1033 l 631 1033 l 738 876 l 599 876 l 528 928 l 438 876 l 299 876 l 467 1033 z "},"ể":{"ha":761,"x_min":99,"x_max":878,"o":"m 393 -8 q 167 64 236 -8 q 99 276 99 136 q 113 414 99 328 q 239 676 140 594 q 507 757 338 757 q 716 706 633 757 q 799 528 799 656 q 715 326 799 381 q 483 272 632 272 q 338 285 394 272 q 335 246 335 260 q 372 186 335 206 q 489 167 408 167 l 733 167 l 711 26 q 393 -8 558 -8 m 425 403 q 542 426 508 403 q 575 501 575 450 q 490 574 575 574 q 399 533 431 574 q 353 410 367 493 q 425 403 408 403 m 719 1047 q 760 1093 760 1065 q 738 1110 760 1110 q 692 1101 719 1110 l 707 1194 q 783 1206 743 1206 q 878 1124 878 1206 q 704 954 878 1001 l 719 1047 m 471 1033 l 633 1033 l 740 876 l 603 876 l 532 928 l 440 876 l 301 876 l 471 1033 z "},"ễ":{"ha":761,"x_min":99,"x_max":803,"o":"m 393 -8 q 167 64 236 -8 q 99 276 99 136 q 113 414 99 328 q 239 676 140 594 q 507 757 338 757 q 716 706 633 757 q 799 528 799 656 q 715 326 799 381 q 483 272 632 272 q 338 285 394 272 q 335 246 335 260 q 372 186 335 206 q 489 167 408 167 l 733 167 l 711 26 q 393 -8 558 -8 m 425 403 q 542 426 508 403 q 575 501 575 450 q 490 574 575 574 q 399 533 431 574 q 353 410 367 493 q 425 403 408 403 m 313 1088 q 376 1206 333 1175 q 483 1236 418 1236 q 529 1231 506 1236 q 574 1218 553 1225 q 597 1210 578 1217 q 631 1204 615 1204 q 685 1244 676 1204 l 803 1244 q 742 1123 781 1156 q 633 1090 703 1090 q 573 1099 603 1090 q 539 1110 543 1108 q 485 1122 499 1122 q 449 1113 463 1122 q 431 1088 435 1103 l 313 1088 m 471 1033 l 633 1033 l 739 876 l 601 876 l 531 928 l 440 876 l 300 876 l 471 1033 z "},"ȅ":{"ha":761,"x_min":99,"x_max":799,"o":"m 393 -8 q 167 64 236 -8 q 99 276 99 136 q 113 414 99 328 q 239 676 140 594 q 507 757 338 757 q 716 706 633 757 q 799 528 799 656 q 715 326 799 381 q 483 272 632 272 q 338 285 394 272 q 335 246 335 260 q 372 186 335 206 q 489 167 408 167 l 733 167 l 711 26 q 393 -8 558 -8 m 425 403 q 542 426 508 403 q 575 501 575 450 q 490 574 575 574 q 399 533 431 574 q 353 410 367 493 q 425 403 408 403 m 214 1074 l 406 1074 l 478 876 l 336 876 l 214 1074 m 478 1074 l 669 1074 l 742 876 l 600 876 l 478 1074 z "},"ë":{"ha":761,"x_min":99,"x_max":799,"o":"m 393 -8 q 167 64 236 -8 q 99 276 99 136 q 113 414 99 328 q 239 676 140 594 q 507 757 338 757 q 716 706 633 757 q 799 528 799 656 q 715 326 799 381 q 483 272 632 272 q 338 285 394 272 q 335 246 335 260 q 372 186 335 206 q 489 167 408 167 l 733 167 l 711 26 q 393 -8 558 -8 m 425 403 q 542 426 508 403 q 575 501 575 450 q 490 574 575 574 q 399 533 431 574 q 353 410 367 493 q 425 403 408 403 m 333 878 q 314 885 321 878 q 307 903 307 892 l 332 1053 q 365 1086 336 1086 l 478 1086 q 503 1060 503 1086 l 479 908 q 444 878 475 878 l 333 878 m 608 878 q 590 885 597 878 q 582 903 582 892 l 607 1053 q 642 1086 611 1086 l 753 1086 q 779 1060 779 1086 l 756 908 q 744 885 754 893 q 719 878 733 878 l 608 878 z "},"ė":{"ha":761,"x_min":99,"x_max":799,"o":"m 393 -8 q 167 64 236 -8 q 99 276 99 136 q 113 414 99 328 q 239 676 140 594 q 507 757 338 757 q 716 706 633 757 q 799 528 799 656 q 715 326 799 381 q 483 272 632 272 q 338 285 394 272 q 335 246 335 260 q 372 186 335 206 q 489 167 408 167 l 733 167 l 711 26 q 393 -8 558 -8 m 425 403 q 542 426 508 403 q 575 501 575 450 q 490 574 575 574 q 399 533 431 574 q 353 410 367 493 q 425 403 408 403 m 475 888 q 456 894 463 888 q 449 913 449 901 l 449 918 l 472 1063 q 507 1096 476 1096 l 618 1096 q 644 1069 644 1096 l 644 1063 l 621 918 q 586 888 617 888 l 475 888 z "},"ẹ":{"ha":761,"x_min":99,"x_max":799,"o":"m 393 -8 q 167 64 236 -8 q 99 276 99 136 q 113 414 99 328 q 239 676 140 594 q 507 757 338 757 q 716 706 633 757 q 799 528 799 656 q 715 326 799 381 q 483 272 632 272 q 338 285 394 272 q 335 246 335 260 q 372 186 335 206 q 489 167 408 167 l 733 167 l 711 26 q 393 -8 558 -8 m 425 403 q 542 426 508 403 q 575 501 575 450 q 490 574 575 574 q 399 533 431 574 q 353 410 367 493 q 425 403 408 403 m 321 -321 q 301 -314 308 -321 q 294 -296 294 -307 l 294 -290 l 318 -146 q 353 -112 322 -112 l 464 -112 q 490 -139 490 -112 l 490 -146 l 467 -290 q 432 -321 463 -321 l 321 -321 z "},"è":{"ha":761,"x_min":99,"x_max":799,"o":"m 393 -8 q 167 64 236 -8 q 99 276 99 136 q 113 414 99 328 q 239 676 140 594 q 507 757 338 757 q 716 706 633 757 q 799 528 799 656 q 715 326 799 381 q 483 272 632 272 q 338 285 394 272 q 335 246 335 260 q 372 186 335 206 q 489 167 408 167 l 733 167 l 711 26 q 393 -8 558 -8 m 425 403 q 542 426 508 403 q 575 501 575 450 q 490 574 575 574 q 399 533 431 574 q 353 410 367 493 q 425 403 408 403 m 356 1074 l 547 1074 l 619 876 l 478 876 l 356 1074 z "},"ẻ":{"ha":761,"x_min":99,"x_max":799,"o":"m 393 -8 q 167 64 236 -8 q 99 276 99 136 q 113 414 99 328 q 239 676 140 594 q 507 757 338 757 q 716 706 633 757 q 799 528 799 656 q 715 326 799 381 q 483 272 632 272 q 338 285 394 272 q 335 246 335 260 q 372 186 335 206 q 489 167 408 167 l 733 167 l 711 26 q 393 -8 558 -8 m 425 403 q 542 426 508 403 q 575 501 575 450 q 490 574 575 574 q 399 533 431 574 q 353 410 367 493 q 425 403 408 403 m 486 925 q 542 978 542 940 q 507 1001 542 1001 q 463 993 493 1001 l 476 1086 q 556 1097 513 1097 q 669 999 669 1097 q 471 821 669 875 l 486 925 z "},"ȇ":{"ha":761,"x_min":99,"x_max":799,"o":"m 393 -8 q 167 64 236 -8 q 99 276 99 136 q 113 414 99 328 q 239 676 140 594 q 507 757 338 757 q 716 706 633 757 q 799 528 799 656 q 715 326 799 381 q 483 272 632 272 q 338 285 394 272 q 335 246 335 260 q 372 186 335 206 q 489 167 408 167 l 733 167 l 711 26 q 393 -8 558 -8 m 425 403 q 542 426 508 403 q 575 501 575 450 q 490 574 575 574 q 399 533 431 574 q 353 410 367 493 q 425 403 408 403 m 328 867 q 561 1081 363 1081 q 686 1041 643 1081 q 729 924 729 1001 q 724 867 729 908 l 614 867 q 617 897 617 889 q 597 956 617 938 q 544 974 576 974 q 442 867 458 974 l 328 867 z "},"ē":{"ha":761,"x_min":99,"x_max":799,"o":"m 393 -8 q 167 64 236 -8 q 99 276 99 136 q 113 414 99 328 q 239 676 140 594 q 507 757 338 757 q 716 706 633 757 q 799 528 799 656 q 715 326 799 381 q 483 272 632 272 q 338 285 394 272 q 335 246 335 260 q 372 186 335 206 q 489 167 408 167 l 733 167 l 711 26 q 393 -8 558 -8 m 425 403 q 542 426 508 403 q 575 501 575 450 q 490 574 575 574 q 399 533 431 574 q 353 410 367 493 q 425 403 408 403 m 357 1028 l 756 1028 l 733 888 l 335 888 l 357 1028 z "},"ḗ":{"ha":761,"x_min":99,"x_max":806,"o":"m 393 -8 q 167 64 236 -8 q 99 276 99 136 q 113 414 99 328 q 239 676 140 594 q 507 757 338 757 q 716 706 633 757 q 799 528 799 656 q 715 326 799 381 q 483 272 632 272 q 338 285 394 272 q 335 246 335 260 q 372 186 335 206 q 489 167 408 167 l 733 167 l 711 26 q 393 -8 558 -8 m 425 403 q 542 426 508 403 q 575 501 575 450 q 490 574 575 574 q 399 533 431 574 q 353 410 367 493 q 425 403 408 403 m 357 1028 l 756 1028 l 733 888 l 335 888 l 357 1028 m 603 1289 l 806 1289 l 632 1092 l 479 1092 l 603 1289 z "},"ḕ":{"ha":761,"x_min":99,"x_max":799,"o":"m 393 -8 q 167 64 236 -8 q 99 276 99 136 q 113 414 99 328 q 239 676 140 594 q 507 757 338 757 q 716 706 633 757 q 799 528 799 656 q 715 326 799 381 q 483 272 632 272 q 338 285 394 272 q 335 246 335 260 q 372 186 335 206 q 489 167 408 167 l 733 167 l 711 26 q 393 -8 558 -8 m 425 403 q 542 426 508 403 q 575 501 575 450 q 490 574 575 574 q 399 533 431 574 q 353 410 367 493 q 425 403 408 403 m 357 1028 l 756 1028 l 733 888 l 335 888 l 357 1028 m 356 1289 l 547 1289 l 619 1092 l 478 1092 l 356 1289 z "},"ę":{"ha":761,"x_min":99,"x_max":799,"o":"m 483 272 q 338 285 394 272 q 335 246 335 260 q 372 186 335 206 q 489 167 408 167 l 733 167 l 711 26 q 654 -24 672 3 q 636 -72 636 -51 q 653 -111 636 -97 q 696 -125 669 -125 l 708 -125 l 692 -237 q 643 -243 679 -243 q 544 -213 575 -243 q 513 -139 513 -183 q 590 6 513 -54 q 393 -8 490 -8 q 167 64 236 -8 q 99 276 99 136 q 113 414 99 328 q 239 676 140 594 q 507 757 338 757 q 716 706 633 757 q 799 528 799 656 q 715 326 799 381 q 483 272 632 272 m 490 574 q 399 533 431 574 q 353 410 367 493 q 425 403 408 403 q 542 426 508 403 q 575 501 575 450 q 490 574 575 574 z "},"ẽ":{"ha":761,"x_min":99,"x_max":808,"o":"m 393 -8 q 167 64 236 -8 q 99 276 99 136 q 113 414 99 328 q 239 676 140 594 q 507 757 338 757 q 716 706 633 757 q 799 528 799 656 q 715 326 799 381 q 483 272 632 272 q 338 285 394 272 q 335 246 335 260 q 372 186 335 206 q 489 167 408 167 l 733 167 l 711 26 q 393 -8 558 -8 m 425 403 q 542 426 508 403 q 575 501 575 450 q 490 574 575 574 q 399 533 431 574 q 353 410 367 493 q 425 403 408 403 m 260 875 q 439 1057 304 1057 q 498 1049 471 1057 q 558 1028 525 1042 q 597 1015 578 1021 q 632 1008 617 1008 q 689 1065 681 1008 l 808 1065 q 740 921 782 965 q 632 876 699 876 q 576 883 601 876 q 507 906 551 890 q 438 925 458 925 q 400 910 415 925 q 379 875 385 896 l 260 875 z "},"ə":{"ha":761,"x_min":88,"x_max":788,"o":"m 493 760 q 719 688 650 760 q 788 475 788 615 q 774 338 788 424 q 647 76 746 157 q 379 -6 549 -6 q 170 45 253 -6 q 88 224 88 96 q 171 425 88 371 q 403 479 254 479 q 549 467 492 479 q 551 506 551 492 q 515 565 551 546 q 397 585 478 585 l 153 585 l 175 725 q 493 760 328 760 m 461 349 q 344 325 378 349 q 311 250 311 301 q 396 178 311 178 q 488 218 456 178 q 533 342 519 258 q 461 349 478 349 z "},"f":{"ha":550,"x_min":104,"x_max":710,"o":"m 206 556 l 104 556 l 129 710 l 236 747 l 254 856 q 342 1019 274 971 q 539 1068 410 1068 q 710 1054 626 1068 l 681 878 l 585 878 q 510 858 533 878 q 481 788 486 838 l 476 747 l 642 747 l 611 556 l 446 556 l 358 0 l 118 0 l 206 556 z "},"ḟ":{"ha":550,"x_min":104,"x_max":710,"o":"m 206 556 l 104 556 l 129 710 l 236 747 l 254 856 q 342 1019 274 971 q 539 1068 410 1068 q 710 1054 626 1068 l 681 878 l 585 878 q 510 858 533 878 q 481 788 486 838 l 476 747 l 642 747 l 611 556 l 446 556 l 358 0 l 118 0 l 206 556 m 450 1165 q 431 1172 438 1165 q 424 1190 424 1179 l 424 1196 l 447 1340 q 482 1374 451 1374 l 593 1374 q 619 1347 619 1374 l 619 1340 l 596 1196 q 561 1165 592 1165 l 450 1165 z "},"g":{"ha":804,"x_min":43,"x_max":844,"o":"m 43 -308 l 68 -143 l 307 -143 q 433 -121 389 -143 q 486 -40 476 -99 l 504 74 q 406 17 469 42 q 289 -8 343 -8 q 145 66 193 -8 q 97 251 97 140 q 115 428 97 307 q 249 682 144 608 q 508 756 353 756 q 694 741 607 756 q 844 704 782 726 l 719 -78 q 606 -269 699 -208 q 338 -329 514 -329 q 221 -324 276 -329 l 43 -308 m 414 183 q 528 229 469 183 l 579 554 q 494 564 531 564 q 402 525 440 564 q 349 401 364 486 l 344 371 q 336 293 336 319 q 356 211 336 239 q 414 183 376 183 z "},"ğ":{"ha":804,"x_min":43,"x_max":844,"o":"m 43 -308 l 68 -143 l 307 -143 q 433 -121 389 -143 q 486 -40 476 -99 l 504 74 q 406 17 469 42 q 289 -8 343 -8 q 145 66 193 -8 q 97 251 97 140 q 115 428 97 307 q 249 682 144 608 q 508 756 353 756 q 694 741 607 756 q 844 704 782 726 l 719 -78 q 606 -269 699 -208 q 338 -329 514 -329 q 221 -324 276 -329 l 43 -308 m 414 183 q 528 229 469 183 l 579 554 q 494 564 531 564 q 402 525 440 564 q 349 401 364 486 l 344 371 q 336 293 336 319 q 356 211 336 239 q 414 183 376 183 m 531 864 q 406 903 449 864 q 363 1021 363 943 q 368 1078 363 1036 l 478 1078 q 475 1049 475 1056 q 495 990 475 1008 q 547 972 515 972 q 650 1078 633 972 l 764 1078 q 531 864 729 864 z "},"ǧ":{"ha":804,"x_min":43,"x_max":844,"o":"m 43 -308 l 68 -143 l 307 -143 q 433 -121 389 -143 q 486 -40 476 -99 l 504 74 q 406 17 469 42 q 289 -8 343 -8 q 145 66 193 -8 q 97 251 97 140 q 115 428 97 307 q 249 682 144 608 q 508 756 353 756 q 694 741 607 756 q 844 704 782 726 l 719 -78 q 606 -269 699 -208 q 338 -329 514 -329 q 221 -324 276 -329 l 43 -308 m 414 183 q 528 229 469 183 l 579 554 q 494 564 531 564 q 402 525 440 564 q 349 401 364 486 l 344 371 q 336 293 336 319 q 356 211 336 239 q 414 183 376 183 m 357 1076 l 494 1076 l 558 982 l 656 1076 l 796 1076 l 619 876 l 457 876 l 357 1076 z "},"ĝ":{"ha":804,"x_min":43,"x_max":844,"o":"m 43 -308 l 68 -143 l 307 -143 q 433 -121 389 -143 q 486 -40 476 -99 l 504 74 q 406 17 469 42 q 289 -8 343 -8 q 145 66 193 -8 q 97 251 97 140 q 115 428 97 307 q 249 682 144 608 q 508 756 353 756 q 694 741 607 756 q 844 704 782 726 l 719 -78 q 606 -269 699 -208 q 338 -329 514 -329 q 221 -324 276 -329 l 43 -308 m 414 183 q 528 229 469 183 l 579 554 q 494 564 531 564 q 402 525 440 564 q 349 401 364 486 l 344 371 q 336 293 336 319 q 356 211 336 239 q 414 183 376 183 m 479 1076 l 642 1076 l 742 876 l 603 876 l 540 971 l 442 876 l 303 876 l 479 1076 z "},"ģ":{"ha":804,"x_min":43,"x_max":844,"o":"m 43 -308 l 68 -143 l 307 -143 q 433 -121 389 -143 q 486 -40 476 -99 l 504 74 q 406 17 469 42 q 289 -8 343 -8 q 145 66 193 -8 q 97 251 97 140 q 115 428 97 307 q 249 682 144 608 q 508 756 353 756 q 694 741 607 756 q 844 704 782 726 l 719 -78 q 606 -269 699 -208 q 338 -329 514 -329 q 221 -324 276 -329 l 43 -308 m 414 183 q 528 229 469 183 l 579 554 q 494 564 531 564 q 402 525 440 564 q 349 401 364 486 l 344 371 q 336 293 336 319 q 356 211 336 239 q 414 183 376 183 m 422 878 q 482 1033 439 986 q 618 1079 525 1079 l 697 1079 l 682 981 l 643 969 q 588 942 603 958 q 567 878 574 925 l 422 878 z "},"ġ":{"ha":804,"x_min":43,"x_max":844,"o":"m 43 -308 l 68 -143 l 307 -143 q 433 -121 389 -143 q 486 -40 476 -99 l 504 74 q 406 17 469 42 q 289 -8 343 -8 q 145 66 193 -8 q 97 251 97 140 q 115 428 97 307 q 249 682 144 608 q 508 756 353 756 q 694 741 607 756 q 844 704 782 726 l 719 -78 q 606 -269 699 -208 q 338 -329 514 -329 q 221 -324 276 -329 l 43 -308 m 414 183 q 528 229 469 183 l 579 554 q 494 564 531 564 q 402 525 440 564 q 349 401 364 486 l 344 371 q 336 293 336 319 q 356 211 336 239 q 414 183 376 183 m 476 888 q 457 894 464 888 q 450 913 450 901 l 450 918 l 474 1063 q 508 1096 478 1096 l 619 1096 q 646 1069 646 1096 l 646 1063 l 622 918 q 588 888 618 888 l 476 888 z "},"ḡ":{"ha":804,"x_min":43,"x_max":844,"o":"m 43 -308 l 68 -143 l 307 -143 q 433 -121 389 -143 q 486 -40 476 -99 l 504 74 q 406 17 469 42 q 289 -8 343 -8 q 145 66 193 -8 q 97 251 97 140 q 115 428 97 307 q 249 682 144 608 q 508 756 353 756 q 694 741 607 756 q 844 704 782 726 l 719 -78 q 606 -269 699 -208 q 338 -329 514 -329 q 221 -324 276 -329 l 43 -308 m 414 183 q 528 229 469 183 l 579 554 q 494 564 531 564 q 402 525 440 564 q 349 401 364 486 l 344 371 q 336 293 336 319 q 356 211 336 239 q 414 183 376 183 m 358 1028 l 757 1028 l 735 888 l 336 888 l 358 1028 z "},"h":{"ha":828,"x_min":68,"x_max":846,"o":"m 236 1060 l 475 1060 l 414 674 q 522 732 458 708 q 661 756 586 756 q 799 711 753 756 q 846 568 846 667 q 838 478 846 528 l 763 0 l 522 0 l 593 450 q 594 476 594 458 q 525 540 594 540 q 385 485 447 540 l 307 0 l 68 0 l 236 1060 z "},"ħ":{"ha":828,"x_min":68,"x_max":846,"o":"m 661 756 q 799 711 753 756 q 846 568 846 667 q 838 478 846 528 l 763 0 l 522 0 l 593 450 q 594 476 594 458 q 525 540 594 540 q 385 485 447 540 l 307 0 l 68 0 l 203 847 l 135 847 l 149 940 l 217 940 l 236 1060 l 475 1060 l 456 940 l 617 940 l 601 847 l 442 847 l 414 674 q 522 732 458 708 q 661 756 586 756 z "},"ḫ":{"ha":828,"x_min":68,"x_max":846,"o":"m 236 1060 l 475 1060 l 414 674 q 522 732 458 708 q 661 756 586 756 q 799 711 753 756 q 846 568 846 667 q 838 478 846 528 l 763 0 l 522 0 l 593 450 q 594 476 594 458 q 525 540 594 540 q 385 485 447 540 l 307 0 l 68 0 l 236 1060 m 356 -317 q 231 -277 274 -317 q 188 -160 188 -237 q 193 -103 188 -144 l 303 -103 q 300 -133 300 -125 q 320 -192 300 -174 q 372 -210 340 -210 q 475 -103 460 -210 l 589 -103 q 513 -263 572 -210 q 356 -317 453 -317 z "},"ĥ":{"ha":828,"x_min":68,"x_max":846,"o":"m 236 1060 l 475 1060 l 414 674 q 522 732 458 708 q 661 756 586 756 q 799 711 753 756 q 846 568 846 667 q 838 478 846 528 l 763 0 l 522 0 l 593 450 q 594 476 594 458 q 525 540 594 540 q 385 485 447 540 l 307 0 l 68 0 l 236 1060 m 432 1354 l 594 1354 l 694 1154 l 556 1154 l 493 1249 l 394 1154 l 256 1154 l 432 1354 z "},"ḥ":{"ha":828,"x_min":68,"x_max":846,"o":"m 236 1060 l 475 1060 l 414 674 q 522 732 458 708 q 661 756 586 756 q 799 711 753 756 q 846 568 846 667 q 838 478 846 528 l 763 0 l 522 0 l 593 450 q 594 476 594 458 q 525 540 594 540 q 385 485 447 540 l 307 0 l 68 0 l 236 1060 m 310 -321 q 290 -314 297 -321 q 283 -296 283 -307 l 283 -290 l 307 -146 q 342 -112 311 -112 l 453 -112 q 479 -139 479 -112 l 479 -146 l 456 -290 q 421 -321 451 -321 l 310 -321 z "},"i":{"ha":372,"x_min":67,"x_max":475,"o":"m 229 849 q 208 857 215 849 q 204 879 201 865 l 226 1025 q 263 1057 231 1057 l 449 1057 q 469 1048 463 1057 q 472 1025 475 1039 l 450 879 q 417 849 443 849 l 229 849 m 185 747 l 425 747 l 307 0 l 67 0 l 185 747 z "},"ı":{"ha":374,"x_min":68,"x_max":426,"o":"m 186 747 l 426 747 l 308 0 l 68 0 l 186 747 z "},"í":{"ha":374,"x_min":68,"x_max":581,"o":"m 186 747 l 426 747 l 308 0 l 68 0 l 186 747 m 378 1074 l 581 1074 l 407 876 l 254 876 l 378 1074 z "},"ĭ":{"ha":374,"x_min":68,"x_max":565,"o":"m 186 747 l 426 747 l 308 0 l 68 0 l 186 747 m 332 864 q 207 903 250 864 q 164 1021 164 943 q 169 1078 164 1036 l 279 1078 q 276 1049 276 1056 q 297 990 276 1008 q 349 972 317 972 q 451 1078 435 972 l 565 1078 q 332 864 531 864 z "},"î":{"ha":374,"x_min":68,"x_max":543,"o":"m 186 747 l 426 747 l 308 0 l 68 0 l 186 747 m 281 1076 l 443 1076 l 543 876 l 404 876 l 342 971 l 243 876 l 104 876 l 281 1076 z "},"ȉ":{"ha":374,"x_min":17,"x_max":544,"o":"m 186 747 l 426 747 l 308 0 l 68 0 l 186 747 m 17 1074 l 208 1074 l 281 876 l 139 876 l 17 1074 m 281 1074 l 472 1074 l 544 876 l 403 876 l 281 1074 z "},"ï":{"ha":374,"x_min":68,"x_max":582,"o":"m 186 747 l 426 747 l 308 0 l 68 0 l 186 747 m 136 878 q 117 885 124 878 q 110 903 110 892 l 135 1053 q 168 1086 139 1086 l 281 1086 q 306 1060 306 1086 l 282 908 q 247 878 278 878 l 136 878 m 411 878 q 392 885 400 878 q 385 903 385 892 l 410 1053 q 444 1086 414 1086 l 556 1086 q 582 1060 582 1086 l 558 908 q 547 885 557 893 q 522 878 536 878 l 411 878 z "},"ḯ":{"ha":374,"x_min":68,"x_max":607,"o":"m 186 747 l 426 747 l 308 0 l 68 0 l 186 747 m 136 878 q 117 885 124 878 q 110 903 110 892 l 135 1053 q 168 1086 139 1086 l 281 1086 q 306 1060 306 1086 l 282 908 q 247 878 278 878 l 136 878 m 411 878 q 392 885 400 878 q 385 903 385 892 l 410 1053 q 444 1086 414 1086 l 556 1086 q 582 1060 582 1086 l 558 908 q 547 885 557 893 q 522 878 536 878 l 411 878 m 404 1344 l 607 1344 l 433 1147 l 281 1147 l 404 1344 z "},"ị":{"ha":372,"x_min":67,"x_max":472,"o":"m 229 849 q 208 857 215 849 q 204 879 201 865 l 226 1025 q 263 1057 231 1057 l 449 1057 q 469 1048 463 1057 q 472 1025 475 1039 l 450 879 q 417 849 443 849 l 229 849 m 185 747 l 425 747 l 307 0 l 67 0 l 185 747 m 108 -321 q 89 -314 96 -321 q 82 -296 82 -307 l 82 -290 l 106 -146 q 140 -112 110 -112 l 251 -112 q 278 -139 278 -112 l 278 -146 l 254 -290 q 219 -321 250 -321 l 108 -321 z "},"ì":{"ha":374,"x_min":68,"x_max":426,"o":"m 186 747 l 426 747 l 308 0 l 68 0 l 186 747 m 158 1074 l 350 1074 l 422 876 l 281 876 l 158 1074 z "},"ỉ":{"ha":374,"x_min":68,"x_max":472,"o":"m 186 747 l 426 747 l 308 0 l 68 0 l 186 747 m 289 925 q 344 978 344 940 q 310 1001 344 1001 q 265 993 296 1001 l 279 1086 q 358 1097 315 1097 q 472 999 472 1097 q 274 821 472 875 l 289 925 z "},"ȋ":{"ha":374,"x_min":68,"x_max":532,"o":"m 186 747 l 426 747 l 308 0 l 68 0 l 186 747 m 131 867 q 364 1081 165 1081 q 489 1041 446 1081 q 532 924 532 1001 q 526 867 532 908 l 417 867 q 419 897 419 889 q 399 956 419 938 q 347 974 379 974 q 244 867 261 974 l 131 867 z "},"ī":{"ha":374,"x_min":68,"x_max":558,"o":"m 186 747 l 426 747 l 308 0 l 68 0 l 186 747 m 160 1028 l 558 1028 l 536 888 l 138 888 l 160 1028 z "},"į":{"ha":372,"x_min":67,"x_max":472,"o":"m 229 849 q 208 857 215 849 q 204 879 201 865 l 226 1025 q 263 1057 231 1057 l 449 1057 q 469 1048 463 1057 q 472 1025 475 1039 l 450 879 q 417 849 443 849 l 229 849 m 185 747 l 425 747 l 307 0 l 67 0 l 185 747 m 239 -269 q 140 -240 171 -269 q 108 -165 108 -210 q 138 -70 108 -112 q 221 0 168 -28 l 307 0 q 250 -51 268 -24 q 232 -99 232 -78 q 249 -137 232 -124 q 292 -151 265 -151 l 304 -151 l 288 -264 q 239 -269 275 -269 z "},"ĩ":{"ha":374,"x_min":63,"x_max":611,"o":"m 186 747 l 426 747 l 308 0 l 68 0 l 186 747 m 63 875 q 242 1057 107 1057 q 301 1049 274 1057 q 361 1028 328 1042 q 400 1015 381 1021 q 435 1008 419 1008 q 492 1065 483 1008 l 611 1065 q 543 921 585 965 q 435 876 501 876 q 379 883 404 876 q 310 906 354 890 q 240 925 261 925 q 203 910 218 925 q 182 875 188 896 l 63 875 z "},"j":{"ha":372,"x_min":14,"x_max":475,"o":"m 229 849 q 208 857 215 849 q 204 879 201 865 l 226 1025 q 263 1057 231 1057 l 449 1057 q 469 1048 463 1057 q 472 1025 475 1039 l 450 879 q 417 849 443 849 l 229 849 m 185 747 l 425 747 l 306 -6 q 192 -329 283 -144 l 14 -329 l 185 747 z "},"ȷ":{"ha":374,"x_min":15,"x_max":426,"o":"m 186 747 l 426 747 l 307 -6 q 193 -329 285 -144 l 15 -329 l 186 747 z "},"ĵ":{"ha":374,"x_min":15,"x_max":543,"o":"m 186 747 l 426 747 l 307 -6 q 193 -329 285 -144 l 15 -329 l 186 747 m 281 1076 l 443 1076 l 543 876 l 404 876 l 342 971 l 243 876 l 104 876 l 281 1076 z "},"k":{"ha":800,"x_min":68,"x_max":858,"o":"m 236 1060 l 475 1060 l 386 496 q 618 747 565 536 l 858 747 q 626 401 789 496 l 815 0 l 569 0 l 426 328 q 357 318 390 318 l 307 0 l 68 0 l 236 1060 z "},"ķ":{"ha":800,"x_min":68,"x_max":858,"o":"m 236 1060 l 475 1060 l 386 496 q 618 747 565 536 l 858 747 q 626 401 789 496 l 815 0 l 569 0 l 426 328 q 357 318 390 318 l 307 0 l 68 0 l 236 1060 m 265 -208 l 304 -197 q 358 -169 343 -186 q 381 -106 374 -153 l 525 -106 q 465 -261 508 -215 q 328 -307 421 -307 l 250 -307 l 265 -208 z "},"ĸ":{"ha":800,"x_min":67,"x_max":857,"o":"m 185 747 l 424 747 l 385 493 q 617 747 564 532 l 857 747 q 625 399 786 492 l 814 0 l 568 0 l 425 324 q 356 314 389 314 l 306 0 l 67 0 l 185 747 z "},"l":{"ha":463,"x_min":104,"x_max":475,"o":"m 344 0 q 166 47 228 0 q 104 174 104 94 q 108 261 104 235 l 236 1060 l 475 1060 l 363 344 q 351 247 351 267 q 367 199 351 213 q 418 182 383 186 l 464 174 l 438 0 l 344 0 z "},"ĺ":{"ha":463,"x_min":104,"x_max":622,"o":"m 344 0 q 166 47 228 0 q 104 174 104 94 q 108 261 104 235 l 236 1060 l 475 1060 l 363 344 q 351 247 351 267 q 367 199 351 213 q 418 182 383 186 l 464 174 l 438 0 l 344 0 m 419 1351 l 622 1351 l 449 1154 l 296 1154 l 419 1351 z "},"ľ":{"ha":463,"x_min":104,"x_max":763,"o":"m 344 0 q 166 47 228 0 q 104 174 104 94 q 108 261 104 235 l 236 1060 l 475 1060 l 363 344 q 351 247 351 267 q 367 199 351 213 q 418 182 383 186 l 464 174 l 438 0 l 344 0 m 531 996 l 546 1089 l 763 1089 l 747 996 l 704 806 l 515 806 l 531 996 z "},"ļ":{"ha":463,"x_min":79,"x_max":475,"o":"m 344 0 q 166 47 228 0 q 104 174 104 94 q 108 261 104 235 l 236 1060 l 475 1060 l 363 344 q 351 247 351 267 q 367 199 351 213 q 418 182 383 186 l 464 174 l 438 0 l 344 0 m 94 -208 l 133 -197 q 188 -169 172 -186 q 210 -106 203 -153 l 354 -106 q 294 -261 338 -215 q 157 -307 250 -307 l 79 -307 l 94 -208 z "},"ŀ":{"ha":528,"x_min":104,"x_max":660,"o":"m 344 0 q 166 47 228 0 q 104 174 104 94 q 108 261 104 235 l 236 1060 l 475 1060 l 363 344 q 351 247 351 267 q 367 199 351 213 q 418 182 383 186 l 464 174 l 438 0 l 344 0 m 460 442 q 438 450 446 442 q 432 472 431 458 l 456 617 q 492 649 460 649 l 632 649 q 658 617 665 649 l 635 472 q 599 442 629 442 l 460 442 z "},"ḷ":{"ha":463,"x_min":104,"x_max":475,"o":"m 344 0 q 166 47 228 0 q 104 174 104 94 q 108 261 104 235 l 236 1060 l 475 1060 l 363 344 q 351 247 351 267 q 367 199 351 213 q 418 182 383 186 l 464 174 l 438 0 l 344 0 m 158 -321 q 139 -314 146 -321 q 132 -296 132 -307 l 132 -290 l 156 -146 q 190 -112 160 -112 l 301 -112 q 328 -139 328 -112 l 328 -146 l 304 -290 q 269 -321 300 -321 l 158 -321 z "},"ḻ":{"ha":463,"x_min":24,"x_max":475,"o":"m 344 0 q 166 47 228 0 q 104 174 104 94 q 108 261 104 235 l 236 1060 l 475 1060 l 363 344 q 351 247 351 267 q 367 199 351 213 q 418 182 383 186 l 464 174 l 438 0 l 344 0 m 46 -167 l 444 -167 l 422 -307 l 24 -307 l 46 -167 z "},"ł":{"ha":463,"x_min":65,"x_max":542,"o":"m 363 344 q 351 247 351 267 q 367 199 351 213 q 418 182 383 186 l 464 174 l 438 0 l 344 0 q 166 47 228 0 q 104 174 104 94 q 108 261 104 235 l 146 492 l 65 461 l 85 588 l 165 618 l 236 1060 l 475 1060 l 418 697 l 542 746 l 522 619 l 399 571 l 363 344 z "},"m":{"ha":1283,"x_min":68,"x_max":1300,"o":"m 185 747 l 385 747 l 414 674 q 526 734 467 713 q 663 756 585 756 q 769 731 726 756 q 840 647 811 706 q 967 729 897 703 q 1101 756 1036 756 q 1253 709 1207 756 q 1300 578 1300 663 q 1289 456 1300 518 l 1217 0 l 976 0 l 1049 450 q 1050 474 1050 457 q 974 540 1050 540 q 838 483 903 540 l 833 446 l 763 0 l 522 0 l 593 447 q 594 475 594 458 q 576 525 594 510 q 519 540 557 540 q 447 526 479 540 q 385 485 415 511 l 307 0 l 68 0 l 185 747 z "},"ṁ":{"ha":1283,"x_min":68,"x_max":1300,"o":"m 185 747 l 385 747 l 414 674 q 526 734 467 713 q 663 756 585 756 q 769 731 726 756 q 840 647 811 706 q 967 729 897 703 q 1101 756 1036 756 q 1253 709 1207 756 q 1300 578 1300 663 q 1289 456 1300 518 l 1217 0 l 976 0 l 1049 450 q 1050 474 1050 457 q 974 540 1050 540 q 838 483 903 540 l 833 446 l 763 0 l 522 0 l 593 447 q 594 475 594 458 q 576 525 594 510 q 519 540 557 540 q 447 526 479 540 q 385 485 415 511 l 307 0 l 68 0 l 185 747 m 742 888 q 722 894 729 888 q 715 913 715 901 l 715 918 l 739 1063 q 774 1096 743 1096 l 885 1096 q 911 1069 911 1096 l 911 1063 l 888 918 q 853 888 883 888 l 742 888 z "},"ṃ":{"ha":1283,"x_min":68,"x_max":1300,"o":"m 185 747 l 385 747 l 414 674 q 526 734 467 713 q 663 756 585 756 q 769 731 726 756 q 840 647 811 706 q 967 729 897 703 q 1101 756 1036 756 q 1253 709 1207 756 q 1300 578 1300 663 q 1289 456 1300 518 l 1217 0 l 976 0 l 1049 450 q 1050 474 1050 457 q 974 540 1050 540 q 838 483 903 540 l 833 446 l 763 0 l 522 0 l 593 447 q 594 475 594 458 q 576 525 594 510 q 519 540 557 540 q 447 526 479 540 q 385 485 415 511 l 307 0 l 68 0 l 185 747 m 560 -321 q 540 -314 547 -321 q 533 -296 533 -307 l 533 -290 l 557 -146 q 592 -112 561 -112 l 703 -112 q 729 -139 729 -112 l 729 -146 l 706 -290 q 671 -321 701 -321 l 560 -321 z "},"n":{"ha":828,"x_min":68,"x_max":846,"o":"m 185 747 l 385 747 l 414 674 q 658 756 521 756 q 796 710 746 756 q 846 590 846 665 q 829 428 846 525 l 763 0 l 522 0 l 589 419 q 594 476 594 463 q 519 540 594 540 q 385 485 447 540 l 307 0 l 68 0 l 185 747 z "},"ń":{"ha":828,"x_min":68,"x_max":846,"o":"m 185 747 l 385 747 l 414 674 q 658 756 521 756 q 796 710 746 756 q 846 590 846 665 q 829 428 846 525 l 763 0 l 522 0 l 589 419 q 594 476 594 463 q 519 540 594 540 q 385 485 447 540 l 307 0 l 68 0 l 185 747 m 592 1074 l 794 1074 l 621 876 l 468 876 l 592 1074 z "},"ň":{"ha":828,"x_min":68,"x_max":846,"o":"m 185 747 l 385 747 l 414 674 q 658 756 521 756 q 796 710 746 756 q 846 590 846 665 q 829 428 846 525 l 763 0 l 522 0 l 589 419 q 594 476 594 463 q 519 540 594 540 q 385 485 447 540 l 307 0 l 68 0 l 185 747 m 372 1076 l 510 1076 l 574 982 l 671 1076 l 811 1076 l 635 876 l 472 876 l 372 1076 z "},"ņ":{"ha":828,"x_min":68,"x_max":846,"o":"m 185 747 l 385 747 l 414 674 q 658 756 521 756 q 796 710 746 756 q 846 590 846 665 q 829 428 846 525 l 763 0 l 522 0 l 589 419 q 594 476 594 463 q 519 540 594 540 q 385 485 447 540 l 307 0 l 68 0 l 185 747 m 246 -208 l 285 -197 q 339 -169 324 -186 q 361 -106 354 -153 l 506 -106 q 445 -261 489 -215 q 308 -307 401 -307 l 231 -307 l 246 -208 z "},"ṅ":{"ha":828,"x_min":68,"x_max":846,"o":"m 185 747 l 385 747 l 414 674 q 658 756 521 756 q 796 710 746 756 q 846 590 846 665 q 829 428 846 525 l 763 0 l 522 0 l 589 419 q 594 476 594 463 q 519 540 594 540 q 385 485 447 540 l 307 0 l 68 0 l 185 747 m 310 -321 q 290 -314 297 -321 q 283 -296 283 -307 l 283 -290 l 307 -146 q 342 -112 311 -112 l 453 -112 q 479 -139 479 -112 l 479 -146 l 456 -290 q 421 -321 451 -321 l 310 -321 z "},"ṇ":{"ha":828,"x_min":68,"x_max":846,"o":"m 185 747 l 385 747 l 414 674 q 658 756 521 756 q 796 710 746 756 q 846 590 846 665 q 829 428 846 525 l 763 0 l 522 0 l 589 419 q 594 476 594 463 q 519 540 594 540 q 385 485 447 540 l 307 0 l 68 0 l 185 747 m 310 -321 q 290 -314 297 -321 q 283 -296 283 -307 l 283 -290 l 307 -146 q 342 -112 311 -112 l 453 -112 q 479 -139 479 -112 l 479 -146 l 456 -290 q 421 -321 451 -321 l 310 -321 z "},"ŋ":{"ha":828,"x_min":68,"x_max":846,"o":"m 846 590 q 829 428 846 525 l 764 8 l 754 -54 q 685 -226 738 -156 q 561 -329 632 -296 l 369 -329 q 458 -226 419 -289 q 513 -61 496 -162 l 522 0 l 589 419 q 594 476 594 463 q 519 540 594 540 q 385 485 447 540 l 307 0 l 68 0 l 185 747 l 385 747 l 414 674 q 658 756 521 756 q 796 710 746 756 q 846 590 846 665 z "},"ṉ":{"ha":828,"x_min":68,"x_max":846,"o":"m 185 747 l 385 747 l 414 674 q 658 756 521 756 q 796 710 746 756 q 846 590 846 665 q 829 428 846 525 l 763 0 l 522 0 l 589 419 q 594 476 594 463 q 519 540 594 540 q 385 485 447 540 l 307 0 l 68 0 l 185 747 m 197 -167 l 596 -167 l 574 -307 l 175 -307 l 197 -167 z "},"ñ":{"ha":828,"x_min":68,"x_max":846,"o":"m 185 747 l 385 747 l 414 674 q 658 756 521 756 q 796 710 746 756 q 846 590 846 665 q 829 428 846 525 l 763 0 l 522 0 l 589 419 q 594 476 594 463 q 519 540 594 540 q 385 485 447 540 l 307 0 l 68 0 l 185 747 m 276 875 q 456 1057 321 1057 q 515 1049 488 1057 q 575 1028 542 1042 q 614 1015 594 1021 q 649 1008 633 1008 q 706 1065 697 1008 l 825 1065 q 757 921 799 965 q 649 876 715 876 q 593 883 618 876 q 524 906 568 890 q 454 925 475 925 q 417 910 432 925 q 396 875 401 896 l 276 875 z "},"o":{"ha":801,"x_min":99,"x_max":818,"o":"m 400 -8 q 174 58 249 -8 q 99 254 99 125 q 110 397 99 328 q 181 622 133 546 q 308 727 229 699 q 519 756 388 756 q 705 726 640 756 q 794 639 769 697 q 818 481 818 581 q 806 329 818 411 q 736 122 785 194 q 608 20 688 49 q 400 -8 528 -8 m 425 183 q 498 198 472 183 q 539 251 524 213 q 567 364 554 289 q 579 490 579 442 q 558 551 579 535 q 488 568 538 568 q 415 551 440 568 q 374 492 389 535 q 346 364 358 450 q 336 265 336 310 q 357 201 336 219 q 425 183 378 183 z "},"ó":{"ha":801,"x_min":99,"x_max":818,"o":"m 400 -8 q 174 58 249 -8 q 99 254 99 125 q 110 397 99 328 q 181 622 133 546 q 308 727 229 699 q 519 756 388 756 q 705 726 640 756 q 794 639 769 697 q 818 481 818 581 q 806 329 818 411 q 736 122 785 194 q 608 20 688 49 q 400 -8 528 -8 m 425 183 q 498 198 472 183 q 539 251 524 213 q 567 364 554 289 q 579 490 579 442 q 558 551 579 535 q 488 568 538 568 q 415 551 440 568 q 374 492 389 535 q 346 364 358 450 q 336 265 336 310 q 357 201 336 219 q 425 183 378 183 m 575 1074 l 778 1074 l 604 876 l 451 876 l 575 1074 z "},"ŏ":{"ha":801,"x_min":99,"x_max":818,"o":"m 400 -8 q 174 58 249 -8 q 99 254 99 125 q 110 397 99 328 q 181 622 133 546 q 308 727 229 699 q 519 756 388 756 q 705 726 640 756 q 794 639 769 697 q 818 481 818 581 q 806 329 818 411 q 736 122 785 194 q 608 20 688 49 q 400 -8 528 -8 m 425 183 q 498 198 472 183 q 539 251 524 213 q 567 364 554 289 q 579 490 579 442 q 558 551 579 535 q 488 568 538 568 q 415 551 440 568 q 374 492 389 535 q 346 364 358 450 q 336 265 336 310 q 357 201 336 219 q 425 183 378 183 m 529 864 q 404 903 447 864 q 361 1021 361 943 q 367 1078 361 1036 l 476 1078 q 474 1049 474 1056 q 494 990 474 1008 q 546 972 514 972 q 649 1078 632 972 l 763 1078 q 529 864 728 864 z "},"ô":{"ha":801,"x_min":99,"x_max":818,"o":"m 400 -8 q 174 58 249 -8 q 99 254 99 125 q 110 397 99 328 q 181 622 133 546 q 308 727 229 699 q 519 756 388 756 q 705 726 640 756 q 794 639 769 697 q 818 481 818 581 q 806 329 818 411 q 736 122 785 194 q 608 20 688 49 q 400 -8 528 -8 m 425 183 q 498 198 472 183 q 539 251 524 213 q 567 364 554 289 q 579 490 579 442 q 558 551 579 535 q 488 568 538 568 q 415 551 440 568 q 374 492 389 535 q 346 364 358 450 q 336 265 336 310 q 357 201 336 219 q 425 183 378 183 m 478 1076 l 640 1076 l 740 876 l 601 876 l 539 971 l 440 876 l 301 876 l 478 1076 z "},"ố":{"ha":801,"x_min":99,"x_max":926,"o":"m 400 -8 q 174 58 249 -8 q 99 254 99 125 q 110 397 99 328 q 181 622 133 546 q 308 727 229 699 q 519 756 388 756 q 705 726 640 756 q 794 639 769 697 q 818 481 818 581 q 806 329 818 411 q 736 122 785 194 q 608 20 688 49 q 400 -8 528 -8 m 425 183 q 498 198 472 183 q 539 251 524 213 q 567 364 554 289 q 579 490 579 442 q 558 551 579 535 q 488 568 538 568 q 415 551 440 568 q 374 492 389 535 q 346 364 358 450 q 336 265 336 310 q 357 201 336 219 q 425 183 378 183 m 747 1171 l 926 1171 l 804 999 l 676 999 l 747 1171 m 468 1033 l 632 1033 l 739 876 l 600 876 l 529 928 l 439 876 l 300 876 l 468 1033 z "},"ộ":{"ha":801,"x_min":99,"x_max":818,"o":"m 400 -8 q 174 58 249 -8 q 99 254 99 125 q 110 397 99 328 q 181 622 133 546 q 308 727 229 699 q 519 756 388 756 q 705 726 640 756 q 794 639 769 697 q 818 481 818 581 q 806 329 818 411 q 736 122 785 194 q 608 20 688 49 q 400 -8 528 -8 m 425 183 q 498 198 472 183 q 539 251 524 213 q 567 364 554 289 q 579 490 579 442 q 558 551 579 535 q 488 568 538 568 q 415 551 440 568 q 374 492 389 535 q 346 364 358 450 q 336 265 336 310 q 357 201 336 219 q 425 183 378 183 m 478 1076 l 640 1076 l 740 876 l 601 876 l 539 971 l 440 876 l 301 876 l 478 1076 m 293 -321 q 274 -314 281 -321 q 267 -296 267 -307 l 267 -290 l 290 -146 q 325 -112 294 -112 l 436 -112 q 463 -139 463 -112 l 463 -146 l 439 -290 q 404 -321 435 -321 l 293 -321 z "},"ồ":{"ha":801,"x_min":99,"x_max":818,"o":"m 400 -8 q 174 58 249 -8 q 99 254 99 125 q 110 397 99 328 q 181 622 133 546 q 308 727 229 699 q 519 756 388 756 q 705 726 640 756 q 794 639 769 697 q 818 481 818 581 q 806 329 818 411 q 736 122 785 194 q 608 20 688 49 q 400 -8 528 -8 m 425 183 q 498 198 472 183 q 539 251 524 213 q 567 364 554 289 q 579 490 579 442 q 558 551 579 535 q 488 568 538 568 q 415 551 440 568 q 374 492 389 535 q 346 364 358 450 q 336 265 336 310 q 357 201 336 219 q 425 183 378 183 m 213 1171 l 392 1171 l 407 999 l 278 999 l 213 1171 m 467 1033 l 631 1033 l 738 876 l 599 876 l 528 928 l 438 876 l 299 876 l 467 1033 z "},"ổ":{"ha":801,"x_min":99,"x_max":876,"o":"m 400 -8 q 174 58 249 -8 q 99 254 99 125 q 110 397 99 328 q 181 622 133 546 q 308 727 229 699 q 519 756 388 756 q 705 726 640 756 q 794 639 769 697 q 818 481 818 581 q 806 329 818 411 q 736 122 785 194 q 608 20 688 49 q 400 -8 528 -8 m 425 183 q 498 198 472 183 q 539 251 524 213 q 567 364 554 289 q 579 490 579 442 q 558 551 579 535 q 488 568 538 568 q 415 551 440 568 q 374 492 389 535 q 346 364 358 450 q 336 265 336 310 q 357 201 336 219 q 425 183 378 183 m 718 1047 q 758 1093 758 1065 q 736 1110 758 1110 q 690 1101 718 1110 l 706 1194 q 782 1206 742 1206 q 876 1124 876 1206 q 703 954 876 1001 l 718 1047 m 469 1033 l 632 1033 l 739 876 l 601 876 l 531 928 l 439 876 l 300 876 l 469 1033 z "},"ỗ":{"ha":801,"x_min":99,"x_max":818,"o":"m 400 -8 q 174 58 249 -8 q 99 254 99 125 q 110 397 99 328 q 181 622 133 546 q 308 727 229 699 q 519 756 388 756 q 705 726 640 756 q 794 639 769 697 q 818 481 818 581 q 806 329 818 411 q 736 122 785 194 q 608 20 688 49 q 400 -8 528 -8 m 425 183 q 498 198 472 183 q 539 251 524 213 q 567 364 554 289 q 579 490 579 442 q 558 551 579 535 q 488 568 538 568 q 415 551 440 568 q 374 492 389 535 q 346 364 358 450 q 336 265 336 310 q 357 201 336 219 q 425 183 378 183 m 313 1088 q 376 1206 333 1175 q 483 1236 418 1236 q 529 1231 506 1236 q 574 1218 553 1225 q 597 1210 578 1217 q 631 1204 615 1204 q 685 1244 676 1204 l 803 1244 q 742 1123 781 1156 q 633 1090 703 1090 q 573 1099 603 1090 q 539 1110 543 1108 q 485 1122 499 1122 q 449 1113 463 1122 q 431 1088 435 1103 l 313 1088 m 471 1033 l 633 1033 l 739 876 l 601 876 l 531 928 l 440 876 l 300 876 l 471 1033 z "},"ȍ":{"ha":801,"x_min":99,"x_max":818,"o":"m 400 -8 q 174 58 249 -8 q 99 254 99 125 q 110 397 99 328 q 181 622 133 546 q 308 727 229 699 q 519 756 388 756 q 705 726 640 756 q 794 639 769 697 q 818 481 818 581 q 806 329 818 411 q 736 122 785 194 q 608 20 688 49 q 400 -8 528 -8 m 425 183 q 498 198 472 183 q 539 251 524 213 q 567 364 554 289 q 579 490 579 442 q 558 551 579 535 q 488 568 538 568 q 415 551 440 568 q 374 492 389 535 q 346 364 358 450 q 336 265 336 310 q 357 201 336 219 q 425 183 378 183 m 213 1074 l 404 1074 l 476 876 l 335 876 l 213 1074 m 476 1074 l 668 1074 l 740 876 l 599 876 l 476 1074 z "},"ö":{"ha":801,"x_min":99,"x_max":818,"o":"m 400 -8 q 174 58 249 -8 q 99 254 99 125 q 110 397 99 328 q 181 622 133 546 q 308 727 229 699 q 519 756 388 756 q 705 726 640 756 q 794 639 769 697 q 818 481 818 581 q 806 329 818 411 q 736 122 785 194 q 608 20 688 49 q 400 -8 528 -8 m 425 183 q 498 198 472 183 q 539 251 524 213 q 567 364 554 289 q 579 490 579 442 q 558 551 579 535 q 488 568 538 568 q 415 551 440 568 q 374 492 389 535 q 346 364 358 450 q 336 265 336 310 q 357 201 336 219 q 425 183 378 183 m 333 878 q 314 885 321 878 q 307 903 307 892 l 332 1053 q 365 1086 336 1086 l 478 1086 q 503 1060 503 1086 l 479 908 q 444 878 475 878 l 333 878 m 608 878 q 590 885 597 878 q 582 903 582 892 l 607 1053 q 642 1086 611 1086 l 753 1086 q 779 1060 779 1086 l 756 908 q 744 885 754 893 q 719 878 733 878 l 608 878 z "},"ȫ":{"ha":801,"x_min":99,"x_max":818,"o":"m 400 -8 q 174 58 249 -8 q 99 254 99 125 q 110 397 99 328 q 181 622 133 546 q 308 727 229 699 q 519 756 388 756 q 705 726 640 756 q 794 639 769 697 q 818 481 818 581 q 806 329 818 411 q 736 122 785 194 q 608 20 688 49 q 400 -8 528 -8 m 425 183 q 498 198 472 183 q 539 251 524 213 q 567 364 554 289 q 579 490 579 442 q 558 551 579 535 q 488 568 538 568 q 415 551 440 568 q 374 492 389 535 q 346 364 358 450 q 336 265 336 310 q 357 201 336 219 q 425 183 378 183 m 329 853 q 310 860 317 853 q 303 878 303 867 l 328 1028 q 361 1061 332 1061 l 474 1061 q 499 1035 499 1061 l 475 883 q 440 853 471 853 l 329 853 m 604 853 q 585 860 593 853 q 578 878 578 867 l 603 1028 q 638 1061 607 1061 l 749 1061 q 775 1035 775 1061 l 751 883 q 740 860 750 868 q 715 853 729 853 l 604 853 m 383 1258 l 782 1258 l 760 1118 l 361 1118 l 383 1258 z "},"ȱ":{"ha":801,"x_min":99,"x_max":818,"o":"m 400 -8 q 174 58 249 -8 q 99 254 99 125 q 110 397 99 328 q 181 622 133 546 q 308 727 229 699 q 519 756 388 756 q 705 726 640 756 q 794 639 769 697 q 818 481 818 581 q 806 329 818 411 q 736 122 785 194 q 608 20 688 49 q 400 -8 528 -8 m 425 183 q 498 198 472 183 q 539 251 524 213 q 567 364 554 289 q 579 490 579 442 q 558 551 579 535 q 488 568 538 568 q 415 551 440 568 q 374 492 389 535 q 346 364 358 450 q 336 265 336 310 q 357 201 336 219 q 425 183 378 183 m 468 851 q 449 858 456 851 q 442 876 442 865 l 442 882 l 465 1026 q 500 1060 469 1060 l 611 1060 q 638 1033 638 1060 l 638 1026 l 614 882 q 579 851 610 851 l 468 851 m 376 1258 l 775 1258 l 753 1118 l 354 1118 l 376 1258 z "},"ọ":{"ha":801,"x_min":99,"x_max":818,"o":"m 400 -8 q 174 58 249 -8 q 99 254 99 125 q 110 397 99 328 q 181 622 133 546 q 308 727 229 699 q 519 756 388 756 q 705 726 640 756 q 794 639 769 697 q 818 481 818 581 q 806 329 818 411 q 736 122 785 194 q 608 20 688 49 q 400 -8 528 -8 m 425 183 q 498 198 472 183 q 539 251 524 213 q 567 364 554 289 q 579 490 579 442 q 558 551 579 535 q 488 568 538 568 q 415 551 440 568 q 374 492 389 535 q 346 364 358 450 q 336 265 336 310 q 357 201 336 219 q 425 183 378 183 m 293 -321 q 274 -314 281 -321 q 267 -296 267 -307 l 267 -290 l 290 -146 q 325 -112 294 -112 l 436 -112 q 463 -139 463 -112 l 463 -146 l 439 -290 q 404 -321 435 -321 l 293 -321 z "},"ò":{"ha":801,"x_min":99,"x_max":818,"o":"m 400 -8 q 174 58 249 -8 q 99 254 99 125 q 110 397 99 328 q 181 622 133 546 q 308 727 229 699 q 519 756 388 756 q 705 726 640 756 q 794 639 769 697 q 818 481 818 581 q 806 329 818 411 q 736 122 785 194 q 608 20 688 49 q 400 -8 528 -8 m 425 183 q 498 198 472 183 q 539 251 524 213 q 567 364 554 289 q 579 490 579 442 q 558 551 579 535 q 488 568 538 568 q 415 551 440 568 q 374 492 389 535 q 346 364 358 450 q 336 265 336 310 q 357 201 336 219 q 425 183 378 183 m 356 1074 l 547 1074 l 619 876 l 478 876 l 356 1074 z "},"ỏ":{"ha":801,"x_min":99,"x_max":818,"o":"m 400 -8 q 174 58 249 -8 q 99 254 99 125 q 110 397 99 328 q 181 622 133 546 q 308 727 229 699 q 519 756 388 756 q 705 726 640 756 q 794 639 769 697 q 818 481 818 581 q 806 329 818 411 q 736 122 785 194 q 608 20 688 49 q 400 -8 528 -8 m 425 183 q 498 198 472 183 q 539 251 524 213 q 567 364 554 289 q 579 490 579 442 q 558 551 579 535 q 488 568 538 568 q 415 551 440 568 q 374 492 389 535 q 346 364 358 450 q 336 265 336 310 q 357 201 336 219 q 425 183 378 183 m 485 925 q 540 978 540 940 q 506 1001 540 1001 q 461 993 492 1001 l 475 1086 q 554 1097 511 1097 q 668 999 668 1097 q 469 821 668 875 l 485 925 z "},"ơ":{"ha":804,"x_min":99,"x_max":921,"o":"m 921 899 q 872 749 907 811 q 786 654 838 688 q 818 481 818 594 q 806 329 818 411 q 736 122 785 194 q 608 20 688 49 q 400 -8 528 -8 q 174 58 249 -8 q 99 254 99 125 q 110 397 99 328 q 181 622 133 546 q 308 727 229 699 q 519 756 388 756 q 633 747 583 756 l 638 747 q 715 782 686 747 q 757 899 744 817 l 921 899 m 567 364 q 579 490 579 442 q 558 551 579 535 q 488 568 538 568 q 415 551 440 568 q 374 492 389 535 q 346 364 358 450 q 336 265 336 310 q 357 201 336 219 q 425 183 378 183 q 498 198 472 183 q 539 251 524 213 q 567 364 554 289 z "},"ớ":{"ha":804,"x_min":99,"x_max":921,"o":"m 921 899 q 872 749 907 811 q 786 654 838 688 q 818 481 818 594 q 806 329 818 411 q 736 122 785 194 q 608 20 688 49 q 400 -8 528 -8 q 174 58 249 -8 q 99 254 99 125 q 110 397 99 328 q 181 622 133 546 q 308 727 229 699 q 519 756 388 756 q 633 747 583 756 l 638 747 q 715 782 686 747 q 757 899 744 817 l 921 899 m 567 364 q 579 490 579 442 q 558 551 579 535 q 488 568 538 568 q 415 551 440 568 q 374 492 389 535 q 346 364 358 450 q 336 265 336 310 q 357 201 336 219 q 425 183 378 183 q 498 198 472 183 q 539 251 524 213 q 567 364 554 289 m 536 1074 l 739 1074 l 565 876 l 413 876 l 536 1074 z "},"ợ":{"ha":804,"x_min":99,"x_max":921,"o":"m 921 899 q 872 749 907 811 q 786 654 838 688 q 818 481 818 594 q 806 329 818 411 q 736 122 785 194 q 608 20 688 49 q 400 -8 528 -8 q 174 58 249 -8 q 99 254 99 125 q 110 397 99 328 q 181 622 133 546 q 308 727 229 699 q 519 756 388 756 q 633 747 583 756 l 638 747 q 715 782 686 747 q 757 899 744 817 l 921 899 m 567 364 q 579 490 579 442 q 558 551 579 535 q 488 568 538 568 q 415 551 440 568 q 374 492 389 535 q 346 364 358 450 q 336 265 336 310 q 357 201 336 219 q 425 183 378 183 q 498 198 472 183 q 539 251 524 213 q 567 364 554 289 m 311 -321 q 292 -314 299 -321 q 285 -296 285 -307 l 285 -290 l 308 -146 q 343 -112 313 -112 l 454 -112 q 481 -139 481 -112 l 481 -146 l 457 -290 q 422 -321 453 -321 l 311 -321 z "},"ờ":{"ha":804,"x_min":99,"x_max":921,"o":"m 921 899 q 872 749 907 811 q 786 654 838 688 q 818 481 818 594 q 806 329 818 411 q 736 122 785 194 q 608 20 688 49 q 400 -8 528 -8 q 174 58 249 -8 q 99 254 99 125 q 110 397 99 328 q 181 622 133 546 q 308 727 229 699 q 519 756 388 756 q 633 747 583 756 l 638 747 q 715 782 686 747 q 757 899 744 817 l 921 899 m 567 364 q 579 490 579 442 q 558 551 579 535 q 488 568 538 568 q 415 551 440 568 q 374 492 389 535 q 346 364 358 450 q 336 265 336 310 q 357 201 336 219 q 425 183 378 183 q 498 198 472 183 q 539 251 524 213 q 567 364 554 289 m 317 1074 l 508 1074 l 581 876 l 439 876 l 317 1074 z "},"ở":{"ha":804,"x_min":99,"x_max":921,"o":"m 921 899 q 872 749 907 811 q 786 654 838 688 q 818 481 818 594 q 806 329 818 411 q 736 122 785 194 q 608 20 688 49 q 400 -8 528 -8 q 174 58 249 -8 q 99 254 99 125 q 110 397 99 328 q 181 622 133 546 q 308 727 229 699 q 519 756 388 756 q 633 747 583 756 l 638 747 q 715 782 686 747 q 757 899 744 817 l 921 899 m 567 364 q 579 490 579 442 q 558 551 579 535 q 488 568 538 568 q 415 551 440 568 q 374 492 389 535 q 346 364 358 450 q 336 265 336 310 q 357 201 336 219 q 425 183 378 183 q 498 198 472 183 q 539 251 524 213 q 567 364 554 289 m 447 925 q 503 978 503 940 q 468 1001 503 1001 q 424 993 454 1001 l 438 1086 q 517 1097 474 1097 q 631 999 631 1097 q 432 821 631 875 l 447 925 z "},"ỡ":{"ha":804,"x_min":99,"x_max":921,"o":"m 921 899 q 872 749 907 811 q 786 654 838 688 q 818 481 818 594 q 806 329 818 411 q 736 122 785 194 q 608 20 688 49 q 400 -8 528 -8 q 174 58 249 -8 q 99 254 99 125 q 110 397 99 328 q 181 622 133 546 q 308 727 229 699 q 519 756 388 756 q 633 747 583 756 l 638 747 q 715 782 686 747 q 757 899 744 817 l 921 899 m 567 364 q 579 490 579 442 q 558 551 579 535 q 488 568 538 568 q 415 551 440 568 q 374 492 389 535 q 346 364 358 450 q 336 265 336 310 q 357 201 336 219 q 425 183 378 183 q 498 198 472 183 q 539 251 524 213 q 567 364 554 289 m 221 875 q 400 1057 265 1057 q 459 1049 432 1057 q 519 1028 486 1042 q 558 1015 539 1021 q 593 1008 578 1008 q 650 1065 642 1008 l 769 1065 q 701 921 743 965 q 593 876 660 876 q 538 883 563 876 q 468 906 513 890 q 399 925 419 925 q 361 910 376 925 q 340 875 346 896 l 221 875 z "},"ő":{"ha":801,"x_min":99,"x_max":865,"o":"m 400 -8 q 174 58 249 -8 q 99 254 99 125 q 110 397 99 328 q 181 622 133 546 q 308 727 229 699 q 519 756 388 756 q 705 726 640 756 q 794 639 769 697 q 818 481 818 581 q 806 329 818 411 q 736 122 785 194 q 608 20 688 49 q 400 -8 528 -8 m 425 183 q 498 198 472 183 q 539 251 524 213 q 567 364 554 289 q 579 490 579 442 q 558 551 579 535 q 488 568 538 568 q 415 551 440 568 q 374 492 389 535 q 346 364 358 450 q 336 265 336 310 q 357 201 336 219 q 425 183 378 183 m 451 1074 l 631 1074 l 469 876 l 328 876 l 451 1074 m 685 1074 l 865 1074 l 703 876 l 563 876 l 685 1074 z "},"ȏ":{"ha":801,"x_min":99,"x_max":818,"o":"m 400 -8 q 174 58 249 -8 q 99 254 99 125 q 110 397 99 328 q 181 622 133 546 q 308 727 229 699 q 519 756 388 756 q 705 726 640 756 q 794 639 769 697 q 818 481 818 581 q 806 329 818 411 q 736 122 785 194 q 608 20 688 49 q 400 -8 528 -8 m 425 183 q 498 198 472 183 q 539 251 524 213 q 567 364 554 289 q 579 490 579 442 q 558 551 579 535 q 488 568 538 568 q 415 551 440 568 q 374 492 389 535 q 346 364 358 450 q 336 265 336 310 q 357 201 336 219 q 425 183 378 183 m 328 867 q 561 1081 363 1081 q 686 1041 643 1081 q 729 924 729 1001 q 724 867 729 908 l 614 867 q 617 897 617 889 q 597 956 617 938 q 544 974 576 974 q 442 867 458 974 l 328 867 z "},"ō":{"ha":801,"x_min":99,"x_max":818,"o":"m 400 -8 q 174 58 249 -8 q 99 254 99 125 q 110 397 99 328 q 181 622 133 546 q 308 727 229 699 q 519 756 388 756 q 705 726 640 756 q 794 639 769 697 q 818 481 818 581 q 806 329 818 411 q 736 122 785 194 q 608 20 688 49 q 400 -8 528 -8 m 425 183 q 498 198 472 183 q 539 251 524 213 q 567 364 554 289 q 579 490 579 442 q 558 551 579 535 q 488 568 538 568 q 415 551 440 568 q 374 492 389 535 q 346 364 358 450 q 336 265 336 310 q 357 201 336 219 q 425 183 378 183 m 357 1028 l 756 1028 l 733 888 l 335 888 l 357 1028 z "},"ṓ":{"ha":801,"x_min":99,"x_max":818,"o":"m 400 -8 q 174 58 249 -8 q 99 254 99 125 q 110 397 99 328 q 181 622 133 546 q 308 727 229 699 q 519 756 388 756 q 705 726 640 756 q 794 639 769 697 q 818 481 818 581 q 806 329 818 411 q 736 122 785 194 q 608 20 688 49 q 400 -8 528 -8 m 425 183 q 498 198 472 183 q 539 251 524 213 q 567 364 554 289 q 579 490 579 442 q 558 551 579 535 q 488 568 538 568 q 415 551 440 568 q 374 492 389 535 q 346 364 358 450 q 336 265 336 310 q 357 201 336 219 q 425 183 378 183 m 357 1028 l 756 1028 l 733 888 l 335 888 l 357 1028 m 615 1289 l 818 1289 l 644 1092 l 492 1092 l 615 1289 z "},"ṑ":{"ha":801,"x_min":99,"x_max":818,"o":"m 400 -8 q 174 58 249 -8 q 99 254 99 125 q 110 397 99 328 q 181 622 133 546 q 308 727 229 699 q 519 756 388 756 q 705 726 640 756 q 794 639 769 697 q 818 481 818 581 q 806 329 818 411 q 736 122 785 194 q 608 20 688 49 q 400 -8 528 -8 m 425 183 q 498 198 472 183 q 539 251 524 213 q 567 364 554 289 q 579 490 579 442 q 558 551 579 535 q 488 568 538 568 q 415 551 440 568 q 374 492 389 535 q 346 364 358 450 q 336 265 336 310 q 357 201 336 219 q 425 183 378 183 m 357 1028 l 756 1028 l 733 888 l 335 888 l 357 1028 m 356 1289 l 547 1289 l 619 1092 l 478 1092 l 356 1289 z "},"ǫ":{"ha":801,"x_min":99,"x_max":818,"o":"m 519 756 q 705 726 640 756 q 794 639 769 697 q 818 481 818 581 q 806 329 818 411 q 715 92 781 167 q 526 0 649 18 q 469 -51 488 -24 q 451 -99 451 -78 q 468 -137 451 -124 q 511 -151 485 -151 l 524 -151 l 507 -264 q 458 -269 494 -269 q 359 -240 390 -269 q 328 -165 328 -210 q 354 -75 328 -115 q 426 -8 381 -35 l 400 -8 q 174 58 249 -8 q 99 254 99 125 q 110 397 99 328 q 181 622 133 546 q 308 727 229 699 q 519 756 388 756 m 567 364 q 579 490 579 442 q 558 551 579 535 q 488 568 538 568 q 415 551 440 568 q 374 492 389 535 q 346 364 358 450 q 336 265 336 310 q 357 201 336 219 q 425 183 378 183 q 498 198 472 183 q 539 251 524 213 q 567 364 554 289 z "},"ø":{"ha":794,"x_min":31,"x_max":882,"o":"m 788 651 q 818 481 818 592 q 806 329 818 411 q 736 122 785 194 q 608 20 688 49 q 400 -8 528 -8 q 186 49 263 -8 l 139 0 l 31 0 l 135 104 q 99 254 99 165 q 110 397 99 328 q 181 622 133 546 q 308 727 229 699 q 519 756 388 756 q 736 710 667 756 l 774 747 l 882 747 l 788 651 m 346 364 q 339 310 342 346 l 568 540 q 539 562 558 556 q 488 568 519 568 q 415 551 440 568 q 374 492 389 535 q 346 364 358 450 m 567 364 q 576 440 575 425 l 349 211 q 425 183 367 183 q 498 198 472 183 q 539 251 524 213 q 567 364 554 289 z "},"ǿ":{"ha":794,"x_min":31,"x_max":882,"o":"m 788 651 q 818 481 818 592 q 806 329 818 411 q 736 122 785 194 q 608 20 688 49 q 400 -8 528 -8 q 186 49 263 -8 l 139 0 l 31 0 l 135 104 q 99 254 99 165 q 110 397 99 328 q 181 622 133 546 q 308 727 229 699 q 519 756 388 756 q 736 710 667 756 l 774 747 l 882 747 l 788 651 m 346 364 q 339 310 342 346 l 568 540 q 539 562 558 556 q 488 568 519 568 q 415 551 440 568 q 374 492 389 535 q 346 364 358 450 m 567 364 q 576 440 575 425 l 349 211 q 425 183 367 183 q 498 198 472 183 q 539 251 524 213 q 567 364 554 289 m 531 1074 l 733 1074 l 560 876 l 407 876 l 531 1074 z "},"õ":{"ha":801,"x_min":99,"x_max":818,"o":"m 400 -8 q 174 58 249 -8 q 99 254 99 125 q 110 397 99 328 q 181 622 133 546 q 308 727 229 699 q 519 756 388 756 q 705 726 640 756 q 794 639 769 697 q 818 481 818 581 q 806 329 818 411 q 736 122 785 194 q 608 20 688 49 q 400 -8 528 -8 m 425 183 q 498 198 472 183 q 539 251 524 213 q 567 364 554 289 q 579 490 579 442 q 558 551 579 535 q 488 568 538 568 q 415 551 440 568 q 374 492 389 535 q 346 364 358 450 q 336 265 336 310 q 357 201 336 219 q 425 183 378 183 m 260 875 q 439 1057 304 1057 q 498 1049 471 1057 q 558 1028 525 1042 q 597 1015 578 1021 q 632 1008 617 1008 q 689 1065 681 1008 l 808 1065 q 740 921 782 965 q 632 876 699 876 q 576 883 601 876 q 507 906 551 890 q 438 925 458 925 q 400 910 415 925 q 379 875 385 896 l 260 875 z "},"ṍ":{"ha":801,"x_min":99,"x_max":818,"o":"m 400 -8 q 174 58 249 -8 q 99 254 99 125 q 110 397 99 328 q 181 622 133 546 q 308 727 229 699 q 519 756 388 756 q 705 726 640 756 q 794 639 769 697 q 818 481 818 581 q 806 329 818 411 q 736 122 785 194 q 608 20 688 49 q 400 -8 528 -8 m 425 183 q 498 198 472 183 q 539 251 524 213 q 567 364 554 289 q 579 490 579 442 q 558 551 579 535 q 488 568 538 568 q 415 551 440 568 q 374 492 389 535 q 346 364 358 450 q 336 265 336 310 q 357 201 336 219 q 425 183 378 183 m 260 875 q 439 1057 304 1057 q 498 1049 471 1057 q 558 1028 525 1042 q 597 1015 578 1021 q 632 1008 617 1008 q 689 1065 681 1008 l 808 1065 q 740 921 782 965 q 632 876 699 876 q 576 883 601 876 q 507 906 551 890 q 438 925 458 925 q 400 910 415 925 q 379 875 385 896 l 260 875 m 590 1296 l 793 1296 l 619 1099 l 467 1099 l 590 1296 z "},"ṏ":{"ha":801,"x_min":99,"x_max":818,"o":"m 400 -8 q 174 58 249 -8 q 99 254 99 125 q 110 397 99 328 q 181 622 133 546 q 308 727 229 699 q 519 756 388 756 q 705 726 640 756 q 794 639 769 697 q 818 481 818 581 q 806 329 818 411 q 736 122 785 194 q 608 20 688 49 q 400 -8 528 -8 m 425 183 q 498 198 472 183 q 539 251 524 213 q 567 364 554 289 q 579 490 579 442 q 558 551 579 535 q 488 568 538 568 q 415 551 440 568 q 374 492 389 535 q 346 364 358 450 q 336 265 336 310 q 357 201 336 219 q 425 183 378 183 m 260 875 q 439 1057 304 1057 q 498 1049 471 1057 q 558 1028 525 1042 q 597 1015 578 1021 q 632 1008 617 1008 q 689 1065 681 1008 l 808 1065 q 740 921 782 965 q 632 876 699 876 q 576 883 601 876 q 507 906 551 890 q 438 925 458 925 q 400 910 415 925 q 379 875 385 896 l 260 875 m 354 1121 q 335 1128 342 1121 q 328 1146 328 1135 l 353 1296 q 386 1329 357 1329 l 499 1329 q 524 1303 524 1329 l 500 1151 q 465 1121 496 1121 l 354 1121 m 629 1121 q 610 1128 618 1121 q 603 1146 603 1135 l 628 1296 q 663 1329 632 1329 l 774 1329 q 800 1303 800 1329 l 776 1151 q 765 1128 775 1136 q 740 1121 754 1121 l 629 1121 z "},"ȭ":{"ha":801,"x_min":99,"x_max":818,"o":"m 400 -8 q 174 58 249 -8 q 99 254 99 125 q 110 397 99 328 q 181 622 133 546 q 308 727 229 699 q 519 756 388 756 q 705 726 640 756 q 794 639 769 697 q 818 481 818 581 q 806 329 818 411 q 736 122 785 194 q 608 20 688 49 q 400 -8 528 -8 m 425 183 q 498 198 472 183 q 539 251 524 213 q 567 364 554 289 q 579 490 579 442 q 558 551 579 535 q 488 568 538 568 q 415 551 440 568 q 374 492 389 535 q 346 364 358 450 q 336 265 336 310 q 357 201 336 219 q 425 183 378 183 m 369 1235 l 768 1235 l 746 1094 l 347 1094 l 369 1235 m 254 850 q 433 1032 299 1032 q 492 1024 465 1032 q 553 1003 519 1017 q 592 990 572 996 q 626 983 611 983 q 683 1040 675 983 l 803 1040 q 735 896 776 940 q 626 851 693 851 q 571 858 596 851 q 501 881 546 865 q 432 900 453 900 q 394 885 410 900 q 374 850 379 871 l 254 850 z "},"œ":{"ha":1225,"x_min":99,"x_max":1261,"o":"m 388 -8 q 171 58 243 -8 q 99 254 99 125 q 110 397 99 328 q 181 622 133 544 q 304 727 228 699 q 507 756 381 756 q 736 646 656 756 q 846 729 786 701 q 982 757 906 757 q 1183 706 1104 757 q 1261 528 1261 656 q 1178 326 1261 381 q 946 272 1096 272 q 801 285 858 272 q 799 246 799 263 q 837 186 799 206 q 953 167 875 167 l 1197 167 l 1175 26 q 1038 1 1113 11 q 897 -8 963 -8 q 751 14 806 -8 q 660 82 696 36 q 536 15 600 38 q 388 -8 472 -8 m 889 403 q 1006 426 972 403 q 1039 501 1039 450 q 954 574 1039 574 q 863 533 894 574 q 817 410 831 493 q 889 403 872 403 m 425 183 q 497 198 471 183 q 539 251 524 213 q 567 364 554 289 q 579 490 579 443 q 558 551 579 535 q 488 568 538 568 q 415 551 440 568 q 374 492 389 535 q 346 364 358 450 q 336 265 336 310 q 357 201 336 219 q 425 183 378 183 z "},"p":{"ha":797,"x_min":15,"x_max":818,"o":"m 181 713 q 387 745 300 735 q 568 756 474 756 q 760 690 703 756 q 818 486 818 624 q 804 335 818 422 q 683 77 776 163 q 456 -8 590 -8 q 371 -2 410 -8 q 310 17 332 4 l 254 -329 l 15 -329 l 181 713 m 426 194 q 522 237 488 194 q 575 379 557 279 q 579 408 576 389 q 582 443 582 428 q 563 535 582 506 q 500 564 543 564 l 396 563 l 339 210 q 426 194 376 194 z "},"ṗ":{"ha":797,"x_min":15,"x_max":818,"o":"m 181 713 q 387 745 300 735 q 568 756 474 756 q 760 690 703 756 q 818 486 818 624 q 804 335 818 422 q 683 77 776 163 q 456 -8 590 -8 q 371 -2 410 -8 q 310 17 332 4 l 254 -329 l 15 -329 l 181 713 m 426 194 q 522 237 488 194 q 575 379 557 279 q 579 408 576 389 q 582 443 582 428 q 563 535 582 506 q 500 564 543 564 l 396 563 l 339 210 q 426 194 376 194 m 488 888 q 468 894 475 888 q 461 913 461 901 l 461 918 l 485 1063 q 519 1096 489 1096 l 631 1096 q 657 1069 657 1096 l 657 1063 l 633 918 q 599 888 629 888 l 488 888 z "},"þ":{"ha":803,"x_min":14,"x_max":818,"o":"m 235 1060 l 475 1060 l 426 750 q 569 756 483 756 q 760 690 703 756 q 818 486 818 624 q 804 335 818 422 q 684 77 776 163 q 457 -8 592 -8 q 372 -2 411 -8 q 310 17 332 4 l 254 -329 l 14 -329 l 235 1060 m 425 194 q 522 237 486 194 q 575 379 557 279 q 579 408 576 389 q 582 443 582 428 q 562 534 582 504 q 499 564 542 564 l 396 563 l 339 210 q 425 194 376 194 z "},"q":{"ha":793,"x_min":97,"x_max":842,"o":"m 501 74 q 406 15 464 39 q 292 -8 349 -8 q 97 246 97 -8 q 111 400 97 307 q 242 676 142 596 q 496 756 342 756 q 692 741 596 756 q 842 704 788 726 l 678 -329 l 438 -329 l 501 74 m 410 183 q 526 229 467 183 l 578 554 q 500 564 539 561 q 394 522 428 565 q 344 383 361 479 q 335 294 335 329 q 354 211 335 239 q 410 183 374 183 z "},"r":{"ha":594,"x_min":68,"x_max":676,"o":"m 186 747 l 401 747 l 411 649 q 502 727 456 699 q 607 756 549 756 q 676 749 649 756 l 640 508 q 557 510 614 510 q 456 494 501 510 q 381 456 411 479 l 308 0 l 68 0 l 186 747 z "},"ŕ":{"ha":594,"x_min":68,"x_max":694,"o":"m 186 747 l 401 747 l 411 649 q 502 727 456 699 q 607 756 549 756 q 676 749 649 756 l 640 508 q 557 510 614 510 q 456 494 501 510 q 381 456 411 479 l 308 0 l 68 0 l 186 747 m 492 1076 l 694 1076 l 521 879 l 368 879 l 492 1076 z "},"ř":{"ha":594,"x_min":68,"x_max":711,"o":"m 186 747 l 401 747 l 411 649 q 502 727 456 699 q 607 756 549 756 q 676 749 649 756 l 640 508 q 557 510 614 510 q 456 494 501 510 q 381 456 411 479 l 308 0 l 68 0 l 186 747 m 272 1079 l 410 1079 l 474 985 l 571 1079 l 711 1079 l 535 879 l 372 879 l 272 1079 z "},"ŗ":{"ha":594,"x_min":17,"x_max":676,"o":"m 186 747 l 401 747 l 411 649 q 502 727 456 699 q 607 756 549 756 q 676 749 649 756 l 640 508 q 557 510 614 510 q 456 494 501 510 q 381 456 411 479 l 308 0 l 68 0 l 186 747 m 32 -208 l 71 -197 q 125 -169 110 -186 q 147 -106 140 -153 l 292 -106 q 231 -261 275 -215 q 94 -307 188 -307 l 17 -307 l 32 -208 z "},"ȑ":{"ha":594,"x_min":68,"x_max":676,"o":"m 186 747 l 401 747 l 411 649 q 502 727 456 699 q 607 756 549 756 q 676 749 649 756 l 640 508 q 557 510 614 510 q 456 494 501 510 q 381 456 411 479 l 308 0 l 68 0 l 186 747 m 131 1076 l 322 1076 l 394 879 l 253 879 l 131 1076 m 394 1076 l 586 1076 l 658 879 l 517 879 l 394 1076 z "},"ṛ":{"ha":594,"x_min":68,"x_max":676,"o":"m 186 747 l 401 747 l 411 649 q 502 727 456 699 q 607 756 549 756 q 676 749 649 756 l 640 508 q 557 510 614 510 q 456 494 501 510 q 381 456 411 479 l 308 0 l 68 0 l 186 747 m 96 -321 q 76 -314 83 -321 q 69 -296 69 -307 l 69 -290 l 93 -146 q 128 -112 97 -112 l 239 -112 q 265 -139 265 -112 l 265 -146 l 242 -290 q 207 -321 238 -321 l 96 -321 z "},"ȓ":{"ha":594,"x_min":68,"x_max":676,"o":"m 186 747 l 401 747 l 411 649 q 502 727 456 699 q 607 756 549 756 q 676 749 649 756 l 640 508 q 557 510 614 510 q 456 494 501 510 q 381 456 411 479 l 308 0 l 68 0 l 186 747 m 244 869 q 478 1083 279 1083 q 603 1044 560 1083 q 646 926 646 1004 q 640 869 646 911 l 531 869 q 533 900 533 892 q 513 958 533 940 q 461 976 493 976 q 358 869 375 976 l 244 869 z "},"ṟ":{"ha":594,"x_min":-39,"x_max":676,"o":"m 186 747 l 401 747 l 411 649 q 502 727 456 699 q 607 756 549 756 q 676 749 649 756 l 640 508 q 557 510 614 510 q 456 494 501 510 q 381 456 411 479 l 308 0 l 68 0 l 186 747 m -17 -167 l 382 -167 l 360 -307 l -39 -307 l -17 -167 z "},"s":{"ha":714,"x_min":68,"x_max":743,"o":"m 367 -8 q 68 31 185 -8 l 90 171 l 421 171 q 483 210 476 171 l 488 232 l 489 246 q 443 278 489 278 l 340 278 q 183 317 243 278 q 122 436 122 357 q 126 501 122 478 l 135 553 q 225 702 151 649 q 456 756 299 756 q 608 744 526 756 q 743 715 689 733 l 721 575 l 410 575 q 366 566 379 575 q 347 535 353 557 l 344 522 l 342 499 q 352 476 342 483 q 390 468 363 468 l 508 468 q 656 427 600 468 q 711 318 711 386 q 707 251 711 288 l 697 186 q 597 38 681 83 q 367 -8 513 -8 z "}}}
